<svg width="775" height="195" viewBox="0 0 775 195" fill="none" xmlns="http://www.w3.org/2000/svg">
<g style="mix-blend-mode:difference">
<path d="M149.752 117.587L159.964 114.32C166.189 115.84 172.752 126.155 165.143 134.376L155.439 137.532M149.752 117.587L112.989 129.348L104.74 143.758L119.048 149.369L155.439 137.532M149.752 117.587L155.439 137.532" stroke="#BEC1C8" stroke-width="7.44118"/>
<path d="M52.72 180.601L11 200.149L33.3666 204.22L41.7567 225.35L52.72 180.601Z" stroke="#BEC1C8" stroke-width="6.37816"/>
<rect x="659.453" y="84.4706" width="176.987" height="46.7266" transform="rotate(63.1152 659.453 84.4706)" stroke="#BEC1C8" stroke-width="7.44118"/>
<rect x="662.549" y="76.478" width="13.0456" height="13.0456" transform="rotate(63.1152 662.549 76.478)" fill="#BEC1C8" stroke="#BEC1C8" stroke-width="3.72059"/>
<rect x="621.711" y="97.184" width="13.0456" height="13.0456" transform="rotate(63.1152 621.711 97.184)" fill="#BEC1C8" stroke="#BEC1C8" stroke-width="3.72059"/>
<path d="M436.086 108.741C432.091 103.008 427.728 97.9594 423.399 93.5945C434.564 96.4948 445.004 97.3549 454.699 96.6706C473.135 95.3691 488.537 88.5063 500.81 80.0318C506.844 75.8654 512.138 71.2994 516.689 66.7879C513.71 78.0886 512.825 88.6355 513.521 98.4115C514.829 116.781 521.696 132.089 530.174 144.265C534.495 150.472 539.245 155.881 543.917 160.494C537.376 158.822 530.075 157.501 522.298 156.994C507.356 156.019 490.576 158.049 474.116 166.448C465.812 170.685 457.668 176.504 449.93 184.271C452.549 173.653 453.317 163.717 452.668 154.475C451.38 136.138 444.539 120.874 436.086 108.741Z" stroke="#BEC1C8" stroke-width="9.03572" stroke-miterlimit="1"/>
<path d="M552.325 143.512C548.05 140.648 546.906 134.861 549.769 130.586C552.633 126.311 558.42 125.167 562.695 128.03L590.2 146.453C594.475 149.317 595.619 155.104 592.756 159.379C589.892 163.654 584.105 164.798 579.83 161.935L552.325 143.512ZM566.541 122.288C562.266 119.425 561.122 113.638 563.985 109.363C566.849 105.088 572.635 103.943 576.911 106.807L604.415 125.23C608.691 128.093 609.835 133.88 606.971 138.155C604.108 142.43 598.321 143.575 594.046 140.711L566.541 122.288Z" stroke="#BEC1C8" stroke-width="6.90967"/>
<rect x="270.469" y="46.3184" width="7.58769" height="107.798" transform="rotate(64.0522 270.469 46.3184)" fill="#BEC1C8"/>
<rect x="238.387" y="20.3242" width="7.58769" height="107.798" transform="rotate(19.0522 238.387 20.3242)" fill="#BEC1C8"/>
<rect x="274.773" y="87.3887" width="7.58769" height="107.798" transform="rotate(109.052 274.773 87.3887)" fill="#BEC1C8"/>
<rect x="197.319" y="24.6279" width="7.58769" height="107.798" transform="rotate(-25.9478 197.319 24.6279)" fill="#BEC1C8"/>
<rect x="238.387" y="20.3242" width="7.58769" height="107.798" transform="rotate(19.0522 238.387 20.3242)" fill="#BEC1C8"/>
<path d="M481.934 196.695L517.644 209.613L506.979 194.206L514.402 177L481.934 196.695Z" stroke="#BEC1C8" stroke-width="6.37816"/>
<path fill-rule="evenodd" clip-rule="evenodd" d="M640.97 180.951L658.234 226.813L632.013 219.222L636.936 198.265L623.088 196.383L609.24 194.5L615.877 159.814L628.493 186.276L640.97 180.951Z" stroke="#BEC1C8" stroke-width="6.03484"/>
<rect x="76.4585" y="171.58" width="144.571" height="37.2057" transform="rotate(-15.1527 76.4585 171.58)" stroke="#BEC1C8" stroke-width="7.44118"/>
<rect x="70.1256" y="167.511" width="10.0987" height="10.0987" transform="rotate(-15.1527 70.1256 167.511)" fill="#BEC1C8" stroke="#BEC1C8" stroke-width="3.72059"/>
<rect x="209.159" y="129.863" width="10.0987" height="10.0987" transform="rotate(-15.1527 209.159 129.863)" fill="#BEC1C8" stroke="#BEC1C8" stroke-width="3.72059"/>
<rect x="219.025" y="166.286" width="10.0987" height="10.0987" transform="rotate(-15.1527 219.025 166.286)" fill="#BEC1C8" stroke="#BEC1C8" stroke-width="3.72059"/>
<path d="M549.231 197.39L541.262 193.57C538.392 189.138 540.294 179.242 549.506 178.62L557.108 182.219M549.231 197.39L577.919 211.143L591.017 207.173L585.616 195.715L557.108 182.219M549.231 197.39L557.108 182.219" stroke="#BEC1C8" stroke-width="7.44118"/>
<path d="M476.088 73.9745L449.36 46.9996L452.393 65.4906L438.312 77.8553L476.088 73.9745Z" stroke="#BEC1C8" stroke-width="6.37816"/>
<path d="M225.549 188.707L234.314 187.582C239.133 189.742 242.915 199.083 235.52 204.612L227.183 205.723M225.549 188.707L193.993 192.755L185.157 203.206L195.918 209.889L227.183 205.723M225.549 188.707L227.183 205.723" stroke="#BEC1C8" stroke-width="7.44118"/>
<path d="M413.815 158.741C413.91 159.1 414.288 159.544 415.177 159.842C416.044 160.134 417.227 160.212 418.498 159.943C419.77 159.673 420.788 159.127 421.416 158.519C422.061 157.895 422.176 157.346 422.081 156.987C421.986 156.628 421.608 156.184 420.72 155.886C419.853 155.595 418.669 155.516 417.398 155.786C416.126 156.055 415.108 156.601 414.48 157.21C413.835 157.833 413.72 158.382 413.815 158.741Z" fill="#BEC1C8" stroke="#BEC1C8" stroke-width="2.15826"/>
<path d="M416.425 147.731C416.494 148.096 416.839 148.566 417.704 148.927C418.444 149.236 419.439 149.4 420.541 149.315C420.305 148.4 419.905 147.008 419.304 145.221C418.426 145.455 417.703 145.828 417.197 146.251C416.51 146.828 416.356 147.366 416.425 147.731Z" fill="#BEC1C8" stroke="#BEC1C8" stroke-width="2.15826"/>
<path d="M375.398 149.396L381.468 165.56M381.468 165.56C380.714 172.76 375.411 177.056 367.453 174.281M381.468 165.56C389.108 170.531 394.226 168.838 398.77 162.521" stroke="#BEC1C8" stroke-width="4.2521" stroke-linecap="round"/>
<path d="M387.458 144.698C388.209 146.698 387.938 149.879 386.516 152.967C385.109 156.022 382.67 158.768 379.374 160.006C376.131 161.224 372.897 160.526 370.208 158.914C367.495 157.287 365.463 154.801 364.672 152.695C364.287 151.668 364.23 150.824 364.393 150.101C364.557 149.375 364.964 148.672 365.671 147.966C367.124 146.514 369.687 145.201 373.304 143.842C376.88 142.5 380.161 141.748 382.703 141.86C385.204 141.97 386.776 142.882 387.458 144.698Z" fill="#BEC1C8" stroke="#BEC1C8" stroke-width="2.15826"/>
<circle cx="338.96" cy="156.741" r="6.47476" transform="rotate(-20.5827 338.96 156.741)" fill="#BEC1C8" stroke="#BEC1C8" stroke-width="2.15826"/>
<circle cx="399.571" cy="133.977" r="6.47476" transform="rotate(-20.5827 399.571 133.977)" fill="#BEC1C8" stroke="#BEC1C8" stroke-width="2.15826"/>
<path d="M337.052 180.649C337.217 180.982 337.224 181.565 336.752 182.375C336.291 183.165 335.452 184.003 334.317 184.637C333.182 185.271 332.057 185.53 331.183 185.485C330.287 185.44 329.84 185.103 329.675 184.77C329.51 184.437 329.502 183.854 329.975 183.045C330.436 182.255 331.275 181.417 332.409 180.783C333.544 180.149 334.67 179.89 335.544 179.934C336.439 179.979 336.887 180.316 337.052 180.649Z" fill="#BEC1C8" stroke="#BEC1C8" stroke-width="2.15826"/>
<path d="M334.255 193.234C334.42 193.567 334.428 194.15 333.956 194.96C333.495 195.75 332.656 196.588 331.521 197.222C330.386 197.855 329.261 198.115 328.387 198.07C327.491 198.025 327.043 197.688 326.879 197.355C326.714 197.022 326.706 196.439 327.178 195.63C327.639 194.84 328.478 194.002 329.613 193.368C330.748 192.734 331.873 192.475 332.747 192.519C333.643 192.564 334.091 192.901 334.255 193.234Z" fill="#BEC1C8" stroke="#BEC1C8" stroke-width="2.15826"/>
<path d="M348.335 185.639C348.5 185.971 348.508 186.554 348.035 187.364C347.574 188.154 346.736 188.992 345.601 189.626C344.466 190.26 343.34 190.519 342.467 190.475C341.571 190.429 341.123 190.092 340.958 189.759C340.793 189.426 340.786 188.844 341.258 188.034C341.719 187.244 342.558 186.406 343.693 185.772C344.828 185.138 345.953 184.879 346.827 184.923C347.723 184.969 348.17 185.306 348.335 185.639Z" fill="#BEC1C8" stroke="#BEC1C8" stroke-width="2.15826"/>
<path d="M254.635 176.338C273.01 238.424 310.249 227.402 356.186 213.806C370.781 209.487 382.937 205.889 392.953 202.598C442.16 186.43 426.163 161.419 407.44 110.856C395.025 77.3295 364.862 76.1911 303.519 94.3464C272.036 103.664 257.457 122.251 253.653 144.313C247.89 144.961 243.288 147.643 241.509 152.02C238.623 159.118 244.165 168.205 254.069 173.292C254.243 174.306 254.432 175.321 254.635 176.338Z" stroke="#BEC1C8" stroke-width="7.44118"/>
</g>
</svg>
