<svg width="213" height="180" fill="none" xmlns="http://www.w3.org/2000/svg"><path d="M188.816 94.74c.095.36.472.804 1.361 1.102.867.292 2.05.37 3.322.1 1.271-.27 2.289-.815 2.918-1.423.644-.624.76-1.173.665-1.532-.096-.359-.473-.803-1.362-1.101-.867-.291-2.05-.37-3.322-.1-1.271.27-2.289.815-2.918 1.424-.644.623-.76 1.172-.664 1.53zM191.425 83.731c.07.365.415.835 1.28 1.196.74.31 1.734.473 2.836.388a60.3 60.3 0 00-1.237-4.094c-.877.234-1.601.607-2.106 1.03-.688.577-.842 1.115-.773 1.48z" fill="#B3E8FF" stroke="#B3E8FF" stroke-width="2.158"/><path d="M150.399 85.396l6.07 16.164m0 0c-.755 7.2-6.058 11.496-14.016 8.721m14.016-8.721c7.639 4.971 12.758 3.278 17.302-3.04" stroke="#B3E8FF" stroke-width="4.252" stroke-linecap="round"/><path d="M162.458 80.698c.751 2 .481 5.18-.942 8.269-1.407 3.055-3.846 5.802-7.142 7.04-3.243 1.217-6.476.519-9.165-1.093-2.714-1.627-4.745-4.113-5.536-6.219-.386-1.027-.443-1.87-.279-2.594.163-.726.57-1.429 1.277-2.135 1.453-1.452 4.016-2.765 7.633-4.124 3.576-1.342 6.857-2.094 9.4-1.982 2.501.11 4.072 1.022 4.754 2.838z" fill="#B3E8FF" stroke="#B3E8FF" stroke-width="2.158"/><circle cx="113.96" cy="92.741" r="6.475" transform="rotate(-20.583 113.96 92.741)" fill="#B3E8FF" stroke="#B3E8FF" stroke-width="2.158"/><circle cx="174.572" cy="69.977" r="6.475" transform="rotate(-20.583 174.572 69.977)" fill="#B3E8FF" stroke="#B3E8FF" stroke-width="2.158"/><path d="M112.052 116.649c.165.333.173.916-.3 1.726-.46.79-1.299 1.628-2.434 2.262-1.135.634-2.26.893-3.134.848-.896-.045-1.344-.382-1.509-.715-.164-.333-.172-.916.3-1.725.461-.79 1.3-1.628 2.435-2.262 1.135-.634 2.26-.893 3.134-.849.896.045 1.344.382 1.508.715zM109.256 129.234c.165.333.172.916-.3 1.726-.461.79-1.3 1.628-2.435 2.262-1.135.633-2.26.893-3.134.848-.896-.045-1.343-.382-1.508-.715-.165-.333-.173-.916.3-1.725.461-.79 1.3-1.628 2.434-2.262 1.135-.634 2.261-.893 3.135-.849.895.045 1.343.382 1.508.715zM123.336 121.639c.165.332.172.915-.3 1.725-.461.79-1.3 1.628-2.435 2.262-1.135.634-2.26.893-3.134.849-.896-.046-1.343-.383-1.508-.716-.165-.333-.173-.915.3-1.725.461-.79 1.299-1.628 2.434-2.262 1.135-.634 2.261-.893 3.135-.849.895.046 1.343.383 1.508.716z" fill="#B3E8FF" stroke="#B3E8FF" stroke-width="2.158"/><path d="M29.635 112.338c18.375 62.086 55.615 51.064 101.552 37.468 14.594-4.319 26.75-7.917 36.766-11.208 49.207-16.168 33.21-41.18 14.487-91.742-12.414-33.527-42.578-34.665-103.92-16.51-31.484 9.318-46.063 27.905-49.867 49.967-5.762.648-10.364 3.33-12.144 7.707-2.886 7.098 2.656 16.185 12.56 21.272.174 1.014.363 2.029.566 3.046z" stroke="#B3E8FF" stroke-width="7.441"/></svg>