<svg width="1198" height="228" viewBox="0 0 1198 228" fill="none" xmlns="http://www.w3.org/2000/svg">
<path d="M55.2424 187.267C46.7955 187.267 39.1934 186.253 32.4359 184.226C25.8474 182.199 20.1035 179.327 15.2043 175.61C10.4741 171.893 6.75748 167.501 4.05449 162.433C1.52043 157.196 0.168937 151.368 0 144.948H22.8065C23.3133 150.692 24.9182 155.422 27.6212 159.139C30.4931 162.855 34.3787 165.643 39.2778 167.501C44.177 169.19 49.6675 170.035 55.7492 170.035C65.5475 170.035 72.9808 168.177 78.0489 164.46C83.2859 160.744 85.9045 155.591 85.9045 149.002C85.9045 143.934 84.7219 140.049 82.3568 137.346C80.1606 134.474 76.6974 132.278 71.9672 130.757C67.2369 129.068 61.0707 127.716 53.4686 126.703C42.3187 125.013 33.0272 122.817 25.594 120.114C18.3297 117.242 12.8392 113.357 9.1226 108.458C5.40598 103.389 3.54768 96.7164 3.54768 88.4385C3.54768 80.4985 5.65939 73.5721 9.88281 67.6593C14.2752 61.7465 20.3569 57.1007 28.128 53.722C35.8991 50.3432 45.0217 48.6539 55.4958 48.6539C65.801 48.6539 74.7546 50.3432 82.3568 53.722C89.9589 57.1007 95.8717 61.8309 100.095 67.9127C104.319 73.8255 106.599 80.9208 106.937 89.1987H84.1306C83.7927 83.6238 82.3568 79.147 79.8227 75.7682C77.4576 72.3895 74.1633 69.9399 69.9399 68.4195C65.7165 66.899 60.7328 66.1388 54.989 66.1388C46.2043 66.1388 39.2778 67.9971 34.2097 71.7138C29.3106 75.2614 26.861 80.0761 26.861 86.1579C26.861 90.7192 28.0435 94.4358 30.4087 97.3077C32.7738 100.011 36.5749 102.207 41.8119 103.896C47.049 105.417 53.6375 106.768 61.5775 107.951C71.7137 109.302 80.3295 111.329 87.4249 114.032C94.6892 116.735 100.18 120.705 103.896 125.943C107.613 131.18 109.471 138.19 109.471 146.975C109.471 155.591 107.191 162.94 102.629 169.021C98.2369 174.934 91.9017 179.496 83.6238 182.705C75.5148 185.746 66.0544 187.267 55.2424 187.267Z" fill="#242424"/>
<path d="M133.721 227.051V51.1879H155.767L156.527 78.0489H158.048C161.089 69.4331 166.664 62.5067 174.773 57.2696C182.882 51.8637 192.595 49.1607 203.914 49.1607C212.192 49.1607 219.71 50.7656 226.467 53.9754C233.225 57.0162 239.053 61.4931 243.952 67.4059C248.851 73.3186 252.568 80.5829 255.102 89.1987C257.805 97.6456 259.157 107.275 259.157 118.087C259.157 132.447 256.791 144.863 252.061 155.338C247.5 165.643 241.08 173.498 232.802 178.904C224.525 184.31 214.895 187.013 203.914 187.013C196.481 187.013 189.639 185.831 183.388 183.466C177.138 181.1 171.816 177.722 167.424 173.329C163.2 168.937 160.075 163.869 158.048 158.125H157.034V227.051H133.721ZM195.805 168.008C204.083 168.008 211.094 166.065 216.838 162.18C222.751 158.125 227.312 152.381 230.522 144.948C233.732 137.346 235.336 128.392 235.336 118.087C235.336 107.613 233.732 98.7437 230.522 91.4794C227.481 84.0461 223.004 78.3868 217.091 74.5012C211.347 70.4467 204.421 68.4195 196.312 68.4195C187.865 68.4195 180.685 70.3623 174.773 74.2478C169.029 77.9644 164.636 83.0325 161.595 89.4521C158.555 95.8717 157.034 102.798 157.034 110.231V125.943C157.034 133.545 158.555 140.556 161.595 146.975C164.636 153.226 169.029 158.294 174.773 162.18C180.685 166.065 187.696 168.008 195.805 168.008Z" fill="#242424"/>
<path d="M336.41 187.013C328.301 187.013 320.783 185.408 313.857 182.199C307.099 178.989 301.271 174.427 296.372 168.515C291.472 162.602 287.671 155.422 284.968 146.975C282.434 138.359 281.167 128.646 281.167 117.834C281.167 103.474 283.448 91.1415 288.009 80.8363C292.739 70.5312 299.243 62.6756 307.521 57.2696C315.799 51.6947 325.429 48.9073 336.41 48.9073C344.012 48.9073 350.854 50.0898 356.935 52.4549C363.186 54.82 368.423 58.1988 372.647 62.5912C377.039 66.8146 380.249 71.8827 382.276 77.7955H383.796L384.557 51.1879H406.603V184.733H384.557L383.796 157.872H382.276C379.235 166.656 373.66 173.752 365.551 179.158C357.442 184.395 347.728 187.013 336.41 187.013ZM344.265 167.501C352.712 167.501 359.807 165.558 365.551 161.673C371.464 157.787 375.856 152.719 378.728 146.468C381.769 140.049 383.29 133.122 383.29 125.689V109.978C383.29 102.376 381.769 95.4494 378.728 89.1987C375.687 82.7791 371.211 77.711 365.298 73.9944C359.554 70.1088 352.628 68.1661 344.519 68.1661C336.241 68.1661 329.145 70.1933 323.233 74.2478C317.489 78.1334 313.012 83.7927 309.802 91.226C306.592 98.4903 304.987 107.359 304.987 117.834C304.987 128.139 306.508 137.092 309.549 144.695C312.758 152.128 317.235 157.787 322.979 161.673C328.892 165.558 335.987 167.501 344.265 167.501Z" fill="#242424"/>
<path d="M439.104 184.733V51.1879H459.883L461.15 75.5148H462.164C465.036 66.899 470.02 60.395 477.115 56.0026C484.379 51.6102 492.488 49.4141 501.442 49.4141C502.962 49.4141 504.314 49.4985 505.496 49.6675C506.848 49.6675 508.115 49.7519 509.297 49.9209V71.9672C508.284 71.7982 507.017 71.7138 505.496 71.7138C504.145 71.5448 502.709 71.4603 501.189 71.4603C493.417 71.4603 486.66 72.8963 480.916 75.7682C475.341 78.4712 470.949 82.4412 467.739 87.6783C464.529 92.9153 462.671 99.2505 462.164 106.684V184.733H439.104Z" fill="#242424"/>
<path d="M528.321 184.733V0H551.887V117.073L563.544 104.403L615.999 51.1879H645.141L593.192 103.136L647.168 184.733H619.8L585.083 132.278L576.974 118.847L551.887 143.174V184.733H528.321Z" fill="#242424"/>
<path d="M639.445 227.051V209.566H650.595C656.001 209.566 659.802 208.299 661.998 205.765C664.363 203.231 665.546 198.839 665.546 192.588V51.1879H688.859V193.855C688.859 200.782 687.761 206.694 685.565 211.594C683.369 216.662 679.99 220.463 675.428 222.997C670.867 225.7 664.87 227.051 657.437 227.051H639.445ZM677.202 29.6484C673.148 29.6484 669.769 28.5503 667.066 26.3542C664.532 23.989 663.265 20.9482 663.265 17.2316C663.265 13.346 664.532 10.3052 667.066 8.10898C669.769 5.74386 673.148 4.5613 677.202 4.5613C681.257 4.5613 684.551 5.74386 687.085 8.10898C689.788 10.3052 691.14 13.346 691.14 17.2316C691.14 20.9482 689.788 23.989 687.085 26.3542C684.551 28.5503 681.257 29.6484 677.202 29.6484Z" fill="#242424"/>
<path d="M769.248 187.013C761.139 187.013 753.621 185.408 746.695 182.199C739.937 178.989 734.109 174.427 729.21 168.515C724.311 162.602 720.51 155.422 717.807 146.975C715.273 138.359 714.006 128.646 714.006 117.834C714.006 103.474 716.286 91.1415 720.847 80.8363C725.578 70.5312 732.082 62.6756 740.36 57.2696C748.638 51.6947 758.267 48.9073 769.248 48.9073C776.85 48.9073 783.692 50.0898 789.774 52.4549C796.024 54.82 801.261 58.1988 805.485 62.5912C809.877 66.8146 813.087 71.8827 815.114 77.7955H816.635L817.395 51.1879H839.441V184.733H817.395L816.635 157.872H815.114C812.073 166.656 806.499 173.752 798.39 179.158C790.281 184.395 780.567 187.013 769.248 187.013ZM777.103 167.501C785.55 167.501 792.646 165.558 798.39 161.673C804.302 157.787 808.695 152.719 811.567 146.468C814.608 140.049 816.128 133.122 816.128 125.689V109.978C816.128 102.376 814.608 95.4494 811.567 89.1987C808.526 82.7791 804.049 77.711 798.136 73.9944C792.392 70.1088 785.466 68.1661 777.357 68.1661C769.079 68.1661 761.984 70.1933 756.071 74.2478C750.327 78.1334 745.85 83.7927 742.64 91.226C739.431 98.4903 737.826 107.359 737.826 117.834C737.826 128.139 739.346 137.092 742.387 144.695C745.597 152.128 750.074 157.787 755.817 161.673C761.73 165.558 768.826 167.501 777.103 167.501Z" fill="#242424"/>
<path d="M1190.85 103.817C1185.43 113.311 1150.17 186.545 1097.28 185.189C1024.72 183.155 1057.95 67.1999 1052.52 67.1999C1047.1 66.5218 1025.4 178.408 991.493 177.73C955.554 176.374 986.069 84.8305 968.438 84.1524C959.623 83.4743 933.855 188.58 902.662 185.867C866.045 182.477 899.272 81.44 883.676 81.44C881.641 81.44 878.929 86.1867 870.114 102.461C865.367 107.886 854.517 97.0363 860.62 84.8305C864.689 77.3714 868.758 70.5904 875.539 59.7408C883.676 46.8569 897.916 46.8569 906.053 69.9123C913.512 91.6115 900.628 149.25 907.409 151.962C918.259 156.709 952.164 66.5218 956.91 57.0284C967.082 38.7198 995.562 42.1103 996.24 72.6247C996.24 83.4743 990.137 147.894 996.918 149.25C1003.02 150.606 1032.86 64.4875 1038.96 49.5694C1045.06 33.9731 1063.37 36.6855 1074.9 49.5694C1083.71 59.0627 1047.78 158.065 1101.35 161.456C1140.68 164.168 1173.9 100.427 1189.5 71.9466C1195.6 61.097 1204.42 76.0152 1190.85 103.817Z" fill="#242424"/>
</svg>
