<svg width="431" height="369" viewBox="0 0 431 369" fill="none" xmlns="http://www.w3.org/2000/svg">
<path d="M57.291 235.352C98.3836 363.48 175.236 338.833 270.039 308.428C300.158 298.768 325.244 290.723 345.899 283.415C447.374 247.512 412.964 196.3 371.69 92.1277C344.322 23.0546 281.599 22.106 155.004 62.7071C90.0316 83.5447 60.6147 122.846 53.7477 168.862C41.8054 170.478 32.3695 176.267 28.878 185.444C23.2154 200.327 35.1569 218.945 55.9722 229.05C56.3814 231.148 56.8214 233.249 57.291 235.352Z" stroke="#BEC1C8" stroke-width="15"/>
<ellipse cx="11.0228" cy="6.71092" rx="11.0228" ry="6.71092" transform="matrix(-0.97329 0.229578 0.277681 0.960673 404.601 180.331)" fill="#BEC1C8"/>
<path d="M402.159 173.486C396.149 174.457 390.651 172.305 389.879 168.68C389.107 165.055 393.353 161.33 399.363 160.359C401.909 167.14 403.168 171.717 403.488 173.221C403.056 173.324 402.613 173.413 402.159 173.486Z" fill="#BEC1C8"/>
<path d="M306.926 173.707L320.296 207.005M320.296 207.005C319.067 221.999 308.252 231.175 291.587 225.783M320.296 207.005C336.402 216.973 346.957 213.216 356.101 199.878" stroke="#BEC1C8" stroke-width="15" stroke-linecap="round"/>
<path d="M333.848 162.548C337.758 172.284 331.469 191.65 316.527 197.65C301.585 203.65 286.631 191.641 282.722 181.905C278.813 172.17 286.544 166.19 301.485 160.19C316.427 154.191 329.939 152.812 333.848 162.548Z" fill="#BEC1C8"/>
<circle cx="231.568" cy="190.677" r="15.6982" transform="rotate(-21.8776 231.568 190.677)" fill="#BEC1C8"/>
<circle cx="356.426" cy="140.534" r="15.6982" transform="rotate(-21.8776 356.426 140.534)" fill="#BEC1C8"/>
<ellipse cx="11.0228" cy="6.71092" rx="11.0228" ry="6.71092" transform="matrix(0.86178 -0.507283 0.463813 0.885933 208.555 244.539)" fill="#BEC1C8"/>
<ellipse cx="11.0228" cy="6.71092" rx="11.0228" ry="6.71092" transform="matrix(0.86178 -0.507283 0.463813 0.885933 203.332 270.82)" fill="#BEC1C8"/>
<ellipse cx="11.0228" cy="6.71092" rx="11.0228" ry="6.71092" transform="matrix(0.86178 -0.507283 0.463813 0.885933 232.227 254.379)" fill="#BEC1C8"/>
</svg>
