<svg width="287" height="246" viewBox="0 0 287 246" fill="none" xmlns="http://www.w3.org/2000/svg">
<path d="M38.0051 156.447C65.4001 241.865 116.635 225.434 179.837 205.164C199.916 198.724 216.641 193.36 230.41 188.489C298.061 164.553 275.12 130.412 247.604 60.9637C229.359 14.915 187.544 14.2826 103.147 41.35C59.8321 55.2417 40.2208 81.4427 35.6429 112.12C27.6813 113.197 21.3907 117.057 19.063 123.175C15.288 133.096 23.249 145.509 37.1258 152.245C37.3987 153.644 37.692 155.044 38.0051 156.447Z" stroke="#BEC1C8" stroke-width="10"/>
<ellipse cx="7.34853" cy="4.47395" rx="7.34853" ry="4.47395" transform="matrix(-0.97329 0.229578 0.277681 0.960673 269.545 119.766)" fill="#BEC1C8"/>
<path d="M267.917 115.202C263.911 115.85 260.245 114.415 259.731 111.999C259.216 109.582 262.046 107.098 266.053 106.451C267.75 110.971 268.59 114.023 268.803 115.025C268.515 115.094 268.219 115.154 267.917 115.202Z" fill="#BEC1C8"/>
<path d="M204.428 115.35L213.342 137.548M213.342 137.548C212.522 147.544 205.312 153.661 194.202 150.067M213.342 137.548C224.079 144.193 231.116 141.689 237.212 132.796" stroke="#BEC1C8" stroke-width="10" stroke-linecap="round"/>
<path d="M222.377 107.91C224.983 114.401 220.79 127.312 210.829 131.312C200.868 135.311 190.899 127.306 188.292 120.815C185.686 114.325 190.84 110.338 200.801 106.338C210.762 102.339 219.77 101.42 222.377 107.91Z" fill="#BEC1C8"/>
<circle cx="154.19" cy="126.663" r="10.4655" transform="rotate(-21.8776 154.19 126.663)" fill="#BEC1C8"/>
<circle cx="237.428" cy="93.234" r="10.4655" transform="rotate(-21.8776 237.428 93.234)" fill="#BEC1C8"/>
<ellipse cx="7.34853" cy="4.47395" rx="7.34853" ry="4.47395" transform="matrix(0.86178 -0.507283 0.463813 0.885933 138.848 162.571)" fill="#BEC1C8"/>
<ellipse cx="7.34853" cy="4.47395" rx="7.34853" ry="4.47395" transform="matrix(0.86178 -0.507283 0.463813 0.885933 135.365 180.092)" fill="#BEC1C8"/>
<ellipse cx="7.34853" cy="4.47395" rx="7.34853" ry="4.47395" transform="matrix(0.86178 -0.507283 0.463813 0.885933 154.629 169.131)" fill="#BEC1C8"/>
</svg>
