<svg width="295" height="407" fill="none" xmlns="http://www.w3.org/2000/svg"><path d="M-117.956 259.519c45.444 141.696 130.435 114.438 235.277 80.814 33.308-10.683 61.052-19.58 83.894-27.662 112.22-39.705 74.166-96.341 28.521-211.544-30.265-76.387-99.63-77.436-239.632-32.536C-81.748 91.635-114.28 135.1-121.874 185.988c-13.207 1.787-23.642 8.189-27.504 18.337-6.262 16.459 6.944 37.049 29.964 48.224.452 2.32.939 4.643 1.458 6.97z" stroke="#BEC1C8" stroke-width="16.588"/><ellipse cx="12.19" cy="7.422" rx="12.19" ry="7.422" transform="matrix(-.97329 .22958 .27768 .96067 266.133 198.672)" fill="#BEC1C8"/><path d="M263.433 191.102c-6.646 1.074-12.727-1.306-13.581-5.314-.854-4.009 3.842-8.129 10.488-9.203 2.816 7.499 4.208 12.561 4.562 14.224-.478.114-.968.212-1.469.293z" fill="#BEC1C8"/><path d="M158.114 191.345l14.787 36.823m0 0c-1.36 16.582-13.32 26.73-31.75 20.767m31.75-20.767c17.811 11.024 29.484 6.869 39.596-7.881" stroke="#BEC1C8" stroke-width="16.588" stroke-linecap="round"/><path d="M187.888 179.006c4.323 10.767-2.632 32.184-19.156 38.819-16.523 6.635-33.061-6.645-37.384-17.412-4.324-10.766 4.226-17.379 20.75-24.014 16.524-6.635 31.467-8.16 35.79 2.607z" fill="#BEC1C8"/><circle cx="74.777" cy="210.116" r="17.361" transform="rotate(-21.878 74.777 210.116)" fill="#BEC1C8"/><circle cx="212.856" cy="154.661" r="17.361" transform="rotate(-21.878 212.856 154.661)" fill="#BEC1C8"/><ellipse cx="12.19" cy="7.422" rx="12.19" ry="7.422" transform="matrix(.86178 -.50728 .46381 .88593 49.327 269.678)" fill="#BEC1C8"/><ellipse cx="12.19" cy="7.422" rx="12.19" ry="7.422" transform="matrix(.86178 -.50728 .46381 .88593 43.55 298.744)" fill="#BEC1C8"/><ellipse cx="12.19" cy="7.422" rx="12.19" ry="7.422" transform="matrix(.86178 -.50728 .46381 .88593 75.505 280.562)" fill="#BEC1C8"/></svg>