<svg width="287" height="246" viewBox="0 0 287 246" fill="none" xmlns="http://www.w3.org/2000/svg">
<path d="M223.07 91.0531C210.846 99.8225 201.46 109.57 194.364 119.826C181.615 138.252 176.469 158.01 175.238 176.037C174.558 185.994 175.071 195.448 176.163 203.91C170.994 196.844 164.676 189.43 157.108 182.499C143.657 170.181 126.184 159.327 104.17 154.761C92.5296 152.346 79.7243 151.712 65.6976 153.482C77.0268 145.079 85.8248 135.825 92.5577 126.114C105.3 107.735 110.438 88.0389 111.658 70.0712C112.286 60.8304 111.878 52.0256 110.933 44.0504C119.635 56.0876 129.299 65.366 139.469 72.4119C157.953 85.218 177.799 90.4401 195.917 91.7479C205.585 92.4457 214.784 92.0306 223.07 91.0531Z" stroke="#BEC1C8" stroke-width="10" stroke-miterlimit="1"/>
</svg>
