<svg width="24" height="24" viewBox="0 0 24 24" fill="none" xmlns="http://www.w3.org/2000/svg">
<path d="M9.52997 16.1221C9.26836 15.4771 8.79065 14.9432 8.17865 14.6118C7.56665 14.2803 6.85845 14.172 6.17535 14.3053C5.49225 14.4386 4.87675 14.8053 4.43428 15.3425C3.99181 15.8797 3.7499 16.5541 3.74998 17.2501C3.74998 17.5582 3.6867 17.863 3.56406 18.1457C3.44142 18.4283 3.26203 18.6828 3.03702 18.8932C2.81201 19.1037 2.54616 19.2657 2.25597 19.3693C1.96577 19.4728 1.6574 19.5156 1.34998 19.4951C1.84442 20.354 2.60861 21.0257 3.5239 21.4059C4.43919 21.786 5.45438 21.8534 6.41187 21.5975C7.36937 21.3416 8.21559 20.7767 8.81919 19.9906C9.42278 19.2045 9.74998 18.2412 9.74998 17.2501C9.74998 16.8511 9.67197 16.4701 9.52997 16.1221ZM9.52997 16.1221C11.4263 14.9239 15.0328 12.8726 17.681 9.85407C19.4806 7.80279 21.557 4.04007 21.557 4.04007C21.7055 3.81864 21.7725 3.55252 21.7465 3.28717C21.7206 3.02182 21.6034 2.77369 21.4149 2.58517C21.2264 2.39664 20.9782 2.27941 20.7129 2.2535C20.4475 2.22758 20.1814 2.29459 19.96 2.44307C19.96 2.44307 16.1973 4.52015 14.146 6.32007C11.1257 8.97019 9.07354 12.581 7.87498 14.4771" stroke="black" stroke-width="1.5" stroke-linecap="round" stroke-linejoin="round"/>
<path d="M9.97656 11.2012C11.219 11.7567 12.213 12.7507 12.7686 13.9932" stroke="black" stroke-width="1.5" stroke-linecap="round" stroke-linejoin="round"/>
</svg>