<svg width="16" height="18" fill="none" xmlns="http://www.w3.org/2000/svg"><mask id="prefix__a" fill="#fff"><path d="M6.644 1.694a2 2 0 012.758-.631l5.11 3.206a2 2 0 01.632 2.757l-4.29 6.839-2.355 3.753L0 12.286l2.317-3.693 4.327-6.899z"/></mask><path d="M1.923 9.231l8.537 5.272.788-1.276L2.71 7.955l-.788 1.276zm6.576 8.387l-.797 1.27 1.27.798.798-1.27-1.27-.798zM0 12.286l-1.27-.797-.798 1.271 1.27.797.798-1.27zm8.604-9.953l5.111 3.206L15.31 3 10.2-.209 8.604 2.333zm.692 14.014L.797 11.016l-1.594 2.541 8.5 5.332 1.593-2.542zm-8.025-3.264L3.588 9.39 1.046 7.796l-2.317 3.693 2.542 1.595zM3.588 9.39l4.327-6.899L5.374.897 1.046 7.796 3.588 9.39zM13.873 6.23l-4.29 6.839 2.541 1.594 4.29-6.84-2.54-1.593zm-4.29 6.839L7.229 16.82l2.54 1.594 2.355-3.753-2.541-1.594zm4.132-7.529a.5.5 0 01.158.69l2.541 1.594a3.5 3.5 0 00-1.105-4.825L13.715 5.54zM10.2-.208A3.5 3.5 0 005.374.897l2.541 1.594a.5.5 0 01.69-.158l1.594-2.54z" fill="#2B4061" mask="url(#prefix__a)"/></svg>