<?xml version="1.0"?>
<svg width="30" height="30" xmlns="http://www.w3.org/2000/svg" xmlns:svg="http://www.w3.org/2000/svg">
 <g class="layer">
  <title>Layer 1</title>
  <g id="Canvas Icon">
   <rect fill="#F2F2F2" height="30" id="svg_1" transform="matrix(1 0 0 1 0 0)" width="30"/>
   <path d="m15.35,5.65c-0.19,-0.2 -0.51,-0.2 -0.7,0l-3.19,3.18c-0.19,0.19 -0.19,0.51 0,0.71c0.2,0.19 0.52,0.19 0.71,0l2.83,-2.83l2.83,2.83c0.19,0.19 0.51,0.19 0.71,0c0.19,-0.2 0.19,-0.52 0,-0.71l-3.19,-3.18zm-0.7,18.7c0.19,0.2 0.51,0.2 0.7,0l3.19,-3.18c0.19,-0.19 0.19,-0.51 0,-0.71c-0.2,-0.19 -0.52,-0.19 -0.71,0l-2.83,2.83l-2.83,-2.83c-0.19,-0.19 -0.51,-0.19 -0.71,0c-0.19,0.2 -0.19,0.52 0,0.71l3.19,3.18zm-9,-9.7c-0.2,0.19 -0.2,0.51 0,0.7l3.18,3.19c0.19,0.19 0.51,0.19 0.71,0c0.19,-0.2 0.19,-0.52 0,-0.71l-2.83,-2.83l2.83,-2.83c0.19,-0.19 0.19,-0.51 0,-0.71c-0.2,-0.19 -0.52,-0.19 -0.71,0l-3.18,3.19zm18.7,0.7c0.2,-0.19 0.2,-0.51 0,-0.7l-3.18,-3.19c-0.19,-0.19 -0.51,-0.19 -0.71,0c-0.19,0.2 -0.19,0.52 0,0.71l2.83,2.83l-2.83,2.83c-0.19,0.19 -0.19,0.51 0,0.71c0.2,0.19 0.52,0.19 0.71,0l3.18,-3.19zm-9.85,-9.35l0,9l1,0l0,-9l-1,0zm0,9l0,9l1,0l0,-9l-1,0zm0.5,-0.5l-9,0l0,1l9,0l0,-1zm0,1l9,0l0,-1l-9,0l0,1z" fill="black" id="Vector"/>
  </g>
 </g>
</svg>