<svg width="30" height="30" viewBox="0 0 30 30" fill="none" xmlns="http://www.w3.org/2000/svg">
    <path
        d="M15.3537 5.64659C15.1584 5.45133 14.8418 5.45133 14.6466 5.64659L11.4646 8.82857C11.2693 9.02384 11.2693 9.34042 11.4646 9.53568C11.6598 9.73094 11.9764 9.73094 12.1717 9.53568L15.0001 6.70725L17.8285 9.53568C18.0238 9.73094 18.3404 9.73094 18.5356 9.53568C18.7309 9.34042 18.7309 9.02384 18.5356 8.82857L15.3537 5.64659ZM14.6466 24.3537C14.8418 24.549 15.1584 24.549 15.3537 24.3537L18.5356 21.1717C18.7309 20.9765 18.7309 20.6599 18.5356 20.4646C18.3404 20.2693 18.0238 20.2693 17.8285 20.4646L15.0001 23.293L12.1717 20.4646C11.9764 20.2693 11.6598 20.2693 11.4646 20.4646C11.2693 20.6599 11.2693 20.9765 11.4646 21.1717L14.6466 24.3537ZM5.64655 14.6466C5.45129 14.8419 5.45129 15.1584 5.64655 15.3537L8.82853 18.5357C9.0238 18.7309 9.34038 18.7309 9.53564 18.5357C9.7309 18.3404 9.7309 18.0238 9.53564 17.8286L6.70721 15.0001L9.53564 12.1717C9.7309 11.9765 9.7309 11.6599 9.53564 11.4646C9.34038 11.2694 9.0238 11.2694 8.82853 11.4646L5.64655 14.6466ZM24.3537 15.3537C24.5489 15.1584 24.5489 14.8419 24.3537 14.6466L21.1717 11.4646C20.9764 11.2694 20.6598 11.2694 20.4646 11.4646C20.2693 11.6599 20.2693 11.9765 20.4646 12.1717L23.293 15.0001L20.4646 17.8286C20.2693 18.0238 20.2693 18.3404 20.4646 18.5357C20.6598 18.7309 20.9764 18.7309 21.1717 18.5357L24.3537 15.3537ZM25.5044 5.29759C25.7006 5.10324 25.7021 4.78666 25.5078 4.59049C25.3134 4.39431 24.9968 4.39283 24.8007 4.58718L25.5044 5.29759ZM4.49576 24.7027C4.29959 24.897 4.29811 25.2136 4.49245 25.4098C4.6868 25.606 5.00337 25.6075 5.19955 25.4131L4.49576 24.7027ZM14.5001 6.00015V15.0001H15.5001V6.00015H14.5001ZM14.5001 15.0001V24.0001H15.5001V15.0001H14.5001ZM15.0001 14.5001H6.00011V15.5001H15.0001V14.5001ZM15.0001 15.5001H24.0001V14.5001H15.0001V15.5001ZM24.8007 4.58718L4.49576 24.7027L5.19955 25.4131L25.5044 5.29759L24.8007 4.58718Z"
        fill="black" />
</svg>