<svg width="1198" height="228" fill="none" xmlns="http://www.w3.org/2000/svg"><path d="M55.242 187.267c-8.447 0-16.049-1.014-22.806-3.041-6.589-2.027-12.332-4.899-17.232-8.616-4.73-3.717-8.447-8.109-11.15-13.177C1.52 157.196.17 151.368 0 144.948h22.806c.507 5.744 2.112 10.474 4.815 14.191 2.872 3.716 6.758 6.504 11.657 8.362 4.899 1.689 10.39 2.534 16.471 2.534 9.798 0 17.232-1.858 22.3-5.575 5.237-3.716 7.855-8.869 7.855-15.458 0-5.068-1.182-8.953-3.547-11.656-2.196-2.872-5.66-5.068-10.39-6.589-4.73-1.689-10.896-3.041-18.498-4.054-11.15-1.69-20.442-3.886-27.875-6.589-7.264-2.872-12.755-6.757-16.471-11.656-3.717-5.069-5.575-11.742-5.575-20.02 0-7.94 2.111-14.866 6.335-20.779 4.392-5.913 10.474-10.558 18.245-13.937 7.771-3.379 16.894-5.068 27.368-5.068 10.305 0 19.259 1.69 26.86 5.068 7.603 3.379 13.516 8.109 17.739 14.19 4.224 5.913 6.504 13.009 6.842 21.287H84.131c-.338-5.575-1.774-10.052-4.308-13.43-2.365-3.38-5.66-5.83-9.883-7.35-4.224-1.52-9.207-2.28-14.951-2.28-8.785 0-15.711 1.858-20.78 5.575-4.898 3.547-7.348 8.362-7.348 14.444 0 4.561 1.183 8.278 3.548 11.15 2.365 2.703 6.166 4.899 11.403 6.588 5.237 1.521 11.826 2.872 19.766 4.055 10.136 1.351 18.751 3.378 25.847 6.081 7.264 2.703 12.755 6.673 16.471 11.911 3.717 5.237 5.575 12.247 5.575 21.032 0 8.616-2.28 15.965-6.842 22.046-4.392 5.913-10.727 10.475-19.005 13.684-8.11 3.041-17.57 4.562-28.382 4.562zM133.721 227.051V51.188h22.046l.76 26.86h1.521c3.041-8.615 8.616-15.541 16.725-20.778 8.109-5.406 17.822-8.11 29.141-8.11 8.278 0 15.796 1.606 22.553 4.815 6.758 3.041 12.586 7.518 17.485 13.43 4.899 5.914 8.616 13.178 11.15 21.794 2.703 8.447 4.055 18.076 4.055 28.888 0 14.36-2.366 26.776-7.096 37.251-4.561 10.305-10.981 18.16-19.259 23.566-8.277 5.406-17.907 8.109-28.888 8.109-7.433 0-14.275-1.182-20.526-3.547-6.25-2.366-11.572-5.744-15.964-10.137a41.713 41.713 0 01-9.376-15.204h-1.014v68.926h-23.313zm62.084-59.043c8.278 0 15.289-1.943 21.033-5.828 5.913-4.055 10.474-9.799 13.684-17.232 3.21-7.602 4.814-16.556 4.814-26.861 0-10.474-1.604-19.343-4.814-26.608-3.041-7.433-7.518-13.092-13.431-16.978-5.744-4.054-12.67-6.082-20.779-6.082-8.447 0-15.627 1.943-21.539 5.829-5.744 3.716-10.137 8.784-13.178 15.204-3.04 6.42-4.561 13.346-4.561 20.779v15.712c0 7.602 1.521 14.613 4.561 21.032 3.041 6.251 7.434 11.319 13.178 15.205 5.912 3.885 12.923 5.828 21.032 5.828zM336.41 187.013c-8.109 0-15.627-1.605-22.553-4.814-6.758-3.21-12.586-7.772-17.485-13.684-4.9-5.913-8.701-13.093-11.404-21.54-2.534-8.616-3.801-18.329-3.801-29.141 0-14.36 2.281-26.693 6.842-36.998 4.73-10.305 11.234-18.16 19.512-23.566 8.278-5.575 17.908-8.363 28.889-8.363 7.602 0 14.444 1.183 20.525 3.548 6.251 2.365 11.488 5.744 15.712 10.136 4.392 4.224 7.602 9.292 9.629 15.205h1.52l.761-26.608h22.046v133.545h-22.046l-.761-26.861h-1.52c-3.041 8.784-8.616 15.88-16.725 21.286-8.109 5.237-17.823 7.855-29.141 7.855zm7.855-19.512c8.447 0 15.542-1.943 21.286-5.828 5.913-3.886 10.305-8.954 13.177-15.205 3.041-6.419 4.562-13.346 4.562-20.779v-15.711c0-7.602-1.521-14.529-4.562-20.78-3.041-6.419-7.517-11.487-13.43-15.204-5.744-3.885-12.67-5.828-20.779-5.828-8.278 0-15.374 2.027-21.286 6.082-5.744 3.885-10.221 9.545-13.431 16.978-3.21 7.264-4.815 16.133-4.815 26.608 0 10.305 1.521 19.258 4.562 26.861 3.209 7.433 7.686 13.092 13.43 16.978 5.913 3.885 13.008 5.828 21.286 5.828zM439.104 184.733V51.188h20.779l1.267 24.327h1.014c2.872-8.616 7.856-15.12 14.951-19.512 7.264-4.393 15.373-6.589 24.327-6.589 1.52 0 2.872.084 4.054.253 1.352 0 2.619.085 3.801.254v22.046c-1.013-.169-2.28-.253-3.801-.253a34.741 34.741 0 00-4.307-.254c-7.772 0-14.529 1.436-20.273 4.308-5.575 2.703-9.967 6.673-13.177 11.91-3.21 5.237-5.068 11.573-5.575 19.006v78.049h-23.06zM528.321 184.733V0h23.566v117.073l11.657-12.67 52.455-53.215h29.142l-51.949 51.948 53.976 81.597H619.8l-34.717-52.455-8.109-13.431-25.087 24.327v41.559h-23.566z" fill="#242424"/><path d="M639.445 227.051v-17.485h11.15c5.406 0 9.207-1.267 11.403-3.801 2.365-2.534 3.548-6.926 3.548-13.177v-141.4h23.313v142.667c0 6.927-1.098 12.839-3.294 17.739-2.196 5.068-5.575 8.869-10.137 11.403-4.561 2.703-10.558 4.054-17.991 4.054h-17.992zm37.757-197.403c-4.054 0-7.433-1.098-10.136-3.294-2.534-2.365-3.801-5.406-3.801-9.122 0-3.886 1.267-6.927 3.801-9.123 2.703-2.365 6.082-3.548 10.136-3.548 4.055 0 7.349 1.183 9.883 3.548 2.703 2.196 4.055 5.237 4.055 9.123 0 3.716-1.352 6.757-4.055 9.122-2.534 2.196-5.828 3.294-9.883 3.294zM769.248 187.013c-8.109 0-15.627-1.605-22.553-4.814-6.758-3.21-12.586-7.772-17.485-13.684-4.899-5.913-8.7-13.093-11.403-21.54-2.534-8.616-3.801-18.329-3.801-29.141 0-14.36 2.28-26.693 6.841-36.998 4.731-10.305 11.235-18.16 19.513-23.566 8.278-5.575 17.907-8.363 28.888-8.363 7.602 0 14.444 1.183 20.526 3.548 6.25 2.365 11.487 5.744 15.711 10.136 4.392 4.224 7.602 9.292 9.629 15.205h1.521l.76-26.608h22.046v133.545h-22.046l-.76-26.861h-1.521c-3.041 8.784-8.615 15.88-16.724 21.286-8.109 5.237-17.823 7.855-29.142 7.855zm7.855-19.512c8.447 0 15.543-1.943 21.287-5.828 5.912-3.886 10.305-8.954 13.177-15.205 3.041-6.419 4.561-13.346 4.561-20.779v-15.711c0-7.602-1.52-14.529-4.561-20.78-3.041-6.419-7.518-11.487-13.431-15.204-5.744-3.885-12.67-5.828-20.779-5.828-8.278 0-15.373 2.027-21.286 6.082-5.744 3.885-10.221 9.545-13.431 16.978-3.209 7.264-4.814 16.133-4.814 26.608 0 10.305 1.52 19.258 4.561 26.861 3.21 7.433 7.687 13.092 13.43 16.978 5.913 3.885 13.009 5.828 21.286 5.828zM1190.85 103.817c-5.42 9.494-40.68 82.728-93.57 81.372-72.56-2.034-39.33-117.99-44.76-117.99-5.42-.677-27.12 111.209-61.027 110.531-35.939-1.356-5.424-92.9-23.055-93.578-8.815-.678-34.583 104.428-65.776 101.715-36.617-3.39-3.39-104.427-18.986-104.427-2.035 0-4.747 4.747-13.562 21.021-4.747 5.425-15.597-5.425-9.494-17.63 4.069-7.46 8.138-14.24 14.919-25.09 8.137-12.884 22.377-12.884 30.514 10.171 7.459 21.7-5.425 79.338 1.356 82.05 10.85 4.747 44.755-85.44 49.501-94.934 10.172-18.308 38.652-14.918 39.33 15.597 0 10.85-6.103 75.269.678 76.625 6.102 1.356 35.942-84.763 42.042-99.68 6.1-15.597 24.41-12.885 35.94 0 8.81 9.493-27.12 108.495 26.45 111.886 39.33 2.712 72.55-61.029 88.15-89.51 6.1-10.849 14.92 4.07 1.35 31.871z" fill="#242424"/></svg>