<svg width="32" height="30" viewBox="0 0 32 30" fill="none" xmlns="http://www.w3.org/2000/svg">
<g clip-path="url(#clip0_4105_13065)">
<mask id="path-1-inside-1_4105_13065" fill="white">
<path fill-rule="evenodd" clip-rule="evenodd" d="M1.13208 13.0654C1.13208 14.7109 1.34072 16.2361 1.75881 17.6299C1.34072 18.8165 1.13208 20.0511 1.13208 21.2965C1.13208 25.7385 7.56024 29.0835 15.504 29.0835C23.4477 29.0835 29.8759 25.7385 29.8759 21.2965C29.8759 20.1528 29.6407 18.9639 29.2226 17.7882C29.6407 16.3524 29.8759 14.7737 29.8759 13.0654C29.8759 12.1751 29.7949 11.3202 29.6399 10.5037C30.5174 9.81979 31.0818 8.75281 31.0818 7.55399C31.0818 5.48978 29.4084 3.81641 27.3443 3.81641C26.9294 3.81641 26.5303 3.884 26.1574 4.00878C23.5289 1.45352 19.731 0 15.504 0C11.3006 0 7.52151 1.43734 4.89466 3.96609C4.56137 3.86866 4.20881 3.81641 3.84403 3.81641C1.77982 3.81641 0.106445 5.48978 0.106445 7.55399C0.106445 8.68047 0.604774 9.69055 1.393 10.3758C1.22175 11.2307 1.13208 12.1285 1.13208 13.0654Z"/>
</mask>
<path d="M1.75881 17.6299L2.81987 18.0037L2.94173 17.6579L2.83637 17.3066L1.75881 17.6299ZM29.2226 17.7882L28.1425 17.4737L28.0408 17.8227L28.1627 18.1652L29.2226 17.7882ZM29.6399 10.5037L28.9483 9.61641L28.4065 10.0387L28.5346 10.7136L29.6399 10.5037ZM26.1574 4.00878L25.3733 4.81545L25.8646 5.29309L26.5144 5.07564L26.1574 4.00878ZM4.89466 3.96609L4.57899 5.0459L5.205 5.22891L5.67488 4.77658L4.89466 3.96609ZM1.393 10.3758L2.49609 10.5968L2.6245 9.95572L2.13111 9.52678L1.393 10.3758ZM2.83637 17.3066C2.4537 16.031 2.25708 14.6161 2.25708 13.0654H0.00708008C0.00708008 14.8057 0.227738 16.4413 0.681243 17.9531L2.83637 17.3066ZM2.25708 21.2965C2.25708 20.1776 2.44438 19.0694 2.81987 18.0037L0.697739 17.256C0.237053 18.5636 0.00708008 19.9246 0.00708008 21.2965H2.25708ZM15.504 27.9585C11.6741 27.9585 8.27239 27.1496 5.86998 25.8639C3.43389 24.5601 2.25708 22.9152 2.25708 21.2965H0.00708008C0.00708008 24.1198 2.04436 26.3684 4.80829 27.8476C7.60589 29.3449 11.3902 30.2085 15.504 30.2085V27.9585ZM28.7509 21.2965C28.7509 22.9152 27.5741 24.5601 25.138 25.8639C22.7356 27.1496 19.3339 27.9585 15.504 27.9585V30.2085C19.6178 30.2085 23.4021 29.3449 26.1997 27.8476C28.9636 26.3684 31.0009 24.1198 31.0009 21.2965H28.7509ZM28.1627 18.1652C28.5463 19.2439 28.7509 20.3045 28.7509 21.2965H31.0009C31.0009 20.001 30.7352 18.6838 30.2826 17.4113L28.1627 18.1652ZM28.7509 13.0654C28.7509 14.6698 28.5302 16.1424 28.1425 17.4737L30.3028 18.1028C30.7513 16.5624 31.0009 14.8777 31.0009 13.0654H28.7509ZM28.5346 10.7136C28.6761 11.4589 28.7509 12.2436 28.7509 13.0654H31.0009C31.0009 12.1067 30.9137 11.1814 30.7452 10.2939L28.5346 10.7136ZM30.3315 11.3911C31.4707 10.5031 32.2068 9.11424 32.2068 7.55399H29.9568C29.9568 8.39138 29.5641 9.13645 28.9483 9.61641L30.3315 11.3911ZM32.2068 7.55399C32.2068 4.86848 30.0298 2.69141 27.3443 2.69141V4.94141C28.7871 4.94141 29.9568 6.11108 29.9568 7.55399H32.2068ZM27.3443 2.69141C26.8065 2.69141 26.2869 2.77913 25.8004 2.94193L26.5144 5.07564C26.7737 4.98887 27.0523 4.94141 27.3443 4.94141V2.69141ZM15.504 1.125C19.4786 1.125 22.982 2.49086 25.3733 4.81545L26.9416 3.20212C24.0758 0.416181 19.9834 -1.125 15.504 -1.125V1.125ZM5.67488 4.77658C8.06504 2.47567 11.5517 1.125 15.504 1.125V-1.125C11.0495 -1.125 6.97797 0.399013 4.11444 3.15561L5.67488 4.77658ZM3.84403 4.94141C4.10087 4.94141 4.34718 4.97813 4.57899 5.0459L5.21033 2.88629C4.77556 2.75919 4.31674 2.69141 3.84403 2.69141V4.94141ZM1.23145 7.55399C1.23145 6.1111 2.40114 4.94141 3.84403 4.94141V2.69141C1.1585 2.69141 -1.01855 4.86846 -1.01855 7.55399H1.23145ZM2.13111 9.52678C1.57819 9.0461 1.23145 8.3412 1.23145 7.55399H-1.01855C-1.01855 9.01974 -0.368645 10.335 0.654902 11.2248L2.13111 9.52678ZM2.25708 13.0654C2.25708 12.2006 2.33983 11.3768 2.49609 10.5968L0.289917 10.1548C0.103673 11.0846 0.00708008 12.0565 0.00708008 13.0654H2.25708Z" fill="#BEC1C8" mask="url(#path-1-inside-1_4105_13065)"/>
<path d="M3.35456 21.0171C2.88332 20.888 2.56118 20.5676 2.63506 20.3016C2.70892 20.0357 3.15082 19.9247 3.62206 20.0539C4.09331 20.183 4.41543 20.5032 4.34157 20.7692C4.26769 21.0352 3.82579 21.1461 3.35456 21.0171Z" fill="black"/>
<path d="M3.35456 21.0171C2.88332 20.888 2.56118 20.5676 2.63506 20.3016C2.70892 20.0357 3.15082 19.9247 3.62206 20.0539C4.09331 20.183 4.41543 20.5032 4.34157 20.7692C4.26769 21.0352 3.82579 21.1461 3.35456 21.0171Z" fill="#BEC1C8"/>
<path d="M6.42878 22.314C5.95754 22.1849 5.6354 21.8646 5.70928 21.5986C5.78314 21.3326 6.22504 21.2216 6.69629 21.3507C7.16753 21.4799 7.48966 21.8001 7.41579 22.0661C7.34191 22.3321 6.90001 22.4431 6.42878 22.314Z" fill="black"/>
<path d="M6.42878 22.314C5.95754 22.1849 5.6354 21.8646 5.70928 21.5986C5.78314 21.3326 6.22504 21.2216 6.69629 21.3507C7.16753 21.4799 7.48966 21.8001 7.41579 22.0661C7.34191 22.3321 6.90001 22.4431 6.42878 22.314Z" fill="#BEC1C8"/>
<path d="M3.82037 23.1763C3.34914 23.0472 3.02701 22.7269 3.10087 22.4609C3.17475 22.1949 3.61665 22.0839 4.08789 22.213C4.55912 22.3422 4.88126 22.6624 4.80739 22.9284C4.73352 23.1944 4.29162 23.3054 3.82037 23.1763Z" fill="black"/>
<path d="M3.82037 23.1763C3.34914 23.0472 3.02701 22.7269 3.10087 22.4609C3.17475 22.1949 3.61665 22.0839 4.08789 22.213C4.55912 22.3422 4.88126 22.6624 4.80739 22.9284C4.73352 23.1944 4.29162 23.3054 3.82037 23.1763Z" fill="#BEC1C8"/>
<path d="M27.6445 21.0171C28.1157 20.888 28.4378 20.5676 28.364 20.3016C28.2901 20.0357 27.8482 19.9247 27.377 20.0539C26.9057 20.183 26.5836 20.5032 26.6575 20.7692C26.7313 21.0352 27.1732 21.1461 27.6445 21.0171Z" fill="black"/>
<path d="M27.6445 21.0171C28.1157 20.888 28.4378 20.5676 28.364 20.3016C28.2901 20.0357 27.8482 19.9247 27.377 20.0539C26.9057 20.183 26.5836 20.5032 26.6575 20.7692C26.7313 21.0352 27.1732 21.1461 27.6445 21.0171Z" fill="#BEC1C8"/>
<path d="M24.5702 22.314C25.0415 22.1849 25.3636 21.8646 25.2897 21.5986C25.2159 21.3326 24.774 21.2216 24.3027 21.3507C23.8315 21.4799 23.5094 21.8001 23.5832 22.0661C23.6571 22.3321 24.099 22.4431 24.5702 22.314Z" fill="black"/>
<path d="M24.5702 22.314C25.0415 22.1849 25.3636 21.8646 25.2897 21.5986C25.2159 21.3326 24.774 21.2216 24.3027 21.3507C23.8315 21.4799 23.5094 21.8001 23.5832 22.0661C23.6571 22.3321 24.099 22.4431 24.5702 22.314Z" fill="#BEC1C8"/>
<path d="M27.1786 23.1763C27.6499 23.0472 27.972 22.7269 27.8981 22.4609C27.8243 22.1949 27.3824 22.0839 26.9111 22.213C26.4399 22.3422 26.1178 22.6624 26.1916 22.9284C26.2655 23.1944 26.7074 23.3054 27.1786 23.1763Z" fill="black"/>
<path d="M27.1786 23.1763C27.6499 23.0472 27.972 22.7269 27.8981 22.4609C27.8243 22.1949 27.3824 22.0839 26.9111 22.213C26.4399 22.3422 26.1178 22.6624 26.1916 22.9284C26.2655 23.1944 26.7074 23.3054 27.1786 23.1763Z" fill="#BEC1C8"/>
<path fill-rule="evenodd" clip-rule="evenodd" d="M4.02904 11.7812C4.00936 11.9606 3.99951 12.1429 3.99951 12.3281C3.99951 12.9745 4.12682 13.6145 4.37417 14.2116C4.62151 14.8088 4.98406 15.3514 5.4411 15.8084C5.89813 16.2655 6.44072 16.628 7.03787 16.8753C7.63502 17.1227 8.27504 17.25 8.92139 17.25C9.56774 17.25 10.2078 17.1227 10.8049 16.8753C11.4021 16.628 11.9446 16.2655 12.4017 15.8084C12.8587 15.3514 13.2213 14.8088 13.4686 14.2116C13.716 13.6145 13.8433 12.9745 13.8433 12.3281C13.8433 12.1429 13.8331 11.9606 13.8126 11.7812H13.2816C13.2925 11.8709 13.2976 11.9621 13.2969 12.0547C13.2969 12.7074 13.0376 13.3333 12.5761 13.7948C12.1146 14.2563 11.4886 14.5156 10.8359 14.5156C10.1841 14.5127 9.55986 14.2525 9.09897 13.7917C8.63808 13.3308 8.37788 12.7065 8.375 12.0547C8.375 11.9621 8.3801 11.8709 8.39031 11.7812H4.02904ZM17.3103 11.7812C17.2906 11.9606 17.2808 12.1429 17.2808 12.3281C17.2808 12.9745 17.4092 13.6145 17.6565 14.2116C17.9039 14.8088 18.2664 15.3514 18.7234 15.8084C19.1805 16.2655 19.7231 16.628 20.3202 16.8753C20.9174 17.1227 21.5574 17.25 22.2037 17.25C22.8501 17.25 23.4901 17.1227 24.0873 16.8753C24.6844 16.628 25.227 16.2655 25.684 15.8084C26.1411 15.3514 26.5036 14.8088 26.751 14.2116C26.9983 13.6145 27.1256 12.9745 27.1256 12.3281C27.1256 12.1429 27.1154 11.9606 27.095 11.7812H26.5628C26.5737 11.8709 26.5789 11.9621 26.5781 12.0547C26.5781 12.7074 26.3188 13.3333 25.8573 13.7948C25.3958 14.2563 24.7699 14.5156 24.1172 14.5156C23.4654 14.5127 22.8411 14.2525 22.3802 13.7917C21.9193 13.3308 21.6591 12.7065 21.6562 12.0547C21.6562 11.9621 21.6614 11.8709 21.6716 11.7812H17.3103Z" fill="#BEC1C8"/>
<path d="M6.26379 7.54938C5.6141 8.16516 5.22254 8.90563 5.06504 9.37594C5.04444 9.44656 5.00981 9.5123 4.96321 9.56922C4.91661 9.62615 4.85901 9.67308 4.79385 9.70722C4.72869 9.74137 4.65731 9.76201 4.58398 9.76792C4.51066 9.77383 4.43689 9.76489 4.3671 9.74162C4.29731 9.71836 4.23294 9.68126 4.17782 9.63253C4.12271 9.58381 4.07799 9.52447 4.04635 9.45806C4.0147 9.39165 3.99678 9.31954 3.99366 9.24604C3.99053 9.17254 4.00227 9.09917 4.02816 9.03031C4.23598 8.40688 4.71723 7.50781 5.5102 6.75531C6.31082 5.99516 7.44285 5.375 8.9216 5.375C9.06664 5.375 9.20574 5.43262 9.3083 5.53518C9.41086 5.63773 9.46848 5.77683 9.46848 5.92188C9.46848 6.06692 9.41086 6.20602 9.3083 6.30857C9.20574 6.41113 9.06664 6.46875 8.9216 6.46875C7.77535 6.46875 6.90254 6.94234 6.26379 7.54938ZM24.8607 7.54938C25.5104 8.16516 25.9019 8.90563 26.0594 9.37594C26.08 9.44656 26.1146 9.5123 26.1612 9.56922C26.2078 9.62615 26.2654 9.67308 26.3306 9.70722C26.3958 9.74137 26.4671 9.76201 26.5405 9.76792C26.6138 9.77383 26.6876 9.76489 26.7574 9.74162C26.8271 9.71836 26.8915 9.68126 26.9466 9.63253C27.0017 9.58381 27.0465 9.52447 27.0781 9.45806C27.1098 9.39165 27.1277 9.31954 27.1308 9.24604C27.1339 9.17254 27.1222 9.09917 27.0963 9.03031C26.8885 8.40688 26.4072 7.50781 25.6143 6.75531C24.8136 5.99516 23.6816 5.375 22.2029 5.375C22.0578 5.375 21.9187 5.43262 21.8162 5.53518C21.7136 5.63773 21.656 5.77683 21.656 5.92188C21.656 6.06692 21.7136 6.20602 21.8162 6.30857C21.9187 6.41113 22.0578 6.46875 22.2029 6.46875C23.3491 6.46875 24.2219 6.94234 24.8607 7.54938Z" fill="#BEC1C8"/>
<path d="M13.1251 17.3382C13.1114 16.496 14.32 16.0941 15.4603 16.0749C16.6032 16.0558 17.8337 16.4277 17.8474 17.2698C17.8611 18.112 16.42 19.2195 15.5122 19.2195C14.6071 19.2195 13.1415 18.1777 13.1251 17.3382Z" fill="#BEC1C8"/>
<path d="M15.5625 22.1849C14.6649 22.1849 14.1568 22.4836 13.9621 22.6784C13.8305 22.8055 13.6542 22.8759 13.4712 22.8743C13.2882 22.8727 13.1131 22.7993 12.9837 22.6699C12.8543 22.5405 12.7809 22.3654 12.7793 22.1824C12.7777 21.9994 12.8481 21.8231 12.9752 21.6915C13.4777 21.189 14.3662 20.7891 15.5625 20.7891C16.7071 20.7891 17.643 21.1848 18.1497 21.6915C18.2768 21.8231 18.3472 21.9994 18.3456 22.1824C18.344 22.3654 18.2706 22.5405 18.1412 22.6699C18.0118 22.7993 17.8367 22.8727 17.6537 22.8743C17.4707 22.8759 17.2944 22.8055 17.1628 22.6784C16.9716 22.4871 16.4195 22.1849 15.5625 22.1849Z" fill="#BEC1C8"/>
</g>
<defs>
<clipPath id="clip0_4105_13065">
<rect width="31.125" height="29.125" fill="white"/>
</clipPath>
</defs>
</svg>
