<svg width="241" height="241" viewBox="0 0 241 241" fill="none" xmlns="http://www.w3.org/2000/svg">
<g clip-path="url(#clip0_4105_12816)">
<mask id="path-1-inside-1_4105_12816" fill="white">
<path fill-rule="evenodd" clip-rule="evenodd" d="M20.8287 130.078C20.8287 141.399 22.264 151.892 25.1403 161.48C22.264 169.644 20.8287 178.137 20.8287 186.705C20.8287 217.264 65.052 240.277 119.702 240.277C159.109 240.277 193.095 228.311 208.987 210.179C209.19 209.948 209.389 209.716 209.586 209.483C209.978 209.319 210.159 209.28 210.422 209.223C210.85 209.131 211.497 208.992 213.626 208.193C216.022 207.166 217.279 206.012 218.816 204.601C219.209 204.239 219.621 203.861 220.076 203.463C220.871 202.668 221.691 201.874 222.421 201.166C223.666 199.96 224.65 199.007 224.805 198.734C226.516 195.733 225.633 193.8 224.607 191.555C223.882 189.967 223.085 188.223 223.085 185.834C223.085 180.821 220.598 176.036 218.049 171.131C216.597 168.337 215.125 165.505 214.081 162.57C216.957 152.691 218.575 141.831 218.575 130.078C218.575 123.953 218.018 118.07 216.951 112.453C222.987 107.747 226.868 100.408 226.868 92.162C226.868 77.961 215.356 66.4488 201.156 66.4488C198.302 66.4488 195.557 66.9135 192.993 67.7714C174.909 50.1927 148.782 40.1934 119.702 40.1934C90.7838 40.1934 64.7851 50.0819 46.7134 67.479C44.4201 66.8084 41.9941 66.4488 39.4842 66.4488C25.2832 66.4488 13.771 77.961 13.771 92.162C13.771 99.9124 17.1999 106.862 22.6235 111.576C21.4455 117.457 20.8287 123.633 20.8287 130.078Z"/>
</mask>
<path d="M25.1403 161.48L32.44 164.052L33.2783 161.673L32.5535 159.256L25.1403 161.48ZM208.987 210.179L203.167 205.077V205.077L208.987 210.179ZM209.586 209.483L206.605 202.34L204.878 203.061L203.67 204.492L209.586 209.483ZM210.422 209.223L208.79 201.658L208.79 201.658L210.422 209.223ZM213.626 208.193L216.344 215.44L216.511 215.377L216.675 215.307L213.626 208.193ZM218.816 204.601L224.051 210.301L224.051 210.301L218.816 204.601ZM220.076 203.463L225.172 209.288L225.366 209.118L225.548 208.936L220.076 203.463ZM222.421 201.166L217.035 195.608V195.608L222.421 201.166ZM224.805 198.734L231.529 202.566L231.529 202.566L224.805 198.734ZM224.607 191.555L231.647 188.339L231.647 188.339L224.607 191.555ZM218.049 171.131L224.916 167.562V167.562L218.049 171.131ZM214.081 162.57L206.65 160.406L205.951 162.807L206.789 165.163L214.081 162.57ZM216.951 112.453L212.193 106.349L208.466 109.254L209.347 113.897L216.951 112.453ZM192.993 67.7714L187.598 73.321L190.978 76.6065L195.448 75.1112L192.993 67.7714ZM46.7134 67.479L44.5413 74.9075L48.8482 76.1668L52.081 73.0547L46.7134 67.479ZM22.6235 111.576L30.2123 113.096L31.0957 108.686L27.7009 105.735L22.6235 111.576ZM32.5535 159.256C29.9209 150.48 28.5682 140.746 28.5682 130.078H13.0891C13.0891 142.051 14.6071 153.303 17.7271 163.704L32.5535 159.256ZM28.5682 186.705C28.5682 179.008 29.8568 171.384 32.44 164.052L17.8405 158.908C14.6712 167.904 13.0891 177.267 13.0891 186.705H28.5682ZM119.702 232.537C93.3535 232.537 69.9513 226.972 53.4236 218.127C36.6642 209.157 28.5682 197.841 28.5682 186.705H13.0891C13.0891 206.129 27.1048 221.598 46.1195 231.774C65.366 242.075 91.4004 248.016 119.702 248.016V232.537ZM203.167 205.077C189.388 220.798 158.091 232.537 119.702 232.537V248.016C160.128 248.016 196.801 235.824 214.808 215.28L203.167 205.077ZM203.67 204.492C203.505 204.688 203.338 204.883 203.167 205.077L214.808 215.28C215.042 215.013 215.273 214.744 215.501 214.474L203.67 204.492ZM208.79 201.658C208.27 201.77 207.592 201.929 206.605 202.34L212.566 216.626C212.568 216.625 212.439 216.679 212.233 216.739C212.05 216.793 211.897 216.823 212.055 216.789L208.79 201.658ZM210.908 200.946C209.934 201.312 209.406 201.486 209.136 201.568C209.01 201.606 208.947 201.622 208.926 201.628C208.904 201.633 208.89 201.636 208.79 201.658L212.055 216.789C212.94 216.598 213.957 216.335 216.344 215.44L210.908 200.946ZM213.581 198.9C212.765 199.649 212.368 200.004 211.954 200.309C211.618 200.557 211.22 200.804 210.577 201.079L216.675 215.307C220.355 213.73 222.422 211.797 224.051 210.301L213.581 198.9ZM214.979 197.639C214.445 198.106 213.968 198.545 213.581 198.9L224.051 210.301C224.451 209.933 224.798 209.615 225.172 209.288L214.979 197.639ZM217.035 195.608C216.312 196.309 215.448 197.146 214.603 197.991L225.548 208.936C226.293 208.191 227.07 207.439 227.807 206.725L217.035 195.608ZM218.081 194.901C218.252 194.602 218.406 194.381 218.488 194.267C218.579 194.141 218.654 194.047 218.697 193.993C218.78 193.891 218.832 193.835 218.821 193.847C218.8 193.87 218.717 193.959 218.535 194.142C218.175 194.503 217.677 194.986 217.035 195.608L227.807 206.725C228.409 206.141 229.026 205.544 229.508 205.059C229.748 204.818 230.017 204.543 230.263 204.272C230.325 204.205 231.001 203.492 231.529 202.566L218.081 194.901ZM217.568 194.771C217.701 195.063 217.797 195.274 217.883 195.471C217.965 195.661 218.016 195.788 218.049 195.876C218.114 196.053 218.072 195.987 218.047 195.773C218.033 195.662 218.027 195.528 218.033 195.38C218.04 195.232 218.06 195.097 218.085 194.984C218.136 194.752 218.188 194.714 218.081 194.901L231.529 202.566C233.102 199.807 233.771 196.926 233.418 193.949C233.115 191.399 232.061 189.245 231.647 188.339L217.568 194.771ZM215.346 185.834C215.346 190.066 216.838 193.174 217.568 194.771L231.647 188.339C230.926 186.76 230.825 186.38 230.825 185.834H215.346ZM211.182 174.701C213.953 180.032 215.346 183.068 215.346 185.834H230.825C230.825 178.575 227.244 172.039 224.916 167.562L211.182 174.701ZM206.789 165.163C208.042 168.687 209.775 171.994 211.182 174.701L224.916 167.562C223.419 164.681 222.208 162.323 221.373 159.976L206.789 165.163ZM210.835 130.078C210.835 141.116 209.317 151.247 206.65 160.406L221.512 164.734C224.598 154.136 226.315 142.546 226.315 130.078H210.835ZM209.347 113.897C210.321 119.025 210.835 124.424 210.835 130.078H226.315C226.315 123.482 225.714 117.116 224.555 111.009L209.347 113.897ZM221.71 118.557C229.545 112.448 234.608 102.894 234.608 92.162H219.129C219.129 97.9219 216.428 103.047 212.193 106.349L221.71 118.557ZM234.608 92.162C234.608 73.6866 219.63 58.7092 201.156 58.7092V74.1884C211.081 74.1884 219.129 82.2353 219.129 92.162H234.608ZM201.156 58.7092C197.457 58.7092 193.884 59.3123 190.538 60.4316L195.448 75.1112C197.231 74.5147 199.147 74.1884 201.156 74.1884V58.7092ZM119.702 47.9329C147.045 47.9329 171.147 57.3293 187.598 73.321L198.387 62.2218C178.672 43.0562 150.518 32.4538 119.702 32.4538V47.9329ZM52.081 73.0547C68.5245 57.2251 92.5112 47.9329 119.702 47.9329V32.4538C89.0564 32.4538 61.0458 42.9386 41.3457 61.9032L52.081 73.0547ZM39.4842 74.1884C41.2514 74.1884 42.9463 74.4411 44.5413 74.9075L48.8854 60.0504C45.8939 59.1757 42.7368 58.7092 39.4842 58.7092V74.1884ZM21.5106 92.162C21.5106 82.2354 29.5576 74.1884 39.4842 74.1884V58.7092C21.0087 58.7092 6.03142 73.6865 6.03142 92.162H21.5106ZM27.7009 105.735C23.8965 102.428 21.5106 97.5782 21.5106 92.162H6.03142C6.03142 102.247 10.5033 111.296 17.546 117.417L27.7009 105.735ZM28.5682 130.078C28.5682 124.129 29.1374 118.463 30.2123 113.096L15.0346 110.056C13.7535 116.452 13.0891 123.138 13.0891 130.078H28.5682Z" fill="#BEC1C8" mask="url(#path-1-inside-1_4105_12816)"/>
<path d="M103.334 156.898C103.24 151.104 111.555 148.339 119.399 148.207C127.262 148.075 135.728 150.634 135.822 156.428C135.916 162.222 126.002 169.84 119.757 169.84C113.53 169.84 103.447 162.673 103.334 156.898Z" fill="#BEC1C8"/>
<path d="M103.334 156.898C103.24 151.104 111.555 148.339 119.399 148.207C127.262 148.075 135.728 150.634 135.822 156.428C135.916 162.222 126.002 169.84 119.757 169.84C113.53 169.84 103.447 162.673 103.334 156.898Z" fill="#BEC1C8" fill-opacity="0.375"/>
<path d="M14.7955 210.968C19.723 210.968 23.7176 206.974 23.7176 202.046C23.7176 197.119 19.723 193.124 14.7955 193.124C9.86805 193.124 5.87354 197.119 5.87354 202.046C5.87354 206.974 9.86805 210.968 14.7955 210.968Z" fill="#BEC1C8"/>
<path d="M173.916 78.2988C180.427 79.1773 186.417 74.6112 187.295 68.1002C188.174 61.5892 183.608 55.5989 177.097 54.7204C170.586 53.842 164.596 58.4081 163.717 64.9191C162.839 71.4301 167.405 77.4204 173.916 78.2988Z" fill="#BEC1C8"/>
<path d="M22.2849 153.344C24.5975 153.432 26.3354 151.257 25.7396 149.021L19.9376 127.244C19.1252 124.195 14.9784 123.757 13.5477 126.57L2.79209 147.717C1.65398 149.954 3.21865 152.618 5.72728 152.714L22.2849 153.344ZM167.126 22.5774C168.747 24.7039 167.428 27.7856 164.771 28.0814L152.133 29.4884C149.552 29.7757 147.596 27.2091 148.557 24.7967L153.263 12.9836C154.252 10.4997 157.573 10.0449 159.194 12.1713L167.126 22.5774Z" fill="#BEC1C8"/>
<path d="M196.674 49.6936C196.196 51.3786 198.249 52.6158 199.516 51.4069L221.159 30.7566C221.889 30.0602 221.865 28.888 221.108 28.2213L208.47 17.0948C207.52 16.2588 206.024 16.6995 205.679 17.9167L196.674 49.6936Z" fill="#BEC1C8"/>
<path d="M136.013 40.8312C135.903 40.5458 135.703 40.3034 135.443 40.1409C135.443 40.1409 79.1203 -0.121058 75.3635 0.98396C71.6089 2.09463 46.7875 66.3158 46.7875 66.3158C46.6622 66.637 46.6087 66.9352 46.6917 67.2031C47.811 70.9243 68.7141 68.0296 93.3782 60.7499C118.048 53.4682 137.132 44.5523 136.013 40.8312Z" fill="#BEC1C8"/>
<path d="M75.1546 1.15164C75.0151 1.27048 74.8918 1.40685 74.7876 1.55736C72.9547 7.12641 58.7559 53.3593 56.1665 68.6668C63.167 68.1526 70.7712 66.5698 79.8426 64.4124C78.9597 51.5263 78.5136 2.12355 75.1546 1.15164Z" fill="#BEC1C8"/>
<path d="M215.988 87.598C215.988 86.3151 215.478 85.0847 214.571 84.1775C213.664 83.2704 212.434 82.7607 211.151 82.7607C209.868 82.7607 208.637 83.2704 207.73 84.1775C206.823 85.0847 206.313 86.3151 206.313 87.598C206.313 95.9954 199.277 102.11 191.802 102.11C190.519 102.11 189.288 102.619 188.381 103.526C187.474 104.434 186.964 105.664 186.964 106.947C186.964 108.23 187.474 109.46 188.381 110.367C189.288 111.275 190.519 111.784 191.802 111.784C204.172 111.784 215.988 101.774 215.988 87.598ZM74.0957 210.141C74.0957 208.858 73.586 207.628 72.6789 206.721C71.7717 205.814 70.5413 205.304 69.2584 205.304C67.9755 205.304 66.7452 205.814 65.838 206.721C64.9308 207.628 64.4212 208.858 64.4212 210.141C64.4212 218.539 57.3846 224.653 49.9095 224.653C48.6266 224.653 47.3962 225.163 46.4891 226.07C45.5819 226.977 45.0723 228.207 45.0723 229.49C45.0723 230.773 45.5819 232.003 46.4891 232.911C47.3962 233.818 48.6266 234.327 49.9095 234.327C62.2799 234.327 74.0957 224.318 74.0957 210.141Z" fill="#BEC1C8"/>
<path d="M67.0743 133.027C65.4407 133.801 64.1614 134.864 62.7706 136.249C62.1654 136.875 61.4415 137.375 60.6411 137.719C59.8407 138.063 58.9798 138.244 58.1087 138.251C57.2376 138.259 56.3737 138.093 55.5675 137.763C54.7612 137.433 54.0287 136.946 53.4127 136.33C52.7968 135.714 52.3096 134.981 51.9797 134.175C51.6499 133.369 51.4839 132.505 51.4915 131.634C51.499 130.763 51.68 129.902 52.0238 129.101C52.3677 128.301 52.8675 127.577 53.4941 126.972C55.7847 124.59 58.4761 122.629 61.4454 121.179C65.0143 119.473 69.2655 118.489 74.5336 118.489C79.8016 118.489 84.0594 119.48 87.6217 121.173C90.5915 122.625 93.2829 124.588 95.5731 126.972C96.7681 128.209 97.4294 129.866 97.4144 131.587C97.3995 133.307 96.7095 134.952 95.4932 136.169C94.2768 137.385 92.6313 138.075 90.9112 138.09C89.1911 138.105 87.5339 137.444 86.2965 136.249C84.9057 134.864 83.6264 133.801 81.9928 133.027C80.3855 132.266 78.0894 131.61 74.5336 131.61C70.9778 131.61 68.6816 132.26 67.0743 133.027Z" fill="#BEC1C8"/>
<path d="M155.364 133.027C153.73 133.801 152.451 134.864 151.06 136.249C149.823 137.444 148.166 138.105 146.446 138.09C144.725 138.075 143.08 137.385 141.864 136.169C140.647 134.952 139.957 133.307 139.942 131.587C139.927 129.866 140.589 128.209 141.784 126.972C144.074 124.59 146.766 122.629 149.735 121.179C153.304 119.473 157.555 118.489 162.823 118.489C168.091 118.489 172.349 119.48 175.911 121.173C178.881 122.625 181.573 124.588 183.863 126.972C185.058 128.209 185.719 129.866 185.704 131.587C185.689 133.307 184.999 134.952 183.783 136.169C182.566 137.385 180.921 138.075 179.201 138.09C177.481 138.105 175.823 137.444 174.586 136.249C173.195 134.864 171.916 133.801 170.282 133.027C168.675 132.266 166.379 131.61 162.823 131.61C159.267 131.61 156.971 132.26 155.364 133.027Z" fill="#BEC1C8"/>
<path d="M36.3375 182.638C32.9942 180.871 31.0987 177.91 32.1037 176.024C33.1084 174.139 36.6335 174.043 39.9768 175.81C43.3201 177.578 45.2158 180.538 44.2109 182.424C43.2058 184.309 39.681 184.405 36.3375 182.638Z" fill="#BEC1C8"/>
<path d="M36.3375 182.638C32.9942 180.871 31.0987 177.91 32.1037 176.024C33.1084 174.139 36.6335 174.043 39.9768 175.81C43.3201 177.578 45.2158 180.538 44.2109 182.424C43.2058 184.309 39.681 184.405 36.3375 182.638Z" fill="#BEC1C8" fill-opacity="0.375"/>
<path d="M57.3844 197.603C54.0411 195.836 52.1454 192.875 53.1504 190.99C54.1553 189.104 57.6804 189.008 61.0237 190.775C64.367 192.542 66.2627 195.503 65.2577 197.389C64.2527 199.274 60.7277 199.37 57.3844 197.603Z" fill="#BEC1C8"/>
<path d="M57.3844 197.603C54.0411 195.836 52.1454 192.875 53.1504 190.99C54.1553 189.104 57.6804 189.008 61.0237 190.775C64.367 192.542 66.2627 195.503 65.2577 197.389C64.2527 199.274 60.7277 199.37 57.3844 197.603Z" fill="#BEC1C8" fill-opacity="0.375"/>
<path d="M36.2281 199.733C32.8848 197.966 30.9892 195.005 31.9941 193.12C32.9991 191.234 36.5242 191.138 39.8675 192.905C43.2107 194.672 45.1065 197.633 44.1015 199.519C43.0965 201.404 39.5715 201.5 36.2281 199.733Z" fill="#BEC1C8"/>
<path d="M36.2281 199.733C32.8848 197.966 30.9892 195.005 31.9941 193.12C32.9991 191.234 36.5242 191.138 39.8675 192.905C43.2107 194.672 45.1065 197.633 44.1015 199.519C43.0965 201.404 39.5715 201.5 36.2281 199.733Z" fill="#BEC1C8" fill-opacity="0.375"/>
<path fill-rule="evenodd" clip-rule="evenodd" d="M148.187 203.092L201.5 207.611L191.931 192.127L150.105 186.625C142.367 185.751 131.904 184.772 131.706 193.472C131.507 202.338 140.569 202.745 146.731 203.022C147.238 203.045 147.726 203.067 148.187 203.092Z" fill="#BEC1C8"/>
<path d="M231.297 192.48L221.366 202.174L214.224 201.577L216.881 192.021L202.213 178.352L195.366 182.437L191.698 178.714L205.282 165.332C208.687 161.991 213.278 160.136 218.048 160.171C222.818 160.207 227.38 162.13 230.736 165.521L231.486 166.282C234.822 169.69 236.675 174.279 236.64 179.049C236.604 183.818 234.683 189.123 231.297 192.48Z" fill="#BEC1C8"/>
<path fill-rule="evenodd" clip-rule="evenodd" d="M215.262 181.519C222.445 188.811 223.539 199.381 217.705 205.128C211.871 210.875 201.318 209.623 194.135 202.332C186.952 195.04 185.859 184.47 191.693 178.723C197.527 172.976 208.079 174.228 215.262 181.519ZM209.981 186.721C214.291 191.096 215.419 196.971 212.502 199.845C209.585 202.719 203.727 201.502 199.418 197.127C195.108 192.753 193.98 186.877 196.897 184.003C199.814 181.13 205.672 182.346 209.981 186.721Z" fill="#BEC1C8"/>
<path d="M130.62 175.458C129.496 175.458 128.419 175.904 127.624 176.699C126.829 177.494 126.383 178.572 126.383 179.695C126.383 180.819 126.829 181.897 127.624 182.692C128.419 183.486 129.496 183.933 130.62 183.933C130.91 183.933 131.196 183.99 131.463 184.101C131.731 184.211 131.974 184.374 132.178 184.578C132.383 184.783 132.545 185.026 132.656 185.293C132.767 185.56 132.824 185.847 132.824 186.136C132.824 186.426 132.767 186.712 132.656 186.98C132.545 187.247 132.383 187.49 132.178 187.694C131.974 187.899 131.731 188.061 131.463 188.172C131.196 188.283 130.91 188.34 130.62 188.34C129.496 188.34 128.419 188.786 127.624 189.581C126.829 190.376 126.383 191.453 126.383 192.577C126.383 193.701 126.829 194.779 127.624 195.573C128.419 196.368 129.496 196.815 130.62 196.815C131.205 196.815 131.765 197.047 132.178 197.46C132.592 197.873 132.824 198.434 132.824 199.018C132.824 199.602 132.592 200.163 132.178 200.576C131.765 200.989 131.205 201.221 130.62 201.221C129.496 201.221 128.419 201.668 127.624 202.463C126.829 203.257 126.383 204.335 126.383 205.459C126.383 206.583 126.829 207.661 127.624 208.455C128.419 209.25 129.496 209.696 130.62 209.696C132.607 209.696 134.554 209.142 136.243 208.096C137.932 207.05 139.296 205.553 140.181 203.775C141.066 201.996 141.437 200.006 141.253 198.027C141.068 196.049 140.336 194.162 139.137 192.577C140.336 190.993 141.068 189.105 141.253 187.127C141.437 185.149 141.066 183.158 140.181 181.38C139.296 179.601 137.932 178.104 136.243 177.058C134.554 176.012 132.607 175.458 130.62 175.458Z" fill="#BEC1C8"/>
</g>
<defs>
<clipPath id="clip0_4105_12816">
<rect width="239.927" height="239.927" fill="white" transform="translate(0.354492 0.635742)"/>
</clipPath>
</defs>
</svg>
