<svg width="41" height="42" viewBox="0 0 41 42" fill="none" xmlns="http://www.w3.org/2000/svg">
<g clip-path="url(#clip0_4105_12647)">
<mask id="path-1-inside-1_4105_12647" fill="white">
<path fill-rule="evenodd" clip-rule="evenodd" d="M1.34774 18.9018C1.34774 21.0632 1.62179 23.0666 2.17095 24.8973C1.62179 26.456 1.34774 28.0777 1.34774 29.7135C1.34774 35.5481 9.79123 39.9418 20.2255 39.9418C30.6597 39.9418 39.1031 35.5481 39.1031 29.7135C39.1031 28.2112 38.7943 26.6496 38.2451 25.1054C38.7943 23.2193 39.1031 21.1458 39.1031 18.9018C39.1031 17.7322 38.9967 16.609 38.7931 15.5364C39.9454 14.638 40.6864 13.2367 40.6864 11.6623C40.6864 8.95094 38.4884 6.75294 35.7771 6.75294C35.2323 6.75294 34.7083 6.84168 34.2186 7.0055C30.7659 3.64933 25.7775 1.74023 20.2255 1.74023C14.7042 1.74023 9.74038 3.62819 6.28997 6.94973C5.85202 6.82164 5.38872 6.75294 4.90938 6.75294C2.198 6.75294 0 8.95094 0 11.6623C0 13.1422 0.654776 14.4691 1.69042 15.3692C1.46551 16.4921 1.34774 17.6713 1.34774 18.9018Z"/>
</mask>
<path d="M2.17095 24.8973L3.55243 25.3841L3.71108 24.9338L3.57391 24.4765L2.17095 24.8973ZM38.2451 25.1054L36.8388 24.6959L36.7065 25.1503L36.8651 25.5962L38.2451 25.1054ZM38.7931 15.5364L37.8925 14.3812L37.1872 14.9311L37.3541 15.8096L38.7931 15.5364ZM34.2186 7.0055L33.1976 8.05578L33.8373 8.67755L34.6833 8.39455L34.2186 7.0055ZM6.28997 6.94973L5.8788 8.35555L6.69394 8.59396L7.30579 8.00496L6.28997 6.94973ZM1.69042 15.3692L3.12661 15.6569L3.29381 14.8222L2.65126 14.2637L1.69042 15.3692ZM3.57391 24.4765C3.07085 22.7995 2.81246 20.9398 2.81246 18.9018H-0.116974C-0.116974 21.1866 0.172726 23.3338 0.768001 25.3182L3.57391 24.4765ZM2.81246 29.7135C2.81246 28.2424 3.05873 26.7853 3.55243 25.3841L0.789479 24.4106C0.184853 26.1267 -0.116974 27.913 -0.116974 29.7135H2.81246ZM20.2255 38.4771C15.1932 38.4771 10.7228 37.4143 7.56491 35.7243C4.36318 34.0107 2.81246 31.8466 2.81246 29.7135H-0.116974C-0.116974 33.415 2.55405 36.3651 6.18262 38.3071C9.85503 40.2725 14.8235 41.4066 20.2255 41.4066V38.4771ZM37.6384 29.7135C37.6384 31.8466 36.0877 34.0107 32.886 35.7243C29.7281 37.4143 25.2578 38.4771 20.2255 38.4771V41.4066C25.6274 41.4066 30.5959 40.2725 34.2683 38.3071C37.8968 36.3651 40.5678 33.415 40.5678 29.7135H37.6384ZM36.8651 25.5962C37.3694 27.0142 37.6384 28.4088 37.6384 29.7135H40.5678C40.5678 28.0136 40.2192 26.2849 39.6251 24.6145L36.8651 25.5962ZM37.6384 18.9018C37.6384 21.0104 37.3484 22.9459 36.8388 24.6959L39.6514 25.5149C40.2402 23.4927 40.5678 21.2811 40.5678 18.9018H37.6384ZM37.3541 15.8096C37.5402 16.7896 37.6384 17.8213 37.6384 18.9018H40.5678C40.5678 17.6431 40.4533 16.4283 40.2321 15.2631L37.3541 15.8096ZM39.6937 16.6915C41.1866 15.5275 42.1511 13.7072 42.1511 11.6623H39.2217C39.2217 12.7662 38.7041 13.7484 37.8925 14.3812L39.6937 16.6915ZM42.1511 11.6623C42.1511 8.14203 39.2974 5.28823 35.7771 5.28823V8.21766C37.6794 8.21766 39.2217 9.75986 39.2217 11.6623H42.1511ZM35.7771 5.28823C35.0724 5.28823 34.3915 5.40316 33.7539 5.61645L34.6833 8.39455C35.0251 8.2802 35.3923 8.21766 35.7771 8.21766V5.28823ZM20.2255 3.20495C25.4489 3.20495 30.054 4.99992 33.1976 8.05578L35.2395 5.95522C31.4779 2.29874 26.1062 0.27552 20.2255 0.27552V3.20495ZM7.30579 8.00496C10.448 4.98006 15.0311 3.20495 20.2255 3.20495V0.27552C14.3773 0.27552 9.03271 2.27632 5.27416 5.8945L7.30579 8.00496ZM4.90938 8.21766C5.24813 8.21766 5.57304 8.26612 5.8788 8.35555L6.70114 5.54391C6.13101 5.37716 5.52931 5.28823 4.90938 5.28823V8.21766ZM1.46471 11.6623C1.46471 9.75988 3.00694 8.21766 4.90938 8.21766V5.28823C1.38906 5.28823 -1.46471 8.142 -1.46471 11.6623H1.46471ZM2.65126 14.2637C1.92207 13.63 1.46471 12.7004 1.46471 11.6623H-1.46471C-1.46471 13.584 -0.61252 15.3083 0.729585 16.4748L2.65126 14.2637ZM2.81246 18.9018C2.81246 17.7651 2.92122 16.6823 3.12661 15.6569L0.254232 15.0816C0.00980519 16.3019 -0.116974 17.5775 -0.116974 18.9018H2.81246Z" fill="#BEC1C8" mask="url(#path-1-inside-1_4105_12647)"/>
<path d="M17.0998 24.5157C17.0818 23.4095 18.6693 22.8815 20.167 22.8564C21.6683 22.8312 23.2846 23.3197 23.3025 24.4259C23.3205 25.5322 21.4277 26.9868 20.2353 26.9868C19.0464 26.9868 17.1213 25.6184 17.0998 24.5157Z" fill="#BEC1C8"/>
<path d="M17.0998 24.5157C17.0818 23.4095 18.6693 22.8815 20.167 22.8564C21.6683 22.8312 23.2846 23.3197 23.3025 24.4259C23.3205 25.5322 21.4277 26.9868 20.2353 26.9868C19.0464 26.9868 17.1213 25.6184 17.0998 24.5157Z" fill="#BEC1C8" fill-opacity="0.375"/>
<path fill-rule="evenodd" clip-rule="evenodd" d="M15.7966 23.7849C14.7236 24.8579 13.2683 25.4607 11.7508 25.4607C10.2334 25.4607 8.7781 24.8579 7.7051 23.7849C6.6321 22.7119 6.0293 21.2566 6.0293 19.7391C6.0293 18.2217 6.6321 16.7664 7.7051 15.6934C8.7781 14.6204 10.2334 14.0176 11.7508 14.0176C13.2683 14.0176 14.7236 14.6204 15.7966 15.6934C16.8696 16.7664 17.4724 18.2217 17.4724 19.7391C17.4724 21.2566 16.8696 22.7119 15.7966 23.7849ZM33.0375 23.7849C31.9645 24.8579 30.5092 25.4607 28.9918 25.4607C27.4743 25.4607 26.019 24.8579 24.946 23.7849C23.873 22.7119 23.2702 21.2566 23.2702 19.7391C23.2702 18.2217 23.873 16.7664 24.946 15.6934C26.019 14.6204 27.4743 14.0176 28.9918 14.0176C30.5092 14.0176 31.9645 14.6204 33.0375 15.6934C34.1105 16.7664 34.7133 18.2217 34.7133 19.7391C34.7133 21.2566 34.1105 22.7119 33.0375 23.7849ZM15.4561 22.173C14.9792 22.6499 14.3324 22.9178 13.658 22.9178C12.9835 22.9178 12.3367 22.6499 11.8599 22.173C11.383 21.6961 11.115 21.0493 11.115 20.3749C11.115 19.7005 11.383 19.0537 11.8599 18.5768C12.3367 18.0999 12.9835 17.832 13.658 17.832C14.3324 17.832 14.9792 18.0999 15.4561 18.5768C15.933 19.0537 16.2009 19.7005 16.2009 20.3749C16.2009 21.0493 15.933 21.6961 15.4561 22.173ZM28.8826 22.173C28.4057 22.6499 27.7589 22.9178 27.0845 22.9178C26.4101 22.9178 25.7633 22.6499 25.2864 22.173C24.8095 21.6961 24.5416 21.0493 24.5416 20.3749C24.5416 19.7005 24.8095 19.0537 25.2864 18.5768C25.7633 18.0999 26.4101 17.832 27.0845 17.832C27.7589 17.832 28.4057 18.0999 28.8826 18.5768C29.3595 19.0537 29.6274 19.7005 29.6274 20.3749C29.6274 21.0493 29.3595 21.6961 28.8826 22.173Z" fill="#BEC1C8"/>
<path d="M8.66102 12.7308C7.90578 13.4453 7.4506 14.3074 7.26751 14.8541C7.24356 14.9362 7.2033 15.0126 7.14913 15.0788C7.09497 15.145 7.028 15.1995 6.95226 15.2392C6.87651 15.2789 6.79353 15.3029 6.70829 15.3098C6.62305 15.3166 6.5373 15.3062 6.45618 15.2792C6.37505 15.2522 6.30021 15.209 6.23614 15.1524C6.17208 15.0957 6.12009 15.0268 6.08331 14.9496C6.04652 14.8724 6.02569 14.7885 6.02206 14.7031C6.01843 14.6177 6.03207 14.5324 6.06217 14.4523C6.30375 13.7276 6.86319 12.6825 7.78499 11.8077C8.7157 10.924 10.0317 10.2031 11.7507 10.2031C11.9193 10.2031 12.081 10.2701 12.2002 10.3893C12.3194 10.5085 12.3864 10.6702 12.3864 10.8389C12.3864 11.0075 12.3194 11.1692 12.2002 11.2884C12.081 11.4076 11.9193 11.4746 11.7507 11.4746C10.4182 11.4746 9.40355 12.0251 8.66102 12.7308ZM32.0812 12.7308C32.8352 13.4453 33.2916 14.3074 33.4747 14.8541C33.5326 15.008 33.6479 15.1335 33.7963 15.2042C33.9447 15.275 34.1148 15.2854 34.2708 15.2334C34.4268 15.1814 34.5566 15.071 34.6329 14.9254C34.7092 14.7797 34.7261 14.6102 34.6801 14.4523C34.4385 13.7276 33.8778 12.6825 32.9572 11.8077C32.0265 10.924 30.7106 10.2031 28.9916 10.2031C28.823 10.2031 28.6613 10.2701 28.542 10.3893C28.4228 10.5085 28.3558 10.6702 28.3558 10.8389C28.3558 11.0075 28.4228 11.1692 28.542 11.2884C28.6613 11.4076 28.823 11.4746 28.9916 11.4746C30.3253 11.4746 31.3399 12.0251 32.0837 12.7308" fill="#BEC1C8"/>
<path d="M12.3484 28.6953C12.3484 30.1002 10.6409 31.2382 8.53409 31.2382C6.42729 31.2382 4.71973 30.1002 4.71973 28.6953C4.71973 27.2903 6.42729 26.1523 8.53409 26.1523C10.6409 26.1523 12.3484 27.2903 12.3484 28.6953ZM35.9466 28.6953C35.9466 30.1002 34.2391 31.2382 32.1323 31.2382C30.0255 31.2382 28.3179 30.1002 28.3179 28.6953C28.3179 27.2903 30.0255 26.1523 32.1323 26.1523C34.2391 26.1523 35.9466 27.2903 35.9466 28.6953Z" fill="#BEC1C8"/>
<path d="M17.2609 29.8488C17.4755 29.6342 17.7666 29.5137 18.0701 29.5137H22.6473C22.9508 29.5137 23.2419 29.6342 23.4565 29.8488C23.6711 30.0634 23.7916 30.3545 23.7916 30.658C23.7916 30.9615 23.6711 31.2525 23.4565 31.4671C23.2419 31.6817 22.9508 31.8023 22.6473 31.8023H18.0701C17.7666 31.8023 17.4755 31.6817 17.2609 31.4671C17.0463 31.2525 16.9258 30.9615 16.9258 30.658C16.9258 30.3545 17.0463 30.0634 17.2609 29.8488Z" fill="#BEC1C8"/>
</g>
<defs>
<clipPath id="clip0_4105_12647">
<rect width="40.6865" height="40.6865" fill="white" transform="translate(0 0.438477)"/>
</clipPath>
</defs>
</svg>
