<svg width="57" height="49" viewBox="0 0 57 49" fill="none" xmlns="http://www.w3.org/2000/svg">
<g clip-path="url(#clip0_4105_13087)">
<mask id="path-1-inside-1_4105_13087" fill="white">
<path fill-rule="evenodd" clip-rule="evenodd" d="M4.70165 21.6011C4.70165 24.3188 5.04624 26.8379 5.73675 29.1398C5.04624 31.0996 4.70165 33.1387 4.70165 35.1955C4.70165 42.5319 15.3183 48.0565 28.4382 48.0565C41.558 48.0565 52.1746 42.5319 52.1746 35.1955C52.1746 33.3065 51.7863 31.343 51.0957 29.4013C51.7863 27.0299 52.1746 24.4226 52.1746 21.6011C52.1746 20.1306 52.0408 18.7183 51.7848 17.3698C53.2337 16.2401 54.1655 14.4782 54.1655 12.4986C54.1655 9.08932 51.4018 6.3256 47.9927 6.3256C47.3077 6.3256 46.6488 6.43717 46.0331 6.64313C41.6918 2.42301 35.4193 0.0224609 28.4382 0.0224609C21.4958 0.0224609 15.2543 2.39639 10.9158 6.57291C10.3653 6.41193 9.78285 6.3256 9.18028 6.3256C5.77105 6.3256 3.00732 9.08932 3.00732 12.4986C3.00732 14.3592 3.8305 16.0276 5.13253 17.1593C4.84974 18.5712 4.70165 20.0539 4.70165 21.6011Z"/>
</mask>
<path d="M5.73675 29.1398L7.48919 29.7572L7.69045 29.186L7.51644 28.6059L5.73675 29.1398ZM51.0957 29.4013L49.3117 28.8819L49.1439 29.4583L49.3451 30.024L51.0957 29.4013ZM51.7848 17.3698L50.6423 15.9044L49.7477 16.6019L49.9593 17.7164L51.7848 17.3698ZM46.0331 6.64313L44.738 7.97542L45.5494 8.76417L46.6225 8.40519L46.0331 6.64313ZM10.9158 6.57291L10.3943 8.35627L11.4283 8.65861L12.2044 7.91149L10.9158 6.57291ZM5.13253 17.1593L6.95438 17.5242L7.16646 16.4654L6.35147 15.757L5.13253 17.1593ZM7.51644 28.6059C6.88442 26.499 6.55969 24.1622 6.55969 21.6011H2.84362C2.84362 24.4753 3.20805 27.1767 3.95706 29.6736L7.51644 28.6059ZM6.55969 35.1955C6.55969 33.3476 6.86904 31.5174 7.48919 29.7572L3.9843 28.5223C3.22344 30.6818 2.84362 32.9298 2.84362 35.1955H6.55969ZM28.4382 46.1984C22.1127 46.1984 16.4945 44.8625 12.5267 42.7389C8.50329 40.5857 6.55969 37.8689 6.55969 35.1955H2.84362C2.84362 39.8585 6.20836 43.5722 10.7732 46.0153C15.3937 48.4882 21.6438 49.9145 28.4382 49.9145V46.1984ZM50.3166 35.1955C50.3166 37.8689 48.373 40.5857 44.3496 42.7389C40.3818 44.8625 34.7636 46.1984 28.4382 46.1984V49.9145C35.2325 49.9145 41.4826 48.4882 46.103 46.0153C50.6679 43.5722 54.0326 39.8585 54.0326 35.1955H50.3166ZM49.3451 30.024C49.9787 31.8056 50.3166 33.5572 50.3166 35.1955H54.0326C54.0326 33.0559 53.5938 30.8804 52.8463 28.7787L49.3451 30.024ZM50.3166 21.6011C50.3166 24.2509 49.952 26.6831 49.3117 28.8819L52.8796 29.9208C53.6205 27.3767 54.0326 24.5943 54.0326 21.6011H50.3166ZM49.9593 17.7164C50.1931 18.9475 50.3166 20.2436 50.3166 21.6011H54.0326C54.0326 20.0176 53.8885 18.4892 53.6102 17.0232L49.9593 17.7164ZM52.9272 18.8351C54.8083 17.3686 56.0235 15.075 56.0235 12.4986H52.3075C52.3075 13.8814 51.6591 15.1117 50.6423 15.9044L52.9272 18.8351ZM56.0235 12.4986C56.0235 8.06319 52.428 4.46756 47.9927 4.46756V8.18363C50.3756 8.18363 52.3075 10.1155 52.3075 12.4986H56.0235ZM47.9927 4.46756C47.1048 4.46756 46.2469 4.61235 45.4436 4.88106L46.6225 8.40519C47.0506 8.26198 47.5106 8.18363 47.9927 8.18363V4.46756ZM28.4382 1.8805C35.0024 1.8805 40.7886 4.13627 44.738 7.97542L47.3282 5.31083C42.595 0.70974 35.8363 -1.83558 28.4382 -1.83558V1.8805ZM12.2044 7.91149C16.152 4.11128 21.9105 1.8805 28.4382 1.8805V-1.83558C21.0811 -1.83558 14.3566 0.681502 9.62718 5.23433L12.2044 7.91149ZM9.18028 8.18363C9.60455 8.18363 10.0114 8.24431 10.3943 8.35627L11.4372 4.78954C10.7191 4.57955 9.96115 4.46756 9.18028 4.46756V8.18363ZM4.86536 12.4986C4.86536 10.1155 6.79722 8.18363 9.18028 8.18363V4.46756C4.74489 4.46756 1.14929 8.06316 1.14929 12.4986H4.86536ZM6.35147 15.757C5.43815 14.9631 4.86536 13.7988 4.86536 12.4986H1.14929C1.14929 14.9196 2.22286 17.092 3.91359 18.5616L6.35147 15.757ZM6.55969 21.6011C6.55969 20.1729 6.69635 18.8125 6.95438 17.5242L3.31068 16.7944C3.00313 18.3299 2.84362 19.935 2.84362 21.6011H6.55969Z" fill="#BEC1C8" mask="url(#path-1-inside-1_4105_13087)"/>
<path d="M8.3737 34.7336C7.59541 34.5203 7.06337 33.9912 7.18539 33.5519C7.30738 33.1127 8.03721 32.9294 8.8155 33.1427C9.59382 33.3559 10.1258 33.8849 10.0038 34.3242C9.88183 34.7635 9.152 34.9466 8.3737 34.7336Z" fill="#BEC1C8"/>
<path d="M8.3737 34.7336C7.59541 34.5203 7.06337 33.9912 7.18539 33.5519C7.30738 33.1127 8.03721 32.9294 8.8155 33.1427C9.59382 33.3559 10.1258 33.8849 10.0038 34.3242C9.88183 34.7635 9.152 34.9466 8.3737 34.7336Z" fill="#BEC1C8" fill-opacity="0.375"/>
<path d="M13.4509 36.8761C12.6726 36.6629 12.1405 36.134 12.2625 35.6946C12.3845 35.2553 13.1144 35.072 13.8927 35.2852C14.671 35.4985 15.203 36.0274 15.081 36.4668C14.959 36.9061 14.2291 37.0894 13.4509 36.8761Z" fill="#BEC1C8"/>
<path d="M13.4509 36.8761C12.6726 36.6629 12.1405 36.134 12.2625 35.6946C12.3845 35.2553 13.1144 35.072 13.8927 35.2852C14.671 35.4985 15.203 36.0274 15.081 36.4668C14.959 36.9061 14.2291 37.0894 13.4509 36.8761Z" fill="#BEC1C8" fill-opacity="0.375"/>
<path d="M9.14323 38.3C8.36494 38.0867 7.83292 37.5578 7.95491 37.1185C8.07692 36.6791 8.80676 36.4958 9.58505 36.7091C10.3633 36.9223 10.8954 37.4513 10.7734 37.8906C10.6514 38.3299 9.92154 38.5132 9.14323 38.3Z" fill="#BEC1C8"/>
<path d="M9.14323 38.3C8.36494 38.0867 7.83292 37.5578 7.95491 37.1185C8.07692 36.6791 8.80676 36.4958 9.58505 36.7091C10.3633 36.9223 10.8954 37.4513 10.7734 37.8906C10.6514 38.3299 9.92154 38.5132 9.14323 38.3Z" fill="#BEC1C8" fill-opacity="0.375"/>
<path d="M48.4906 34.7336C49.2688 34.5203 49.8009 33.9912 49.6789 33.5519C49.5569 33.1127 48.827 32.9294 48.0488 33.1427C47.2704 33.3559 46.7384 33.8849 46.8604 34.3242C46.9824 34.7635 47.7123 34.9466 48.4906 34.7336Z" fill="#BEC1C8"/>
<path d="M48.4906 34.7336C49.2688 34.5203 49.8009 33.9912 49.6789 33.5519C49.5569 33.1127 48.827 32.9294 48.0488 33.1427C47.2704 33.3559 46.7384 33.8849 46.8604 34.3242C46.9824 34.7635 47.7123 34.9466 48.4906 34.7336Z" fill="#BEC1C8" fill-opacity="0.375"/>
<path d="M43.4134 36.8761C44.1917 36.6629 44.7237 36.134 44.6017 35.6946C44.4797 35.2553 43.7499 35.072 42.9716 35.2852C42.1933 35.4985 41.6613 36.0274 41.7833 36.4668C41.9053 36.9061 42.6351 37.0894 43.4134 36.8761Z" fill="#BEC1C8"/>
<path d="M43.4134 36.8761C44.1917 36.6629 44.7237 36.134 44.6017 35.6946C44.4797 35.2553 43.7499 35.072 42.9716 35.2852C42.1933 35.4985 41.6613 36.0274 41.7833 36.4668C41.9053 36.9061 42.6351 37.0894 43.4134 36.8761Z" fill="#BEC1C8" fill-opacity="0.375"/>
<path d="M47.721 38.3C48.4993 38.0867 49.0313 37.5578 48.9093 37.1185C48.7873 36.6791 48.0575 36.4958 47.2792 36.7091C46.5009 36.9223 45.9689 37.4513 46.0909 37.8906C46.2129 38.3299 46.9427 38.5132 47.721 38.3Z" fill="#BEC1C8"/>
<path d="M47.721 38.3C48.4993 38.0867 49.0313 37.5578 48.9093 37.1185C48.7873 36.6791 48.0575 36.4958 47.2792 36.7091C46.5009 36.9223 45.9689 37.4513 46.0909 37.8906C46.2129 38.3299 46.9427 38.5132 47.721 38.3Z" fill="#BEC1C8" fill-opacity="0.375"/>
<path d="M38.0351 33.9311C36.72 32.6421 34.8358 31.4663 32.9081 31.4054C31.3549 31.356 30.1036 32.2125 28.5301 32.2125C26.9566 32.2125 25.7053 31.356 24.1521 31.4054C22.2244 31.4663 20.3402 32.6421 19.0251 33.9311C17.4458 35.4814 16.4354 37.8156 17.1438 39.9872C17.3093 40.4923 17.6199 41.0236 17.9945 41.4156C18.4706 41.912 19.269 42.3504 19.9425 42.5275C21.2867 42.8788 22.7005 42.6204 23.9634 42.1065C25.235 41.5897 26.2511 40.5417 28.533 40.5417C30.812 40.5417 31.831 41.5897 33.1026 42.1065C34.3626 42.6175 35.7794 42.8759 37.1235 42.5275C37.7971 42.3504 38.5955 41.9091 39.0716 41.4156C39.4461 41.0236 39.7567 40.4923 39.9222 39.9872C40.6248 37.8156 39.6145 35.4785 38.0351 33.9311Z" fill="#BEC1C8"/>
<path d="M42.44 26.0305C42.8329 26.0983 43.2393 25.8984 43.4087 25.5157C43.6119 25.0686 43.4087 24.5368 42.9616 24.337C41.8439 23.8425 40.594 23.5004 39.4933 23.3412C41.4713 22.7011 43.2359 22.447 43.2597 22.4436C43.744 22.3725 44.0861 21.922 44.0184 21.4343C43.9506 20.9466 43.5001 20.6079 43.009 20.6756C42.8295 20.6993 38.5246 21.3259 35.4728 23.1583C35.1273 23.3649 34.9614 23.7781 35.0732 24.1676C35.1849 24.5538 35.5338 24.8247 35.9436 24.818C35.9775 24.818 39.5813 24.7841 42.2334 25.9662C42.2977 25.9966 42.3689 26.017 42.44 26.0305Z" fill="#BEC1C8"/>
<path d="M42.44 26.0305C42.8329 26.0983 43.2393 25.8984 43.4087 25.5157C43.6119 25.0686 43.4087 24.5368 42.9616 24.337C41.8439 23.8425 40.594 23.5004 39.4933 23.3412C41.4713 22.7011 43.2359 22.447 43.2597 22.4436C43.744 22.3725 44.0861 21.922 44.0184 21.4343C43.9506 20.9466 43.5001 20.6079 43.009 20.6756C42.8295 20.6993 38.5246 21.3259 35.4728 23.1583C35.1273 23.3649 34.9614 23.7781 35.0732 24.1676C35.1849 24.5538 35.5338 24.8247 35.9436 24.818C35.9775 24.818 39.5813 24.7841 42.2334 25.9662C42.2977 25.9966 42.3689 26.017 42.44 26.0305Z" fill="#BEC1C8" fill-opacity="0.375"/>
<path d="M14.5195 26.0305C14.1266 26.0983 13.7201 25.8984 13.5508 25.5157C13.3476 25.0686 13.5508 24.5368 13.9979 24.337C15.1156 23.8425 16.3654 23.5004 17.4662 23.3412C15.4882 22.7011 13.7235 22.447 13.6998 22.4436C13.2155 22.3725 12.8734 21.922 12.9411 21.4343C13.0089 20.9466 13.4593 20.6079 13.9505 20.6756C14.13 20.6993 18.4349 21.3259 21.4866 23.1583C21.8321 23.3649 21.9981 23.7781 21.8863 24.1676C21.7745 24.5538 21.4257 24.8247 21.0158 24.818C20.982 24.818 17.3782 24.7841 14.7261 25.9662C14.6617 25.9966 14.5906 26.017 14.5195 26.0305Z" fill="#BEC1C8"/>
<path d="M14.5195 26.0305C14.1266 26.0983 13.7201 25.8984 13.5508 25.5157C13.3476 25.0686 13.5508 24.5368 13.9979 24.337C15.1156 23.8425 16.3654 23.5004 17.4662 23.3412C15.4882 22.7011 13.7235 22.447 13.6998 22.4436C13.2155 22.3725 12.8734 21.922 12.9411 21.4343C13.0089 20.9466 13.4593 20.6079 13.9505 20.6756C14.13 20.6993 18.4349 21.3259 21.4866 23.1583C21.8321 23.3649 21.9981 23.7781 21.8863 24.1676C21.7745 24.5538 21.4257 24.8247 21.0158 24.818C20.982 24.818 17.3782 24.7841 14.7261 25.9662C14.6617 25.9966 14.5906 26.017 14.5195 26.0305Z" fill="#BEC1C8" fill-opacity="0.375"/>
<path d="M24.51 28.6579C24.4874 27.2669 26.4835 26.6031 28.3667 26.5715C30.2544 26.5399 32.2866 27.154 32.3092 28.545C32.3318 29.9359 29.9518 31.7649 28.4525 31.7649C26.9577 31.7649 24.5371 30.0443 24.51 28.6579Z" fill="#BEC1C8"/>
<path d="M24.51 28.6579C24.4874 27.2669 26.4835 26.6031 28.3667 26.5715C30.2544 26.5399 32.2866 27.154 32.3092 28.545C32.3318 29.9359 29.9518 31.7649 28.4525 31.7649C26.9577 31.7649 24.5371 30.0443 24.51 28.6579Z" fill="#BEC1C8" fill-opacity="0.375"/>
<path d="M49.9373 36.166C48.6005 35.6285 47.9502 34.4995 47.4173 33.235C47.1012 32.5125 46.8754 31.7583 46.7309 31.1351C46.356 29.5319 45.5251 28.1138 45.1276 26.5648C45.0147 26.1132 45.0102 25.49 45.5702 25.4403C46.0309 25.4087 46.7489 25.6526 47.1825 25.779C50.1314 26.6732 53.7082 28.8364 54.0107 32.1738C54.1191 33.2531 54.0875 34.8202 53.1979 35.6511C52.3127 36.4956 51.0347 36.5995 49.9373 36.166ZM56.2236 44.06C56.0475 44.8323 55.6772 45.9071 54.8778 46.291C54.083 46.6658 53.1843 46.4581 52.525 45.9207C51.7166 45.2613 51.5224 44.3355 51.4456 43.3465C51.3959 42.7639 51.405 42.213 51.4456 41.7433C51.545 40.5601 51.3011 39.3949 51.3779 38.2388C51.4005 37.9046 51.5314 37.4666 51.9243 37.5659C52.2495 37.6427 52.6921 37.9679 52.9585 38.1575C54.7875 39.422 56.7655 41.6891 56.2236 44.06ZM7.14303 36.166C8.47979 35.6285 9.1301 34.4995 9.663 33.235C9.97912 32.5125 10.2049 31.7583 10.3494 31.1351C10.7243 29.5319 11.5552 28.1138 11.9526 26.5648C12.0655 26.1132 12.0701 25.49 11.5101 25.4403C11.0494 25.4087 10.3314 25.6526 9.89783 25.779C6.94884 26.6732 3.37212 28.8364 3.06954 32.1738C2.96116 33.2531 2.99277 34.8202 3.88243 35.6511C4.76758 36.4956 6.04111 36.5995 7.14303 36.166ZM0.856672 44.06C1.0328 44.8323 1.40312 45.9071 2.20246 46.291C2.99729 46.6658 3.89598 46.4581 4.55533 45.9207C5.3637 45.2613 5.55789 44.3355 5.63467 43.3465C5.68434 42.7639 5.67531 42.213 5.63467 41.7433C5.53531 40.5601 5.77918 39.3949 5.70241 38.2388C5.67983 37.9046 5.54886 37.4666 5.15596 37.5659C4.83081 37.6427 4.38823 37.9679 4.12179 38.1575C2.29278 39.422 0.314744 41.6891 0.856672 44.06Z" fill="#BEC1C8"/>
</g>
<defs>
<clipPath id="clip0_4105_13087">
<rect width="55.9476" height="48.1025" fill="white" transform="translate(0.561523 0.0224609)"/>
</clipPath>
</defs>
</svg>
