<svg width="63" height="60" viewBox="0 0 63 60" fill="none" xmlns="http://www.w3.org/2000/svg">
<g clip-path="url(#clip0_4105_12684)">
<mask id="path-1-inside-1_4105_12684" fill="white">
<path fill-rule="evenodd" clip-rule="evenodd" d="M2.64771 27.0057C2.64771 30.2967 3.06498 33.3473 3.90115 36.1348C3.06498 38.508 2.64771 40.9772 2.64771 43.468C2.64771 52.352 15.504 59.042 31.3915 59.042C47.279 59.042 60.1353 52.352 60.1353 43.468C60.1353 41.1805 59.665 38.8027 58.8288 36.4515C59.665 33.5798 60.1353 30.4225 60.1353 27.0057C60.1353 25.225 59.9733 23.5148 59.6632 21.8817C61.4181 20.5138 62.5467 18.38 62.5467 15.9825C62.5467 11.8541 59.1999 8.50732 55.0717 8.50732C54.2419 8.50732 53.4437 8.64252 52.6979 8.89208C47.4408 3.78186 39.8453 0.875 31.3915 0.875C22.9849 0.875 15.4269 3.74956 10.1732 8.80687C9.50645 8.61189 8.80112 8.50732 8.07137 8.50732C3.94294 8.50732 0.596191 11.8541 0.596191 15.9825C0.596191 18.2356 1.59297 20.2559 3.1696 21.6264C2.82707 23.3363 2.64771 25.132 2.64771 27.0057Z"/>
</mask>
<path d="M3.90115 36.1348L6.02329 36.8825L6.267 36.1907L6.05628 35.4883L3.90115 36.1348ZM58.8288 36.4515L56.6685 35.8224L56.4652 36.5205L56.7089 37.2055L58.8288 36.4515ZM59.6632 21.8817L58.2799 20.1072L57.1964 20.9517L57.4527 22.3014L59.6632 21.8817ZM52.6979 8.89208L51.1296 10.5055L52.1123 11.4607L53.4119 11.0258L52.6979 8.89208ZM10.1732 8.80687L9.54168 10.9664L10.7938 11.3326L11.7336 10.4279L10.1732 8.80687ZM3.1696 21.6264L5.37577 22.0683L5.63262 20.7861L4.64571 19.9283L3.1696 21.6264ZM6.05628 35.4883C5.29094 32.9369 4.89771 30.1072 4.89771 27.0057H0.397705C0.397705 30.4863 0.839022 33.7576 1.74603 36.7812L6.05628 35.4883ZM4.89771 43.468C4.89771 41.2302 5.27231 39.0139 6.02329 36.8825L1.77902 35.3871C0.857652 38.0021 0.397705 40.7243 0.397705 43.468H4.89771ZM31.3915 56.792C23.7317 56.792 16.9283 55.1742 12.1235 52.6027C7.25132 49.9952 4.89771 46.7053 4.89771 43.468H0.397705C0.397705 49.1147 4.47226 53.6118 10.0001 56.5703C15.5953 59.5648 23.1639 61.292 31.3915 61.292V56.792ZM57.8853 43.468C57.8853 46.7053 55.5317 49.9952 50.6595 52.6027C45.8547 55.1742 39.0514 56.792 31.3915 56.792V61.292C39.6192 61.292 47.1877 59.5648 52.7829 56.5703C58.3108 53.6118 62.3853 49.1147 62.3853 43.468H57.8853ZM56.7089 37.2055C57.4762 39.3629 57.8853 41.484 57.8853 43.468H62.3853C62.3853 40.877 61.8539 38.2426 60.9487 35.6975L56.7089 37.2055ZM57.8853 27.0057C57.8853 30.2146 57.4439 33.1598 56.6685 35.8224L60.9891 37.0806C61.8862 33.9997 62.3853 30.6304 62.3853 27.0057H57.8853ZM57.4527 22.3014C57.7358 23.7923 57.8853 25.3619 57.8853 27.0057H62.3853C62.3853 25.0881 62.2108 23.2373 61.8737 21.462L57.4527 22.3014ZM61.0465 23.6563C63.3247 21.8804 64.7967 19.1028 64.7967 15.9825H60.2967C60.2967 17.6572 59.5114 19.1472 58.2799 20.1072L61.0465 23.6563ZM64.7967 15.9825C64.7967 10.6115 60.4426 6.25732 55.0717 6.25732V10.7573C57.9573 10.7573 60.2967 13.0967 60.2967 15.9825H64.7967ZM55.0717 6.25732C53.9961 6.25732 52.9569 6.43278 51.9839 6.75838L53.4119 11.0258C53.9305 10.8523 54.4877 10.7573 55.0717 10.7573V6.25732ZM31.3915 3.125C39.3405 3.125 46.3471 5.85655 51.1296 10.5055L54.2662 7.27872C48.5345 1.70717 40.3502 -1.375 31.3915 -1.375V3.125ZM11.7336 10.4279C16.5139 5.82622 23.487 3.125 31.3915 3.125V-1.375C22.4827 -1.375 14.3398 1.6729 8.61278 7.18587L11.7336 10.4279ZM8.07137 10.7573C8.58519 10.7573 9.07795 10.8308 9.54168 10.9664L10.8047 6.64731C9.93495 6.39297 9.01706 6.25732 8.07137 6.25732V10.7573ZM2.84619 15.9825C2.84619 13.0967 5.18558 10.7573 8.07137 10.7573V6.25732C2.7003 6.25732 -1.65381 10.6114 -1.65381 15.9825H2.84619ZM4.64571 19.9283C3.53977 18.9669 2.84619 17.557 2.84619 15.9825H-1.65381C-1.65381 18.9142 -0.353833 21.5448 1.69348 23.3245L4.64571 19.9283ZM4.89771 27.0057C4.89771 25.276 5.06322 23.6285 5.37577 22.0683L0.963429 21.1844C0.590909 23.044 0.397705 24.9879 0.397705 27.0057H4.89771Z" fill="#BEC1C8" mask="url(#path-1-inside-1_4105_12684)"/>
<path d="M26.6345 35.5524C26.6072 33.868 29.0244 33.0641 31.3048 33.0258C33.5908 32.9875 36.0517 33.7313 36.079 35.4157C36.1064 37.1 33.2244 39.3149 31.4087 39.3149C29.5986 39.3149 26.6673 37.2313 26.6345 35.5524Z" fill="#BEC1C8"/>
<path d="M26.6345 35.5524C26.6072 33.868 29.0244 33.0641 31.3048 33.0258C33.5908 32.9875 36.0517 33.7313 36.079 35.4157C36.1064 37.1 33.2244 39.3149 31.4087 39.3149C29.5986 39.3149 26.6673 37.2313 26.6345 35.5524Z" fill="#BEC1C8" fill-opacity="0.375"/>
<path d="M7.09437 42.9092C6.15189 42.651 5.50762 42.0102 5.65537 41.4782C5.80309 40.9465 6.68689 40.7245 7.62937 40.9827C8.57187 41.241 9.21612 41.8815 9.06839 42.4135C8.92064 42.9455 8.03684 43.1672 7.09437 42.9092Z" fill="#BEC1C8"/>
<path d="M7.09437 42.9092C6.15189 42.651 5.50762 42.0102 5.65537 41.4782C5.80309 40.9465 6.68689 40.7245 7.62937 40.9827C8.57187 41.241 9.21612 41.8815 9.06839 42.4135C8.92064 42.9455 8.03684 43.1672 7.09437 42.9092Z" fill="#BEC1C8" fill-opacity="0.375"/>
<path d="M13.2428 45.5039C12.3003 45.2457 11.6561 44.6052 11.8038 44.0732C11.9515 43.5412 12.8353 43.3192 13.7778 43.5775C14.7203 43.8357 15.3646 44.4762 15.2168 45.0082C15.0691 45.5402 14.1853 45.7622 13.2428 45.5039Z" fill="#BEC1C8"/>
<path d="M13.2428 45.5039C12.3003 45.2457 11.6561 44.6052 11.8038 44.0732C11.9515 43.5412 12.8353 43.3192 13.7778 43.5775C14.7203 43.8357 15.3646 44.4762 15.2168 45.0082C15.0691 45.5402 14.1853 45.7622 13.2428 45.5039Z" fill="#BEC1C8" fill-opacity="0.375"/>
<path d="M8.026 47.2276C7.08353 46.9693 6.43928 46.3288 6.587 45.7968C6.73475 45.2648 7.61855 45.0428 8.56103 45.3011C9.5035 45.5593 10.1478 46.1998 10 46.7318C9.8523 47.2638 8.9685 47.4858 8.026 47.2276Z" fill="#BEC1C8"/>
<path d="M8.026 47.2276C7.08353 46.9693 6.43928 46.3288 6.587 45.7968C6.73475 45.2648 7.61855 45.0428 8.56103 45.3011C9.5035 45.5593 10.1478 46.1998 10 46.7318C9.8523 47.2638 8.9685 47.4858 8.026 47.2276Z" fill="#BEC1C8" fill-opacity="0.375"/>
<path d="M55.6742 42.9092C56.6167 42.651 57.2609 42.0102 57.1132 41.4782C56.9655 40.9465 56.0817 40.7245 55.1392 40.9827C54.1967 41.241 53.5524 41.8815 53.7002 42.4135C53.8479 42.9455 54.7317 43.1672 55.6742 42.9092Z" fill="#BEC1C8"/>
<path d="M55.6742 42.9092C56.6167 42.651 57.2609 42.0102 57.1132 41.4782C56.9655 40.9465 56.0817 40.7245 55.1392 40.9827C54.1967 41.241 53.5524 41.8815 53.7002 42.4135C53.8479 42.9455 54.7317 43.1672 55.6742 42.9092Z" fill="#BEC1C8" fill-opacity="0.375"/>
<path d="M49.5257 45.5039C50.4682 45.2457 51.1125 44.6052 50.9647 44.0732C50.817 43.5412 49.9332 43.3192 48.9907 43.5775C48.0482 43.8357 47.404 44.4762 47.5517 45.0082C47.6995 45.5402 48.5833 45.7622 49.5257 45.5039Z" fill="#BEC1C8"/>
<path d="M49.5257 45.5039C50.4682 45.2457 51.1125 44.6052 50.9647 44.0732C50.817 43.5412 49.9332 43.3192 48.9907 43.5775C48.0482 43.8357 47.404 44.4762 47.5517 45.0082C47.6995 45.5402 48.5833 45.7622 49.5257 45.5039Z" fill="#BEC1C8" fill-opacity="0.375"/>
<path d="M54.7426 47.2276C55.685 46.9693 56.3293 46.3288 56.1816 45.7968C56.0338 45.2648 55.15 45.0428 54.2075 45.3011C53.2651 45.5593 52.6208 46.1998 52.7685 46.7318C52.9163 47.2638 53.8001 47.4858 54.7426 47.2276Z" fill="#BEC1C8"/>
<path d="M54.7426 47.2276C55.685 46.9693 56.3293 46.3288 56.1816 45.7968C56.0338 45.2648 55.15 45.0428 54.2075 45.3011C53.2651 45.5593 52.6208 46.1998 52.7685 46.7318C52.9163 47.2638 53.8001 47.4858 54.7426 47.2276Z" fill="#BEC1C8" fill-opacity="0.375"/>
<path fill-rule="evenodd" clip-rule="evenodd" d="M21.9951 36.069C20.8008 36.5637 19.5207 36.8184 18.228 36.8184C15.6173 36.8184 13.1135 35.7813 11.2674 33.9352C9.42138 32.0891 8.38428 29.5853 8.38428 26.9746C8.38428 24.3639 9.42138 21.8601 11.2674 20.014C13.1135 18.168 15.6173 17.1309 18.228 17.1309C19.5207 17.1309 20.8008 17.3855 21.9951 17.8802C23.1894 18.3749 24.2745 19.1 25.1886 20.014C26.1027 20.9281 26.8278 22.0133 27.3225 23.2076C27.8172 24.4019 28.0718 25.6819 28.0718 26.9746C28.0718 28.2673 27.8172 29.5474 27.3225 30.7417C26.8278 31.936 26.1027 33.0211 25.1886 33.9352C24.2745 34.8493 23.1894 35.5744 21.9951 36.069ZM48.5576 36.069C47.3633 36.5637 46.0832 36.8184 44.7905 36.8184C42.1798 36.8184 39.676 35.7813 37.8299 33.9352C35.9839 32.0891 34.9468 29.5853 34.9468 26.9746C34.9468 24.3639 35.9839 21.8601 37.8299 20.014C39.676 18.168 42.1798 17.1309 44.7905 17.1309C46.0832 17.1309 47.3633 17.3855 48.5576 17.8802C49.7519 18.3749 50.837 19.1 51.7511 20.014C52.6652 20.9281 53.3903 22.0133 53.885 23.2076C54.3797 24.4019 54.6343 25.6819 54.6343 26.9746C54.6343 28.2673 54.3797 29.5474 53.885 30.7417C53.3903 31.936 52.6652 33.0211 51.7511 33.9352C50.837 34.8493 49.7519 35.5744 48.5576 36.069ZM25.8843 28.0684C25.8843 29.2287 25.4233 30.3415 24.6029 31.1619C23.7824 31.9824 22.6696 32.4434 21.5093 32.4434C20.349 32.4434 19.2362 31.9824 18.4157 31.1619C17.5952 30.3415 17.1343 29.2287 17.1343 28.0684C17.1343 26.908 17.5952 25.7952 18.4157 24.9748C19.2362 24.1543 20.349 23.6934 21.5093 23.6934C22.6696 23.6934 23.7824 24.1543 24.6029 24.9748C25.4233 25.7952 25.8843 26.908 25.8843 28.0684ZM45.8843 28.0684C45.8843 29.2287 45.4233 30.3415 44.6029 31.1619C43.7824 31.9824 42.6696 32.4434 41.5093 32.4434C40.349 32.4434 39.2362 31.9824 38.4157 31.1619C37.5952 30.3415 37.1343 29.2287 37.1343 28.0684C37.1343 26.908 37.5952 25.7952 38.4157 24.9748C39.2362 24.1543 40.349 23.6934 41.5093 23.6934C42.6696 23.6934 43.7824 24.1543 44.6029 24.9748C45.4233 25.7952 45.8843 26.908 45.8843 28.0684Z" fill="#BEC1C8"/>
<path d="M23.6031 18.1019C23.4391 18.0235 23.2612 17.9781 23.0797 17.9685C21.5496 17.8872 20.3019 17.5236 19.3163 16.837C18.3418 16.1597 17.5075 15.0873 16.9353 13.3745C16.881 13.198 16.7919 13.0342 16.6734 12.8927C16.5548 12.7512 16.4091 12.6348 16.2449 12.5504C16.0807 12.4661 15.9012 12.4154 15.7171 12.4014C15.533 12.3875 15.348 12.4104 15.1729 12.4691C14.9978 12.5277 14.8362 12.6207 14.6976 12.7427C14.5591 12.8647 14.4463 13.0132 14.3659 13.1794C14.2856 13.3456 14.2393 13.5263 14.2299 13.7106C14.2204 13.895 14.2479 14.0795 14.3107 14.253C15.0379 16.4291 16.1915 18.0349 17.7327 19.1091C19.2609 20.1722 21.0549 20.6336 22.932 20.7333C23.1136 20.743 23.2952 20.7169 23.4667 20.6563C23.6381 20.5958 23.7959 20.5021 23.9312 20.3806C24.0664 20.2591 24.1764 20.1121 24.2548 19.9481C24.3332 19.7841 24.3786 19.6063 24.3883 19.4247C24.398 19.2432 24.3718 19.0615 24.3113 18.8901C24.2508 18.7186 24.1571 18.5608 24.0356 18.4256C23.9141 18.2903 23.7671 18.1804 23.6031 18.1019Z" fill="#BEC1C8"/>
<path d="M38.9829 18.4256C39.2284 18.1525 39.5722 17.988 39.9388 17.9685C41.4689 17.8872 42.7166 17.5236 43.7022 16.837C44.6749 16.1597 45.511 15.0873 46.0832 13.3745C46.1375 13.198 46.2266 13.0342 46.3452 12.8927C46.4637 12.7512 46.6094 12.6348 46.7736 12.5504C46.9379 12.4661 47.1173 12.4154 47.3014 12.4014C47.4855 12.3875 47.6705 12.4104 47.8456 12.4691C48.0207 12.5277 48.1823 12.6207 48.3209 12.7427C48.4595 12.8647 48.5722 13.0132 48.6526 13.1794C48.7329 13.3456 48.7792 13.5263 48.7887 13.7106C48.7981 13.895 48.7706 14.0795 48.7078 14.253C47.9806 16.4291 46.827 18.0349 45.2859 19.1091C43.7576 20.1722 41.9636 20.6336 40.0865 20.7333C39.7199 20.7529 39.3605 20.626 39.0874 20.3806C38.8143 20.1352 38.6498 19.7914 38.6302 19.4247C38.6107 19.0581 38.7375 18.6987 38.9829 18.4256Z" fill="#BEC1C8"/>
<path d="M31.4506 45.2439C29.6555 45.2439 28.6393 45.8413 28.2499 46.2308C27.9866 46.485 27.634 46.6257 27.268 46.6225C26.902 46.6194 26.5519 46.4726 26.2931 46.2138C26.0343 45.955 25.8875 45.6049 25.8843 45.2389C25.8811 44.8729 26.0218 44.5203 26.2761 44.257C27.2811 43.252 29.0581 42.4521 31.4506 42.4521C33.7398 42.4521 35.6117 43.2436 36.6251 44.257C36.8793 44.5203 37.02 44.8729 37.0169 45.2389C37.0137 45.6049 36.8669 45.955 36.6081 46.2138C36.3493 46.4726 35.9992 46.6194 35.6332 46.6225C35.2672 46.6257 34.9146 46.485 34.6513 46.2308C34.2688 45.8483 33.1647 45.2439 31.4506 45.2439Z" fill="#BEC1C8"/>
</g>
<defs>
<clipPath id="clip0_4105_12684">
<rect width="62.25" height="58.25" fill="white" transform="translate(0.384277 0.875)"/>
</clipPath>
</defs>
</svg>
