<svg width="80" height="75" viewBox="0 0 80 75" fill="none" xmlns="http://www.w3.org/2000/svg">
<g clip-path="url(#clip0_4105_12707)">
<mask id="path-1-inside-1_4105_12707" fill="white">
<path fill-rule="evenodd" clip-rule="evenodd" d="M3.38672 33.2891C3.38672 37.4732 3.91723 41.3515 4.98032 44.8955C3.91723 47.9127 3.38672 51.052 3.38672 54.2187C3.38672 65.5135 19.7318 74.019 39.9307 74.019C60.1295 74.019 76.4745 65.5135 76.4745 54.2187C76.4745 51.3104 75.8767 48.2875 74.8135 45.2982C75.8767 41.6471 76.4745 37.6331 76.4745 33.2891C76.4745 31.0255 76.2686 28.8515 75.8745 26.7756C78.1059 25.0365 79.5409 22.3234 79.5409 19.2752C79.5409 14.0264 75.286 9.77149 70.0375 9.77149C68.9825 9.77149 67.9677 9.94337 67.0195 10.2607C60.3358 3.7633 50.6789 0.0673828 39.9307 0.0673828C29.2425 0.0673828 19.6333 3.72215 12.954 10.1521C12.1065 9.90436 11.21 9.77149 10.2825 9.77149C5.03376 9.77149 0.778809 14.0264 0.778809 19.2752C0.778809 22.1395 2.04592 24.7079 4.05018 26.4503C3.61474 28.6241 3.38672 30.907 3.38672 33.2891Z"/>
</mask>
<path d="M4.98032 44.8955L7.67833 45.8461L7.98818 44.9666L7.72027 44.0735L4.98032 44.8955ZM74.8135 45.2982L72.067 44.4984L71.8085 45.3858L72.1183 46.2567L74.8135 45.2982ZM75.8745 26.7756L74.116 24.5194L72.7384 25.5931L73.0641 27.3091L75.8745 26.7756ZM67.0195 10.2607L65.0256 12.3118L66.275 13.5263L67.9273 12.9734L67.0195 10.2607ZM12.954 10.1521L12.1513 12.8978L13.7431 13.3631L14.9378 12.2129L12.954 10.1521ZM4.05018 26.4503L6.85504 27.0121L7.18155 25.3821L5.92698 24.2915L4.05018 26.4503ZM7.72027 44.0735C6.74724 40.8298 6.2473 37.2322 6.2473 33.2891H0.526149C0.526149 37.7142 1.08722 41.8732 2.24036 45.7174L7.72027 44.0735ZM6.2473 54.2187C6.2473 51.3737 6.72356 48.5559 7.67833 45.8461L2.28231 43.9449C1.11091 47.2695 0.526149 50.7304 0.526149 54.2187H6.2473ZM39.9307 71.1584C30.1922 71.1584 21.5426 69.1016 15.4339 65.8323C9.2396 62.5172 6.2473 58.3345 6.2473 54.2187H0.526149C0.526149 61.3977 5.7064 67.1152 12.7343 70.8765C19.8479 74.6836 29.4703 76.8795 39.9307 76.8795V71.1584ZM73.6139 54.2187C73.6139 58.3345 70.6217 62.5172 64.4274 65.8323C58.3187 69.1016 49.6691 71.1584 39.9307 71.1584V76.8795C50.391 76.8795 60.0134 74.6836 67.127 70.8765C74.1549 67.1152 79.3351 61.3977 79.3351 54.2187H73.6139ZM72.1183 46.2567C73.0938 48.9996 73.6139 51.6964 73.6139 54.2187H79.3351C79.3351 50.9245 78.6595 47.5753 77.5087 44.3396L72.1183 46.2567ZM73.6139 33.2891C73.6139 37.3687 73.0527 41.1132 72.067 44.4984L77.56 46.0979C78.7006 42.1811 79.3351 37.8974 79.3351 33.2891H73.6139ZM73.0641 27.3091C73.4239 29.2043 73.6139 31.1995 73.6139 33.2891H79.3351C79.3351 30.8515 79.1133 28.4988 78.6849 26.242L73.0641 27.3091ZM77.633 29.0318C80.5299 26.774 82.4015 23.2425 82.4015 19.2752H76.6803C76.6803 21.4044 75.6818 23.299 74.116 24.5194L77.633 29.0318ZM82.4015 19.2752C82.4015 12.4466 76.8659 6.91091 70.0375 6.91091V12.6321C73.7061 12.6321 76.6803 15.6062 76.6803 19.2752H82.4015ZM70.0375 6.91091C68.67 6.91091 67.3488 7.13398 66.1118 7.54793L67.9273 12.9734C68.5866 12.7528 69.295 12.6321 70.0375 12.6321V6.91091ZM39.9307 2.92796C50.037 2.92796 58.9453 6.40099 65.0256 12.3118L69.0135 8.20953C61.7264 1.12562 51.3207 -2.79319 39.9307 -2.79319V2.92796ZM14.9378 12.2129C21.0154 6.36234 29.8809 2.92796 39.9307 2.92796V-2.79319C28.604 -2.79319 18.2513 1.08197 10.9701 8.09126L14.9378 12.2129ZM10.2825 12.6321C10.9356 12.6321 11.5619 12.7254 12.1513 12.8978L13.7566 7.40645C12.6511 7.08326 11.4845 6.91091 10.2825 6.91091V12.6321ZM3.63938 19.2752C3.63938 15.6063 6.61361 12.6321 10.2825 12.6321V6.91091C3.4539 6.91091 -2.08177 12.4466 -2.08177 19.2752H3.63938ZM5.92698 24.2915C4.52107 23.0692 3.63938 21.2768 3.63938 19.2752H-2.08177C-2.08177 23.0022 -0.429224 26.3465 2.17339 28.6091L5.92698 24.2915ZM6.2473 33.2891C6.2473 31.0901 6.45772 28.9957 6.85504 27.0121L1.24533 25.8884C0.77176 28.2526 0.526149 30.7238 0.526149 33.2891H6.2473Z" fill="#BEC1C8" mask="url(#path-1-inside-1_4105_12707)"/>
<path d="M33.8831 47.3341C33.8483 45.1926 36.9215 44.1706 39.8208 44.1219C42.7271 44.0732 45.8558 45.0188 45.8906 47.1603C45.9253 49.3017 42.2612 52.1176 39.9529 52.1176C37.6515 52.1176 33.9248 49.4686 33.8831 47.3341Z" fill="#BEC1C8"/>
<path d="M33.8831 47.3341C33.8483 45.1926 36.9215 44.1706 39.8208 44.1219C42.7271 44.0732 45.8558 45.0188 45.8906 47.1603C45.9253 49.3017 42.2612 52.1176 39.9529 52.1176C37.6515 52.1176 33.9248 49.4686 33.8831 47.3341Z" fill="#BEC1C8" fill-opacity="0.375"/>
<path d="M9.0399 53.5081C7.84167 53.1798 7.02256 52.3652 7.21041 51.6888C7.39822 51.0128 8.52185 50.7305 9.72009 51.0588C10.9183 51.3872 11.7374 52.2015 11.5496 52.8778C11.3618 53.5542 10.2381 53.8361 9.0399 53.5081Z" fill="#BEC1C8"/>
<path d="M9.0399 53.5081C7.84167 53.1798 7.02256 52.3652 7.21041 51.6888C7.39822 51.0128 8.52185 50.7305 9.72009 51.0588C10.9183 51.3872 11.7374 52.2015 11.5496 52.8778C11.3618 53.5542 10.2381 53.8361 9.0399 53.5081Z" fill="#BEC1C8" fill-opacity="0.375"/>
<path d="M16.8568 56.8069C15.6586 56.4786 14.8395 55.6643 15.0273 54.9879C15.2151 54.3116 16.3388 54.0293 17.537 54.3577C18.7352 54.686 19.5544 55.5003 19.3665 56.1767C19.1787 56.853 18.055 57.1353 16.8568 56.8069Z" fill="#BEC1C8"/>
<path d="M16.8568 56.8069C15.6586 56.4786 14.8395 55.6643 15.0273 54.9879C15.2151 54.3116 16.3388 54.0293 17.537 54.3577C18.7352 54.686 19.5544 55.5003 19.3665 56.1767C19.1787 56.853 18.055 57.1353 16.8568 56.8069Z" fill="#BEC1C8" fill-opacity="0.375"/>
<path d="M10.2245 58.9984C9.02624 58.67 8.20716 57.8557 8.39497 57.1793C8.58282 56.503 9.70645 56.2207 10.9047 56.5491C12.1029 56.8774 12.922 57.6917 12.7342 58.3681C12.5464 59.0444 11.4227 59.3267 10.2245 58.9984Z" fill="#BEC1C8"/>
<path d="M10.2245 58.9984C9.02624 58.67 8.20716 57.8557 8.39497 57.1793C8.58282 56.503 9.70645 56.2207 10.9047 56.5491C12.1029 56.8774 12.922 57.6917 12.7342 58.3681C12.5464 59.0444 11.4227 59.3267 10.2245 58.9984Z" fill="#BEC1C8" fill-opacity="0.375"/>
<path d="M70.8034 53.5081C72.0016 53.1798 72.8207 52.3652 72.6329 51.6888C72.445 51.0128 71.3214 50.7305 70.1232 51.0588C68.9249 51.3872 68.1058 52.2015 68.2936 52.8778C68.4815 53.5542 69.6051 53.8361 70.8034 53.5081Z" fill="#BEC1C8"/>
<path d="M70.8034 53.5081C72.0016 53.1798 72.8207 52.3652 72.6329 51.6888C72.445 51.0128 71.3214 50.7305 70.1232 51.0588C68.9249 51.3872 68.1058 52.2015 68.2936 52.8778C68.4815 53.5542 69.6051 53.8361 70.8034 53.5081Z" fill="#BEC1C8" fill-opacity="0.375"/>
<path d="M62.9865 56.8069C64.1847 56.4786 65.0038 55.6643 64.816 54.9879C64.6281 54.3116 63.5045 54.0293 62.3062 54.3577C61.108 54.686 60.2889 55.5003 60.4768 56.1767C60.6646 56.853 61.7882 57.1353 62.9865 56.8069Z" fill="#BEC1C8"/>
<path d="M62.9865 56.8069C64.1847 56.4786 65.0038 55.6643 64.816 54.9879C64.6281 54.3116 63.5045 54.0293 62.3062 54.3577C61.108 54.686 60.2889 55.5003 60.4768 56.1767C60.6646 56.853 61.7882 57.1353 62.9865 56.8069Z" fill="#BEC1C8" fill-opacity="0.375"/>
<path d="M69.6188 58.9984C70.817 58.67 71.6361 57.8557 71.4483 57.1793C71.2604 56.503 70.1368 56.2207 68.9386 56.5491C67.7403 56.8774 66.9212 57.6917 67.1091 58.3681C67.2969 59.0444 68.4205 59.3267 69.6188 58.9984Z" fill="#BEC1C8"/>
<path d="M69.6188 58.9984C70.817 58.67 71.6361 57.8557 71.4483 57.1793C71.2604 56.503 70.1368 56.2207 68.9386 56.5491C67.7403 56.8774 66.9212 57.6917 67.1091 58.3681C67.2969 59.0444 68.4205 59.3267 69.6188 58.9984Z" fill="#BEC1C8" fill-opacity="0.375"/>
<path fill-rule="evenodd" clip-rule="evenodd" d="M33.5919 40.3274C34.131 39.0259 34.4084 37.631 34.4084 36.2223C34.4084 34.3549 33.9215 32.5377 33.018 30.9405C33.5436 32.1012 33.8363 33.3892 33.8363 34.7444C33.8363 39.8458 29.6885 43.9936 24.5871 43.9936C19.4858 43.9936 15.338 39.8458 15.338 34.7444C15.338 29.7894 19.2513 25.7339 24.1507 25.5054C23.9946 25.4986 23.8381 25.4951 23.6813 25.4951C20.8362 25.4951 18.1077 26.6253 16.096 28.637C14.0843 30.6488 12.9541 33.3773 12.9541 36.2223C12.9541 37.631 13.2316 39.0259 13.7707 40.3274C14.3097 41.6289 15.0999 42.8114 16.096 43.8075C17.0921 44.8036 18.2747 45.5938 19.5762 46.1329C20.8776 46.672 22.2725 46.9494 23.6813 46.9494C25.09 46.9494 26.4849 46.672 27.7864 46.1329C29.0878 45.5938 30.2704 44.8036 31.2665 43.8075C32.2626 42.8114 33.0528 41.6289 33.5919 40.3274ZM63.7639 43.7261C65.7667 41.7233 66.8918 39.007 66.8918 36.1746C66.8918 33.3422 65.7667 30.6259 63.7639 28.6231C61.7611 26.6203 59.0447 25.4951 56.2124 25.4951C55.9648 25.4951 55.7182 25.5037 55.4729 25.5207C60.2527 25.875 64.0313 29.8754 64.0313 34.7444C64.0313 39.8458 59.8835 43.9936 54.7821 43.9936C49.9132 43.9936 45.9129 40.2152 45.5585 35.4356C45.5415 35.6808 45.5329 35.9272 45.5329 36.1746C45.5329 39.007 46.658 41.7233 48.6608 43.7261C50.6636 45.7289 53.38 46.8541 56.2124 46.8541C59.0447 46.8541 61.7611 45.7289 63.7639 43.7261Z" fill="#BEC1C8"/>
<path d="M30.029 34.8804C31.8049 34.3155 32.5296 32.3297 31.65 30.4346C30.7751 28.5562 28.6464 27.4644 26.868 28.027C25.0921 28.5943 24.3674 30.5776 25.2471 32.4752C26.1219 34.3703 28.2507 35.4454 30.029 34.8804ZM60.2239 34.8804C61.9999 34.3155 62.7246 32.3297 61.8449 30.4346C60.9701 28.5562 58.8175 27.4644 57.063 28.027C55.2871 28.5943 54.5624 30.5776 55.442 32.4752C56.3169 34.3703 58.4456 35.4454 60.2239 34.8804Z" fill="#BEC1C8"/>
<path d="M21.6932 17.4448C21.1648 19.3999 20.2331 21.2132 18.7313 22.5342C17.249 23.833 15.0964 24.7591 11.912 24.7591C11.5432 24.7591 11.1895 24.9056 10.9288 25.1664C10.668 25.4272 10.5215 25.7809 10.5215 26.1497C10.5215 26.5185 10.668 26.8721 10.9288 27.1329C11.1895 27.3937 11.5432 27.5402 11.912 27.5402C15.6805 27.5402 18.5116 26.4278 20.5669 24.6228C22.5971 22.8373 23.754 20.479 24.377 18.1706C24.4272 17.9937 24.4418 17.8085 24.42 17.6259C24.3982 17.4432 24.3403 17.2667 24.2498 17.1066C24.1592 16.9464 24.0378 16.8059 23.8926 16.693C23.7473 16.5801 23.5812 16.4972 23.4036 16.449C23.2261 16.4008 23.0408 16.3883 22.8584 16.4122C22.676 16.4361 22.5002 16.496 22.3411 16.5884C22.182 16.6807 22.0428 16.8037 21.9316 16.9503C21.8204 17.0968 21.7394 17.2667 21.6932 17.4448ZM58.1505 17.4448C58.6789 19.3999 59.6105 21.2132 61.1123 22.5342C62.5947 23.833 64.7473 24.7591 67.9316 24.7591C68.3004 24.7591 68.6541 24.9056 68.9149 25.1664C69.1757 25.4272 69.3222 25.7809 69.3222 26.1497C69.3222 26.5185 69.1757 26.8721 68.9149 27.1329C68.6541 27.3937 68.3004 27.5402 67.9316 27.5402C64.1632 27.5402 61.3321 26.4278 59.2768 24.6228C57.2466 22.8373 56.0897 20.479 55.4667 18.1706C55.4165 17.9937 55.4018 17.8085 55.4237 17.6259C55.4455 17.4432 55.5034 17.2667 55.5939 17.1066C55.6844 16.9464 55.8058 16.8059 55.9511 16.693C56.0963 16.5801 56.2625 16.4972 56.4401 16.449C56.6176 16.4008 56.8029 16.3883 56.9853 16.4122C57.1677 16.4361 57.3435 16.496 57.5026 16.5884C57.6617 16.6807 57.8008 16.8037 57.912 16.9503C58.0233 17.0968 58.1043 17.2667 58.1505 17.4448Z" fill="#BEC1C8"/>
<path d="M39.9216 58.7017C37.6393 58.7017 36.3474 59.4612 35.8523 59.9563C35.5176 60.2796 35.0693 60.4585 34.604 60.4544C34.1387 60.4504 33.6935 60.2638 33.3645 59.9347C33.0355 59.6057 32.8488 59.1606 32.8448 58.6953C32.8408 58.23 33.0196 57.7817 33.3429 57.447C34.6206 56.1692 36.8798 55.1523 39.9216 55.1523C42.832 55.1523 45.2118 56.1586 46.5002 57.447C46.8235 57.7817 47.0024 58.23 46.9983 58.6953C46.9943 59.1606 46.8076 59.6057 46.4786 59.9347C46.1496 60.2638 45.7045 60.4504 45.2391 60.4544C44.7738 60.4585 44.3255 60.2796 43.9908 59.9563C43.5046 59.4701 42.1008 58.7017 39.9216 58.7017Z" fill="#BEC1C8"/>
</g>
<defs>
<clipPath id="clip0_4105_12707">
<rect width="79.1426" height="74.0571" fill="white" transform="translate(0.509277 0.0683594)"/>
</clipPath>
</defs>
</svg>
