<svg width="102" height="96" viewBox="0 0 102 96" fill="none" xmlns="http://www.w3.org/2000/svg">
<g clip-path="url(#clip0_4105_12731)">
<mask id="path-1-inside-1_4105_12731" fill="white">
<path fill-rule="evenodd" clip-rule="evenodd" d="M4.19956 42.9997C4.19956 48.3406 4.87674 53.2912 6.23375 57.8149C4.87674 61.6664 4.19956 65.6737 4.19956 69.7159C4.19956 84.1335 25.0638 94.9905 50.8472 94.9905C76.6306 94.9905 97.4947 84.1335 97.4947 69.7159C97.4947 66.0035 96.7315 62.1447 95.3744 58.329C96.7315 53.6685 97.4947 48.5446 97.4947 42.9997C97.4947 40.1102 97.2319 37.3352 96.7288 34.6853C99.577 32.4653 101.409 29.0022 101.409 25.1111C101.409 18.4112 95.9775 12.9799 89.2779 12.9799C87.9313 12.9799 86.6359 13.1993 85.4256 13.6043C76.894 5.31054 64.567 0.592773 50.8472 0.592773C37.2039 0.592773 24.938 5.25802 16.4119 13.4657C15.3302 13.1495 14.1858 12.9799 13.0019 12.9799C6.30196 12.9799 0.870605 18.4112 0.870605 25.1111C0.870605 28.7674 2.48805 32.0459 5.04645 34.27C4.49061 37.0449 4.19956 39.9589 4.19956 42.9997Z"/>
</mask>
<path d="M6.23375 57.8149L9.6777 59.0283L10.0732 57.9058L9.73125 56.7658L6.23375 57.8149ZM95.3744 58.329L91.8685 57.3081L91.5387 58.4409L91.934 59.5526L95.3744 58.329ZM96.7288 34.6853L94.4841 31.8052L92.7255 33.1758L93.1414 35.3663L96.7288 34.6853ZM85.4256 13.6043L82.8804 16.2225L84.4751 17.7728L86.5843 17.067L85.4256 13.6043ZM16.4119 13.4657L15.3874 16.9705L17.4192 17.5645L18.9443 16.0963L16.4119 13.4657ZM5.04645 34.27L8.62679 34.9872L9.04357 32.9066L7.44214 31.5143L5.04645 34.27ZM9.73125 56.7658C8.48919 52.6252 7.85103 48.0329 7.85103 42.9997H0.548091C0.548091 48.6482 1.26429 53.9571 2.73625 58.8641L9.73125 56.7658ZM7.85103 69.7159C7.85103 66.0842 8.45896 62.4874 9.6777 59.0283L2.78979 56.6015C1.29453 60.8454 0.548091 65.2631 0.548091 69.7159H7.85103ZM50.8472 91.339C38.4162 91.339 27.3752 88.7136 19.5776 84.5404C11.6706 80.3087 7.85103 74.9697 7.85103 69.7159H0.548091C0.548091 78.8797 7.16058 86.178 16.1316 90.9792C25.2119 95.8389 37.4947 98.642 50.8472 98.642V91.339ZM93.8432 69.7159C93.8432 74.9697 90.0236 80.3087 82.1167 84.5404C74.3191 88.7136 63.2781 91.339 50.8472 91.339V98.642C64.1996 98.642 76.4824 95.8389 85.5627 90.9792C94.5337 86.178 101.146 78.8797 101.146 69.7159H93.8432ZM91.934 59.5526C93.1793 63.0538 93.8432 66.4961 93.8432 69.7159H101.146C101.146 65.5109 100.284 61.2357 98.8147 57.1054L91.934 59.5526ZM93.8432 42.9997C93.8432 48.2072 93.1269 52.9869 91.8685 57.3081L98.8802 59.3499C100.336 54.35 101.146 48.8821 101.146 42.9997H93.8432ZM93.1414 35.3663C93.6007 37.7855 93.8432 40.3323 93.8432 42.9997H101.146C101.146 39.8881 100.863 36.8849 100.316 34.0042L93.1414 35.3663ZM98.9735 37.5653C102.671 34.6833 105.06 30.1753 105.06 25.1111H97.7574C97.7574 27.8291 96.4828 30.2474 94.4841 31.8052L98.9735 37.5653ZM105.06 25.1111C105.06 16.3946 97.9942 9.3284 89.2779 9.3284V16.6313C93.9608 16.6313 97.7574 20.4278 97.7574 25.1111H105.06ZM89.2779 9.3284C87.5324 9.3284 85.8459 9.61314 84.2669 10.1415L86.5843 17.067C87.4259 16.7854 88.3302 16.6313 89.2779 16.6313V9.3284ZM50.8472 4.24424C63.7477 4.24424 75.1189 8.67749 82.8804 16.2225L87.9708 10.9861C78.669 1.94359 65.3864 -3.05869 50.8472 -3.05869V4.24424ZM18.9443 16.0963C26.7022 8.62816 38.0189 4.24424 50.8472 4.24424V-3.05869C36.3889 -3.05869 23.1738 1.88787 13.8795 10.8351L18.9443 16.0963ZM13.0019 16.6313C13.8355 16.6313 14.635 16.7505 15.3874 16.9705L17.4365 9.96094C16.0254 9.54841 14.5362 9.3284 13.0019 9.3284V16.6313ZM4.52207 25.1111C4.52207 20.4279 8.31861 16.6313 13.0019 16.6313V9.3284C4.28531 9.3284 -2.78086 16.3946 -2.78086 25.1111H4.52207ZM7.44214 31.5143C5.64753 29.9542 4.52207 27.6662 4.52207 25.1111H-2.78086C-2.78086 29.8686 -0.671424 34.1376 2.65076 37.0257L7.44214 31.5143ZM7.85103 42.9997C7.85103 40.1927 8.11962 37.5191 8.62679 34.9872L1.46611 33.5528C0.861608 36.5706 0.548091 39.7251 0.548091 42.9997H7.85103Z" fill="#BEC1C8" mask="url(#path-1-inside-1_4105_12731)"/>
<path d="M43.1273 56.8702C43.083 54.1366 47.0057 52.832 50.7067 52.7699C54.4164 52.7077 58.4102 53.9147 58.4546 56.6483C58.499 59.3818 53.8218 62.9762 50.8753 62.9762C47.9376 62.9762 43.1806 59.5948 43.1273 56.8702Z" fill="#BEC1C8"/>
<path d="M43.1273 56.8702C43.083 54.1366 47.0057 52.832 50.7067 52.7699C54.4164 52.7077 58.4102 53.9147 58.4546 56.6483C58.499 59.3818 53.8218 62.9762 50.8753 62.9762C47.9376 62.9762 43.1806 59.5948 43.1273 56.8702Z" fill="#BEC1C8" fill-opacity="0.375"/>
<path d="M11.4164 68.8081C9.8869 68.389 8.84132 67.3492 9.0811 66.4858C9.32084 65.6228 10.7551 65.2626 12.2847 65.6817C13.8142 66.1008 14.8598 67.1402 14.62 68.0036C14.3802 68.867 12.9459 69.2268 11.4164 68.8081Z" fill="#BEC1C8"/>
<path d="M11.4164 68.8081C9.8869 68.389 8.84132 67.3492 9.0811 66.4858C9.32084 65.6228 10.7551 65.2626 12.2847 65.6817C13.8142 66.1008 14.8598 67.1402 14.62 68.0036C14.3802 68.867 12.9459 69.2268 11.4164 68.8081Z" fill="#BEC1C8" fill-opacity="0.375"/>
<path d="M21.3944 73.0191C19.8649 72.6 18.8194 71.5605 19.0591 70.6971C19.2989 69.8338 20.7332 69.4735 22.2627 69.8926C23.7922 70.3117 24.8378 71.3512 24.598 72.2145C24.3583 73.0779 22.924 73.4382 21.3944 73.0191Z" fill="#BEC1C8"/>
<path d="M21.3944 73.0191C19.8649 72.6 18.8194 71.5605 19.0591 70.6971C19.2989 69.8338 20.7332 69.4735 22.2627 69.8926C23.7922 70.3117 24.8378 71.3512 24.598 72.2145C24.3583 73.0779 22.924 73.4382 21.3944 73.0191Z" fill="#BEC1C8" fill-opacity="0.375"/>
<path d="M12.9281 75.8159C11.3986 75.3968 10.3531 74.3574 10.5928 73.494C10.8326 72.6306 12.2669 72.2704 13.7964 72.6895C15.3259 73.1086 16.3715 74.148 16.1317 75.0114C15.892 75.8748 14.4577 76.235 12.9281 75.8159Z" fill="#BEC1C8"/>
<path d="M12.9281 75.8159C11.3986 75.3968 10.3531 74.3574 10.5928 73.494C10.8326 72.6306 12.2669 72.2704 13.7964 72.6895C15.3259 73.1086 16.3715 74.148 16.1317 75.0114C15.892 75.8748 14.4577 76.235 12.9281 75.8159Z" fill="#BEC1C8" fill-opacity="0.375"/>
<path d="M90.2555 68.8081C91.785 68.389 92.8306 67.3492 92.5908 66.4858C92.351 65.6228 90.9167 65.2626 89.3872 65.6817C87.8577 66.1008 86.8121 67.1402 87.0519 68.0036C87.2916 68.867 88.7259 69.2268 90.2555 68.8081Z" fill="#BEC1C8"/>
<path d="M90.2555 68.8081C91.785 68.389 92.8306 67.3492 92.5908 66.4858C92.351 65.6228 90.9167 65.2626 89.3872 65.6817C87.8577 66.1008 86.8121 67.1402 87.0519 68.0036C87.2916 68.867 88.7259 69.2268 90.2555 68.8081Z" fill="#BEC1C8" fill-opacity="0.375"/>
<path d="M80.2774 73.0191C81.8069 72.6 82.8525 71.5605 82.6127 70.6971C82.373 69.8338 80.9387 69.4735 79.4091 69.8926C77.8796 70.3117 76.8341 71.3512 77.0738 72.2145C77.3136 73.0779 78.7479 73.4382 80.2774 73.0191Z" fill="#BEC1C8"/>
<path d="M80.2774 73.0191C81.8069 72.6 82.8525 71.5605 82.6127 70.6971C82.373 69.8338 80.9387 69.4735 79.4091 69.8926C77.8796 70.3117 76.8341 71.3512 77.0738 72.2145C77.3136 73.0779 78.7479 73.4382 80.2774 73.0191Z" fill="#BEC1C8" fill-opacity="0.375"/>
<path d="M88.7437 75.8159C90.2733 75.3968 91.3188 74.3574 91.0791 73.494C90.8393 72.6306 89.405 72.2704 87.8755 72.6895C86.3459 73.1086 85.3004 74.148 85.5402 75.0114C85.7799 75.8748 87.2142 76.235 88.7437 75.8159Z" fill="#BEC1C8"/>
<path d="M88.7437 75.8159C90.2733 75.3968 91.3188 74.3574 91.0791 73.494C90.8393 72.6306 89.405 72.2704 87.8755 72.6895C86.3459 73.1086 85.3004 74.148 85.5402 75.0114C85.7799 75.8748 87.2142 76.235 88.7437 75.8159Z" fill="#BEC1C8" fill-opacity="0.375"/>
<path d="M63.2598 71.5726C60.8788 67.1024 57.0433 65.4116 52.3044 64.9298C51.8551 64.8881 51.3594 64.865 50.8359 64.8604C50.3125 64.865 49.8168 64.8881 49.3675 64.9345C44.6286 65.4162 40.7931 67.107 38.4121 71.5772C36.8186 74.5697 37.1011 77.4417 39.3246 78.9936C40.4688 79.7903 42.7294 79.744 44.1561 79.2947C45.6941 78.8083 47.6257 77.9559 50.0901 77.905C50.3403 77.9003 50.5904 77.9096 50.8313 77.9281C51.0768 77.9096 51.3223 77.9003 51.5725 77.905C54.0369 77.9559 55.9686 78.8129 57.5065 79.2947C58.9332 79.744 61.1984 79.7903 62.338 78.9936C64.5708 77.4371 64.8533 74.5697 63.2598 71.5726Z" fill="#BEC1C8"/>
<path d="M66.5475 23.8331C66.8967 23.2819 67.4033 22.6452 68.2078 22.1386C68.9951 21.6422 70.1693 21.2074 71.946 21.2074C73.7055 21.2074 74.8591 21.6559 75.6499 22.1659C76.4612 22.6931 76.985 23.3435 77.4095 23.9255C77.6832 24.2736 78.0813 24.5021 78.52 24.5629C78.9587 24.6236 79.4039 24.512 79.762 24.2514C80.1201 23.9908 80.3633 23.6015 80.4404 23.1654C80.5175 22.7292 80.4225 22.2802 80.1754 21.9126C79.4596 20.8794 78.5548 19.9908 77.5087 19.2938C76.1463 18.4106 74.3422 17.7842 71.946 17.7842C69.5736 17.7842 67.7559 18.373 66.3797 19.2425C65.0104 20.1051 64.1752 21.18 63.6548 22.005C63.5271 22.195 63.4387 22.4086 63.3949 22.6333C63.3512 22.8579 63.3529 23.0891 63.4001 23.3131C63.4472 23.5371 63.5389 23.7493 63.6695 23.9373C63.8001 24.1252 63.9671 24.2851 64.1606 24.4074C64.3541 24.5297 64.5702 24.6119 64.796 24.6492C65.0218 24.6865 65.2529 24.6781 65.4754 24.6246C65.698 24.571 65.9075 24.4734 66.0916 24.3374C66.2758 24.2015 66.4308 24.03 66.5475 23.8331ZM25.9843 27.1228C25.3111 26.6903 24.7447 26.111 24.3274 25.4283C24.085 25.0443 23.7 24.7722 23.257 24.6721C22.814 24.5719 22.3494 24.6519 21.9654 24.8943C21.5813 25.1367 21.3093 25.5217 21.2092 25.9647C21.109 26.4077 21.1889 26.8723 21.4313 27.2563C21.9551 28.0813 22.7938 29.1562 24.1597 30.0189C25.5358 30.8884 27.3536 31.4772 29.7259 31.4772C32.1221 31.4772 33.9262 30.8507 35.2887 29.971C36.634 29.098 37.4556 28.0402 37.9588 27.3487C38.2257 26.981 38.3356 26.5224 38.2644 26.0736C38.1931 25.6249 37.9465 25.2228 37.5788 24.9559C37.2111 24.689 36.7524 24.579 36.3037 24.6503C35.8549 24.7216 35.4529 24.9682 35.186 25.3359C34.7649 25.9178 34.2411 26.5682 33.4298 27.0954C32.6391 27.6055 31.482 28.0539 29.7259 28.0539C27.9458 28.0539 26.775 27.6226 25.9843 27.1228Z" fill="#BEC1C8"/>
<path fill-rule="evenodd" clip-rule="evenodd" d="M40.6186 54.3511C37.7297 57.24 33.8115 58.863 29.7259 58.863C25.6404 58.863 21.7221 57.24 18.8332 54.3511C15.9443 51.4621 14.3213 47.5439 14.3213 43.4583C14.3213 39.3728 15.9443 35.4546 18.8332 32.5656C21.7221 29.6767 25.6404 28.0537 29.7259 28.0537C33.8115 28.0537 37.7297 29.6767 40.6186 32.5656C43.5076 35.4546 45.1305 39.3728 45.1305 43.4583C45.1305 47.5439 43.5076 51.4621 40.6186 54.3511ZM82.8387 54.3511C79.9498 57.24 76.0316 58.863 71.946 58.863C67.8604 58.863 63.9422 57.24 61.0533 54.3511C58.1644 51.4621 56.5414 47.5439 56.5414 43.4583C56.5414 39.3728 58.1644 35.4546 61.0533 32.5656C63.9422 29.6767 67.8604 28.0537 71.946 28.0537C76.0316 28.0537 79.9498 29.6767 82.8387 32.5656C85.7276 35.4546 87.3506 39.3728 87.3506 43.4583C87.3506 47.5439 85.7276 51.4621 82.8387 54.3511ZM40.9256 49.1C41.4417 47.854 41.7073 46.5186 41.7073 45.1699C41.7073 42.4462 40.6253 39.8341 38.6994 37.9081C36.7734 35.9822 34.1612 34.9002 31.4375 34.9002C28.7138 34.9002 26.1017 35.9822 24.1757 37.9081C22.2498 39.8341 21.1678 42.4462 21.1678 45.1699C21.1678 46.5186 21.4334 47.854 21.9495 49.1C22.4656 50.346 23.2221 51.4781 24.1757 52.4317C25.1294 53.3854 26.2615 54.1418 27.5075 54.6579C28.7535 55.174 30.0889 55.4397 31.4375 55.4397C32.7862 55.4397 34.1216 55.174 35.3676 54.6579C36.6136 54.1418 37.7457 53.3854 38.6994 52.4317C39.653 51.4781 40.4094 50.346 40.9256 49.1ZM77.4962 52.4317C79.4221 50.5058 80.5041 47.8936 80.5041 45.1699C80.5041 42.4462 79.4221 39.8341 77.4962 37.9081C75.5702 35.9822 72.9581 34.9002 70.2344 34.9002C67.5107 34.9002 64.8985 35.9822 62.9726 37.9081C61.0466 39.8341 59.9646 42.4462 59.9646 45.1699C59.9646 47.8936 61.0466 50.5058 62.9726 52.4317C64.8985 54.3577 67.5107 55.4397 70.2344 55.4397C72.9581 55.4397 75.5702 54.3577 77.4962 52.4317Z" fill="#BEC1C8"/>
</g>
<defs>
<clipPath id="clip0_4105_12731">
<rect width="101.024" height="94.5324" fill="white" transform="translate(0.526855 0.592773)"/>
</clipPath>
</defs>
</svg>
