<svg width="122" height="115" viewBox="0 0 122 115" fill="none" xmlns="http://www.w3.org/2000/svg">
<g clip-path="url(#clip0_4105_12755)">
<mask id="path-1-inside-1_4105_12755" fill="white">
<path fill-rule="evenodd" clip-rule="evenodd" d="M4.82296 51.7036C4.82296 58.0995 5.63391 64.028 7.25897 69.4453C5.63391 74.0576 4.82296 78.8565 4.82296 83.6971C4.82296 100.963 29.8085 113.964 60.685 113.964C91.5615 113.964 116.547 100.963 116.547 83.6971C116.547 79.2515 115.633 74.6304 114.008 70.0609C115.633 64.4798 116.547 58.3439 116.547 51.7036C116.547 48.2434 116.232 44.9202 115.63 41.7468C119.041 39.0884 121.234 34.9411 121.234 30.2815C121.234 22.2581 114.73 15.7539 106.707 15.7539C105.094 15.7539 103.543 16.0166 102.094 16.5016C91.8769 6.5696 77.115 0.919922 60.685 0.919922C44.3468 0.919922 29.658 6.5067 19.4477 16.3357C18.1522 15.957 16.7819 15.7539 15.364 15.7539C7.34065 15.7539 0.836426 22.2581 0.836426 30.2815C0.836426 34.66 2.77337 38.586 5.83714 41.2495C5.1715 44.5725 4.82296 48.0622 4.82296 51.7036Z"/>
</mask>
<path d="M7.25897 69.4453L11.3832 70.8984L11.8569 69.5541L11.4473 68.1889L7.25897 69.4453ZM114.008 70.0609L109.809 68.8384L109.414 70.195L109.888 71.5262L114.008 70.0609ZM115.63 41.7468L112.942 38.2979L110.836 39.9392L111.334 42.5624L115.63 41.7468ZM102.094 16.5016L99.0458 19.637L100.956 21.4936L103.481 20.6484L102.094 16.5016ZM19.4477 16.3357L18.2207 20.5328L20.654 21.2441L22.4803 19.486L19.4477 16.3357ZM5.83714 41.2495L10.1247 42.1084L10.6238 39.6167L8.70606 37.9495L5.83714 41.2495ZM11.4473 68.1889C9.95994 63.2305 9.19571 57.7311 9.19571 51.7036H0.450204C0.450204 58.4679 1.30788 64.8255 3.0706 70.7017L11.4473 68.1889ZM9.19571 83.6971C9.19571 79.3481 9.92373 75.0408 11.3832 70.8984L3.13472 67.9922C1.34409 73.0744 0.450204 78.3648 0.450204 83.6971H9.19571ZM60.685 109.592C45.7985 109.592 32.5766 106.448 23.2386 101.45C13.7698 96.3823 9.19571 89.9887 9.19571 83.6971H0.450204C0.450204 94.6711 8.36887 103.411 19.112 109.161C29.9859 114.98 44.695 118.337 60.685 118.337V109.592ZM112.174 83.6971C112.174 89.9887 107.6 96.3824 98.1313 101.45C88.7934 106.448 75.5715 109.592 60.685 109.592V118.337C76.675 118.337 91.3841 114.98 102.258 109.161C113.001 103.411 120.92 94.6711 120.92 83.6971H112.174ZM109.888 71.5262C111.379 75.7191 112.174 79.8414 112.174 83.6971H120.92C120.92 78.6615 119.887 73.5418 118.128 68.5956L109.888 71.5262ZM112.174 51.7036C112.174 57.9398 111.316 63.6636 109.809 68.8384L118.206 71.2835C119.95 65.296 120.92 58.748 120.92 51.7036H112.174ZM111.334 42.5624C111.884 45.4594 112.174 48.5093 112.174 51.7036H120.92C120.92 47.9774 120.581 44.3809 119.926 40.9312L111.334 42.5624ZM118.318 45.1957C122.746 41.7444 125.607 36.346 125.607 30.2815H116.862C116.862 33.5363 115.335 36.4323 112.942 38.2979L118.318 45.1957ZM125.607 30.2815C125.607 19.8432 117.145 11.3811 106.707 11.3811V20.1266C112.315 20.1266 116.862 24.673 116.862 30.2815H125.607ZM106.707 11.3811C104.617 11.3811 102.597 11.7221 100.706 12.3549L103.481 20.6484C104.489 20.3111 105.572 20.1266 106.707 20.1266V11.3811ZM60.685 5.29267C76.1338 5.29267 89.7513 10.6016 99.0458 19.637L105.142 13.3662C94.0025 2.53757 78.0962 -3.45283 60.685 -3.45283V5.29267ZM22.4803 19.486C31.7706 10.5426 45.3227 5.29267 60.685 5.29267V-3.45283C43.3708 -3.45283 27.5453 2.47084 16.4151 13.1854L22.4803 19.486ZM15.364 20.1266C16.3623 20.1266 17.3197 20.2694 18.2207 20.5328L20.6747 12.1386C18.9848 11.6446 17.2014 11.3811 15.364 11.3811V20.1266ZM5.20918 30.2815C5.20918 24.6731 9.75566 20.1266 15.364 20.1266V11.3811C4.92565 11.3811 -3.53633 19.8431 -3.53633 30.2815H5.20918ZM8.70606 37.9495C6.55695 36.0812 5.20918 33.3413 5.20918 30.2815H-3.53633C-3.53633 35.9787 -1.0102 41.0909 2.96822 44.5496L8.70606 37.9495ZM9.19571 51.7036C9.19571 48.3422 9.51736 45.1405 10.1247 42.1084L1.54956 40.3907C0.825651 44.0046 0.450204 47.7822 0.450204 51.7036H9.19571Z" fill="#BEC1C8" mask="url(#path-1-inside-1_4105_12755)"/>
<path d="M13.4655 82.6106C11.6339 82.1088 10.3818 80.8635 10.6689 79.8296C10.956 78.7961 12.6736 78.3647 14.5053 78.8666C16.337 79.3685 17.589 80.6133 17.3019 81.6472C17.0148 82.6811 15.2972 83.1121 13.4655 82.6106Z" fill="#BEC1C8"/>
<path d="M13.4655 82.6106C11.6339 82.1088 10.3818 80.8635 10.6689 79.8296C10.956 78.7961 12.6736 78.3647 14.5053 78.8666C16.337 79.3685 17.589 80.6133 17.3019 81.6472C17.0148 82.6811 15.2972 83.1121 13.4655 82.6106Z" fill="#BEC1C8" fill-opacity="0.375"/>
<path d="M25.4148 87.6536C23.5831 87.1517 22.331 85.9069 22.6181 84.873C22.9052 83.8391 24.6229 83.4077 26.4545 83.9096C28.2862 84.4114 29.5383 85.6562 29.2512 86.6901C28.964 87.7241 27.2464 88.1555 25.4148 87.6536Z" fill="#BEC1C8"/>
<path d="M25.4148 87.6536C23.5831 87.1517 22.331 85.9069 22.6181 84.873C22.9052 83.8391 24.6229 83.4077 26.4545 83.9096C28.2862 84.4114 29.5383 85.6562 29.2512 86.6901C28.964 87.7241 27.2464 88.1555 25.4148 87.6536Z" fill="#BEC1C8" fill-opacity="0.375"/>
<path d="M15.2761 91.0032C13.4444 90.5013 12.1924 89.2565 12.4795 88.2226C12.7666 87.1887 14.4842 86.7573 16.3159 87.2592C18.1475 87.7611 19.3996 89.0058 19.1125 90.0397C18.8254 91.0737 17.1078 91.5051 15.2761 91.0032Z" fill="#BEC1C8"/>
<path d="M15.2761 91.0032C13.4444 90.5013 12.1924 89.2565 12.4795 88.2226C12.7666 87.1887 14.4842 86.7573 16.3159 87.2592C18.1475 87.7611 19.3996 89.0058 19.1125 90.0397C18.8254 91.0737 17.1078 91.5051 15.2761 91.0032Z" fill="#BEC1C8" fill-opacity="0.375"/>
<path d="M107.878 82.6106C109.709 82.1088 110.961 80.8635 110.674 79.8296C110.387 78.7961 108.67 78.3647 106.838 78.8666C105.006 79.3685 103.754 80.6133 104.041 81.6472C104.328 82.6811 106.046 83.1121 107.878 82.6106Z" fill="#BEC1C8"/>
<path d="M107.878 82.6106C109.709 82.1088 110.961 80.8635 110.674 79.8296C110.387 78.7961 108.67 78.3647 106.838 78.8666C105.006 79.3685 103.754 80.6133 104.041 81.6472C104.328 82.6811 106.046 83.1121 107.878 82.6106Z" fill="#BEC1C8" fill-opacity="0.375"/>
<path d="M95.9285 87.6536C97.7602 87.1517 99.0123 85.9069 98.7251 84.873C98.438 83.8391 96.7204 83.4077 94.8887 83.9096C93.0571 84.4114 91.805 85.6562 92.0921 86.6901C92.3792 87.7241 94.0969 88.1555 95.9285 87.6536Z" fill="#BEC1C8"/>
<path d="M95.9285 87.6536C97.7602 87.1517 99.0123 85.9069 98.7251 84.873C98.438 83.8391 96.7204 83.4077 94.8887 83.9096C93.0571 84.4114 91.805 85.6562 92.0921 86.6901C92.3792 87.7241 94.0969 88.1555 95.9285 87.6536Z" fill="#BEC1C8" fill-opacity="0.375"/>
<path d="M106.067 91.0032C107.899 90.5013 109.151 89.2565 108.864 88.2226C108.577 87.1887 106.859 86.7573 105.027 87.2592C103.196 87.7611 101.944 89.0058 102.231 90.0397C102.518 91.0737 104.235 91.5051 106.067 91.0032Z" fill="#BEC1C8"/>
<path d="M106.067 91.0032C107.899 90.5013 109.151 89.2565 108.864 88.2226C108.577 87.1887 106.859 86.7573 105.027 87.2592C103.196 87.7611 101.944 89.0058 102.231 90.0397C102.518 91.0737 104.235 91.5051 106.067 91.0032Z" fill="#BEC1C8" fill-opacity="0.375"/>
<path d="M11.8736 52.4599C19.5871 61.3634 29.8489 65.2623 35.1098 66.7698C36.1607 67.0667 37.2719 67.0771 38.3281 66.7999C39.3843 66.5227 40.3472 65.968 41.1169 65.1934C45.6853 60.6862 54.8911 50.3517 56.8577 38.5519C59.6049 22.0764 38.9436 17.0488 30.6179 30.6317C11.1428 21.4872 0.838919 39.7227 11.8736 52.4599ZM109.961 52.4676C102.251 61.3672 91.9971 65.2623 86.7362 66.7659C84.5821 67.3858 82.3208 66.7659 80.7291 65.1934C76.1607 60.69 66.9626 50.3594 64.9959 38.5633C62.2488 22.0955 82.9024 17.0718 91.2243 30.647C110.696 21.5025 120.992 39.7341 109.961 52.4676Z" fill="#BEC1C8"/>
<path d="M60.9156 92.4224C46.6329 92.4224 43.7243 81.0484 43.1319 76.4158C42.9958 75.3512 43.8506 74.4873 44.9239 74.4873H76.9073C77.9806 74.4873 78.8354 75.3512 78.6992 76.4158C78.1069 81.0484 75.1982 92.4224 60.9156 92.4224Z" fill="#BEC1C8"/>
<path d="M51.7378 65.3954C51.6846 62.1219 56.3823 60.5595 60.8143 60.4851C65.2568 60.4108 70.0395 61.8562 70.0927 65.1297C70.1458 68.4032 64.5448 72.7076 61.0162 72.7076C57.4983 72.7076 51.8015 68.6583 51.7378 65.3954Z" fill="#BEC1C8"/>
<path d="M51.7378 65.3954C51.6846 62.1219 56.3823 60.5595 60.8143 60.4851C65.2568 60.4108 70.0395 61.8562 70.0927 65.1297C70.1458 68.4032 64.5448 72.7076 61.0162 72.7076C57.4983 72.7076 51.8015 68.6583 51.7378 65.3954Z" fill="#BEC1C8" fill-opacity="0.375"/>
</g>
<defs>
<clipPath id="clip0_4105_12755">
<rect width="120.979" height="113.206" fill="white" transform="translate(0.425781 0.918945)"/>
</clipPath>
</defs>
</svg>
