<svg width="144" height="145" viewBox="0 0 144 145" fill="none" xmlns="http://www.w3.org/2000/svg">
<g clip-path="url(#clip0_4105_12774)">
<g clip-path="url(#clip1_4105_12774)">
<mask id="path-1-inside-1_4105_12774" fill="white">
<path fill-rule="evenodd" clip-rule="evenodd" d="M5.78622 65.5817C5.78622 73.1578 6.7468 80.1801 8.67171 86.5971C6.7468 92.0604 5.78622 97.7447 5.78622 103.478C5.78622 123.93 35.382 139.33 71.9556 139.33C108.529 139.33 138.125 123.93 138.125 103.478C138.125 98.2126 137.042 92.7389 135.117 87.3262C137.042 80.7153 138.125 73.4472 138.125 65.5817C138.125 61.4825 137.752 57.5456 137.038 53.7862C141.077 50.6372 143.675 45.7255 143.675 40.2069C143.675 30.7031 135.971 22.9988 126.467 22.9988C124.558 22.9988 122.721 23.3098 121.004 23.8839C108.902 12.1197 91.4168 5.42773 71.9556 5.42773C52.6026 5.42773 35.2034 12.0455 23.1092 23.6882C21.5744 23.2394 19.9509 22.9988 18.2711 22.9988C8.76734 22.9988 1.06299 30.7031 1.06299 40.2069C1.06299 45.3938 3.35773 50.0446 6.98736 53.1996C6.19902 57.1354 5.78622 61.2687 5.78622 65.5817Z"/>
</mask>
<path d="M8.67171 86.5971L13.5569 88.3183L14.118 86.7259L13.6329 85.1088L8.67171 86.5971ZM135.117 87.3262L130.144 85.8781L129.676 87.485L130.237 89.0619L135.117 87.3262ZM137.038 53.7862L133.853 49.7014L131.36 51.6457L131.949 54.7525L137.038 53.7862ZM121.004 23.8839L117.394 27.5979L119.656 29.7967L122.647 28.796L121.004 23.8839ZM23.1092 23.6882L21.6555 28.6596L24.5379 29.5024L26.7014 27.4197L23.1092 23.6882ZM6.98736 53.1996L12.0661 54.2168L12.6573 51.2652L10.3854 49.2904L6.98736 53.1996ZM13.6329 85.1088C11.871 79.2355 10.9658 72.7213 10.9658 65.5817H0.606628C0.606628 73.5942 1.62256 81.1248 3.71052 88.0853L13.6329 85.1088ZM10.9658 103.478C10.9658 98.327 11.8282 93.225 13.5569 88.3183L3.78647 84.8758C1.66544 90.8958 0.606628 97.1623 0.606628 103.478H10.9658ZM71.9556 134.151C54.3224 134.151 38.6608 130.427 27.5999 124.507C16.3839 118.504 10.9658 110.931 10.9658 103.478H0.606628C0.606628 116.477 9.9864 126.83 22.7117 133.64C35.5921 140.534 53.0152 144.51 71.9556 144.51V134.151ZM132.945 103.478C132.945 110.931 127.527 118.504 116.311 124.507C105.25 130.427 89.5889 134.151 71.9556 134.151V144.51C90.896 144.51 108.319 140.534 121.199 133.64C133.925 126.83 143.304 116.477 143.304 103.478H132.945ZM130.237 89.0619C132.004 94.0284 132.945 98.9113 132.945 103.478H143.304C143.304 97.5138 142.081 91.4494 139.997 85.5906L130.237 89.0619ZM132.945 65.5817C132.945 72.9686 131.929 79.7486 130.144 85.8781L140.09 88.7744C142.156 81.6821 143.304 73.9259 143.304 65.5817H132.945ZM131.949 54.7525C132.601 58.1844 132.945 61.7976 132.945 65.5817H143.304C143.304 61.1674 142.903 56.9068 142.127 52.82L131.949 54.7525ZM140.223 57.8711C145.467 53.7829 148.854 47.3892 148.854 40.2069H138.495C138.495 44.0617 136.688 47.4916 133.853 49.7014L140.223 57.8711ZM148.854 40.2069C148.854 27.8426 138.831 17.8192 126.467 17.8192V28.1784C133.11 28.1784 138.495 33.5636 138.495 40.2069H148.854ZM126.467 17.8192C123.992 17.8192 121.6 18.2228 119.361 18.9719L122.647 28.796C123.841 28.3968 125.123 28.1784 126.467 28.1784V17.8192ZM71.9556 10.6073C90.2546 10.6073 106.384 16.8957 117.394 27.5979L124.615 20.1699C111.42 7.34364 92.5791 0.248147 71.9556 0.248147V10.6073ZM26.7014 27.4197C37.7059 16.826 53.7586 10.6073 71.9556 10.6073V0.248147C51.4465 0.248147 32.7009 7.26492 19.5169 19.9567L26.7014 27.4197ZM18.2711 28.1784C19.4539 28.1784 20.5881 28.3475 21.6555 28.6596L24.5628 18.7168C22.5607 18.1314 20.4479 17.8192 18.2711 17.8192V28.1784ZM6.24258 40.2069C6.24258 33.5637 11.6279 28.1784 18.2711 28.1784V17.8192C5.90673 17.8192 -4.1166 27.8425 -4.1166 40.2069H6.24258ZM10.3854 49.2904C7.83931 47.0773 6.24258 43.8316 6.24258 40.2069H-4.1166C-4.1166 46.9559 -1.12385 53.0119 3.58937 57.1088L10.3854 49.2904ZM10.9658 65.5817C10.9658 61.6003 11.3467 57.8081 12.0661 54.2168L1.90865 52.1823C1.05129 56.4628 0.606628 60.9371 0.606628 65.5817H10.9658Z" fill="#BEC1C8" mask="url(#path-1-inside-1_4105_12774)"/>
<path d="M61.0044 85.256C60.9415 81.3785 66.506 79.5279 71.7557 79.4398C77.018 79.3516 82.6832 81.0638 82.7461 84.9413C82.8091 88.8188 76.1745 93.9174 71.9949 93.9174C67.8278 93.9174 61.08 89.1209 61.0044 85.256Z" fill="#BEC1C8"/>
<path d="M61.0044 85.256C60.9415 81.3785 66.506 79.5279 71.7557 79.4398C77.018 79.3516 82.6832 81.0638 82.7461 84.9413C82.8091 88.8188 76.1745 93.9174 71.9949 93.9174C67.8278 93.9174 61.08 89.1209 61.0044 85.256Z" fill="#BEC1C8" fill-opacity="0.375"/>
<path d="M16.0223 102.192C13.8527 101.597 12.3696 100.122 12.7097 98.8975C13.0498 97.6733 15.0843 97.1623 17.2539 97.7568C19.4236 98.3513 20.9067 99.8257 20.5666 101.05C20.2265 102.275 18.1919 102.786 16.0223 102.192Z" fill="#BEC1C8"/>
<path d="M16.0223 102.192C13.8527 101.597 12.3696 100.122 12.7097 98.8975C13.0498 97.6733 15.0843 97.1623 17.2539 97.7568C19.4236 98.3513 20.9067 99.8257 20.5666 101.05C20.2265 102.275 18.1919 102.786 16.0223 102.192Z" fill="#BEC1C8" fill-opacity="0.375"/>
<path d="M30.1761 108.164C28.0065 107.57 26.5234 106.095 26.8635 104.871C27.2036 103.646 29.2381 103.135 31.4078 103.729C33.5774 104.324 35.0605 105.798 34.7204 107.023C34.3803 108.248 32.3457 108.759 30.1761 108.164Z" fill="#BEC1C8"/>
<path d="M30.1761 108.164C28.0065 107.57 26.5234 106.095 26.8635 104.871C27.2036 103.646 29.2381 103.135 31.4078 103.729C33.5774 104.324 35.0605 105.798 34.7204 107.023C34.3803 108.248 32.3457 108.759 30.1761 108.164Z" fill="#BEC1C8" fill-opacity="0.375"/>
<path d="M18.1668 112.133C15.9972 111.539 14.5141 110.064 14.8542 108.839C15.1943 107.615 17.2289 107.104 19.3985 107.698C21.5681 108.293 23.0512 109.767 22.7111 110.992C22.3711 112.217 20.3365 112.728 18.1668 112.133Z" fill="#BEC1C8"/>
<path d="M18.1668 112.133C15.9972 111.539 14.5141 110.064 14.8542 108.839C15.1943 107.615 17.2289 107.104 19.3985 107.698C21.5681 108.293 23.0512 109.767 22.7111 110.992C22.3711 112.217 20.3365 112.728 18.1668 112.133Z" fill="#BEC1C8" fill-opacity="0.375"/>
<path d="M127.855 102.192C130.025 101.597 131.508 100.122 131.168 98.8975C130.828 97.6733 128.793 97.1623 126.624 97.7568C124.454 98.3513 122.971 99.8257 123.311 101.05C123.651 102.275 125.686 102.786 127.855 102.192Z" fill="#BEC1C8"/>
<path d="M127.855 102.192C130.025 101.597 131.508 100.122 131.168 98.8975C130.828 97.6733 128.793 97.1623 126.624 97.7568C124.454 98.3513 122.971 99.8257 123.311 101.05C123.651 102.275 125.686 102.786 127.855 102.192Z" fill="#BEC1C8" fill-opacity="0.375"/>
<path d="M113.701 108.164C115.871 107.57 117.354 106.095 117.014 104.871C116.674 103.646 114.639 103.135 112.47 103.729C110.3 104.324 108.817 105.798 109.157 107.023C109.497 108.248 111.532 108.759 113.701 108.164Z" fill="#BEC1C8"/>
<path d="M113.701 108.164C115.871 107.57 117.354 106.095 117.014 104.871C116.674 103.646 114.639 103.135 112.47 103.729C110.3 104.324 108.817 105.798 109.157 107.023C109.497 108.248 111.532 108.759 113.701 108.164Z" fill="#BEC1C8" fill-opacity="0.375"/>
<path d="M125.711 112.133C127.88 111.539 129.363 110.064 129.023 108.839C128.683 107.615 126.649 107.104 124.479 107.698C122.309 108.293 120.826 109.767 121.166 110.992C121.506 112.217 123.541 112.728 125.711 112.133Z" fill="#BEC1C8"/>
<path d="M125.711 112.133C127.88 111.539 129.363 110.064 129.023 108.839C128.683 107.615 126.649 107.104 124.479 107.698C122.309 108.293 120.826 109.767 121.166 110.992C121.506 112.217 123.541 112.728 125.711 112.133Z" fill="#BEC1C8" fill-opacity="0.375"/>
<path d="M72.9349 91.4396C72.4884 91.0837 71.9341 90.8901 71.3631 90.8906C71.062 90.8912 70.7636 90.9458 70.4818 91.0518C70.0907 91.1973 69.7419 91.4378 69.4667 91.7516C69.1916 92.0654 68.9988 92.4427 68.9056 92.8495C68.4826 94.5466 67.9186 96.6011 66.7554 98.2528C65.6878 99.7736 64.1116 100.962 61.2916 100.962C57.9983 100.962 56.2559 98.273 56.2559 95.9263C56.2559 95.2586 55.9907 94.6181 55.5185 94.1459C55.0463 93.6738 54.4058 93.4085 53.7381 93.4085C53.0703 93.4085 52.4299 93.6738 51.9577 94.1459C51.4855 94.6181 51.2202 95.2586 51.2202 95.9263C51.2202 100.297 54.5136 105.998 61.2916 105.998C65.9497 105.998 68.9862 103.832 70.8746 101.153C71.0492 100.912 71.212 100.663 71.3631 100.408C71.5185 100.661 71.6814 100.91 71.8515 101.153C73.7399 103.832 76.7764 105.998 81.4345 105.998C88.2125 105.998 91.5059 100.297 91.5059 95.9263C91.5059 95.2586 91.2406 94.6181 90.7684 94.1459C90.2962 93.6738 89.6558 93.4085 88.988 93.4085C88.3203 93.4085 87.6798 93.6738 87.2076 94.1459C86.7355 94.6181 86.4702 95.2586 86.4702 95.9263C86.4702 98.273 84.7278 100.962 81.4345 100.962C78.6195 100.962 77.0383 99.7736 75.9707 98.2528C74.8075 96.6011 74.2435 94.5466 73.8205 92.8495C73.6937 92.2927 73.3814 91.7956 72.9349 91.4396Z" fill="#BEC1C8"/>
<path d="M37.4776 65.2528C36.3843 65.7709 35.5282 66.4821 34.5974 67.4085C34.1924 67.8279 33.7079 68.1624 33.1722 68.3925C32.6366 68.6226 32.0605 68.7437 31.4775 68.7488C30.8945 68.7538 30.3164 68.6427 29.7768 68.422C29.2372 68.2012 28.747 67.8752 28.3348 67.463C27.9225 67.0507 27.5965 66.5605 27.3758 66.0209C27.155 65.4814 27.0439 64.9032 27.049 64.3203C27.0541 63.7373 27.1752 63.1612 27.4053 62.6255C27.6354 62.0898 27.9699 61.6054 28.3892 61.2004C29.9222 59.6064 31.7234 58.2942 33.7105 57.3235C36.0989 56.182 38.944 55.5234 42.4696 55.5234C45.9951 55.5234 48.8446 56.1864 51.2286 57.3192C53.2161 58.2911 55.0173 59.6048 56.5499 61.2004C57.3497 62.0284 57.7922 63.1375 57.7822 64.2887C57.7722 65.4398 57.3105 66.541 56.4964 67.3551C55.6824 68.1691 54.5812 68.6308 53.43 68.6408C52.2789 68.6509 51.1698 68.2083 50.3417 67.4085C49.411 66.4821 48.5548 65.7709 47.4616 65.2528C46.3859 64.7435 44.8492 64.3045 42.4696 64.3045C40.0899 64.3045 38.5532 64.7391 37.4776 65.2528Z" fill="#BEC1C8"/>
<path d="M96.564 65.2528C95.4707 65.7709 94.6146 66.4821 93.6838 67.4085C92.8557 68.2083 91.7467 68.6509 90.5955 68.6408C89.4443 68.6308 88.3431 68.1691 87.5291 67.3551C86.7151 66.541 86.2533 65.4398 86.2433 64.2887C86.2333 63.1375 86.6758 62.0284 87.4756 61.2004C89.0086 59.6064 90.8098 58.2942 92.7969 57.3235C95.1853 56.182 98.0304 55.5234 101.556 55.5234C105.082 55.5234 107.931 56.1864 110.315 57.3192C112.303 58.2911 114.104 59.6048 115.636 61.2004C116.436 62.0284 116.879 63.1375 116.869 64.2887C116.859 65.4398 116.397 66.541 115.583 67.3551C114.769 68.1691 113.668 68.6308 112.516 68.6408C111.365 68.6509 110.256 68.2083 109.428 67.4085C108.497 66.4821 107.641 65.7709 106.548 65.2528C105.472 64.7435 103.936 64.3045 101.556 64.3045C99.1763 64.3045 97.6396 64.7391 96.564 65.2528Z" fill="#BEC1C8"/>
</g>
<path d="M9.52874 3.60523C15.3068 1.89038 21.4374 5.51062 23.8191 7.89235C26.2009 5.51062 34.1463 -0.834317 41.6821 6.70148C47.7555 12.7749 45.2547 22.1827 40.4912 29.3279C37.6856 33.5341 30.4118 40.1505 24.5479 44.6186C21.4803 46.9527 17.2122 46.262 14.6114 43.4135C10.2099 38.5881 4.63667 32.4004 1.9072 26.9462C-2.85626 17.4193 1.9072 5.86788 9.52874 3.60523ZM14.2922 131.742C8.96665 126.417 7.14701 117.452 11.9105 112.689C16.6739 107.925 26.2009 110.307 26.2009 110.307C26.2009 110.307 28.5826 104.352 35.7278 105.543C45.2547 106.734 46.4456 117.452 44.0638 124.597C42.2442 130.056 37.838 135.882 34.6322 139.631C32.5791 142.041 29.0732 142.393 26.4533 140.602C22.0471 137.601 15.7975 133.248 14.2922 131.742ZM121.47 86.4895C119.884 84.1077 111.943 77.4389 104.798 79.8206C95.7617 82.8359 95.2711 93.6347 100.035 100.78C103.012 105.248 111.429 115.232 116.016 120.596C116.411 121.069 116.899 121.456 117.448 121.735C117.998 122.014 118.598 122.179 119.213 122.219C119.828 122.259 120.445 122.174 121.026 121.969C121.607 121.763 122.141 121.442 122.594 121.025C128.329 115.718 139.428 104.714 142.906 96.0164C145.559 89.3809 142.906 79.3443 133.379 79.3443C125.757 79.3443 122.266 84.1077 121.47 86.4895Z" fill="#BEC1C8"/>
</g>
<defs>
<clipPath id="clip0_4105_12774">
<rect width="143.877" height="143.877" fill="white" transform="translate(0 0.248047)"/>
</clipPath>
<clipPath id="clip1_4105_12774">
<rect width="143.302" height="134.094" fill="white" transform="translate(0.575684 5.42676)"/>
</clipPath>
</defs>
</svg>
