<svg width="200" height="183" viewBox="0 0 200 183" fill="none" xmlns="http://www.w3.org/2000/svg">
<g clip-path="url(#clip0_4105_12795)">
<path d="M57.6264 85.4652C57.6264 81.4762 59.211 77.6506 62.0316 74.83C64.8523 72.0093 68.6779 70.4247 72.6669 70.4247C76.6559 70.4247 80.4815 72.0093 83.3021 74.83C86.1227 77.6506 87.7074 81.4762 87.7074 85.4652C87.7074 89.4542 86.1227 93.2798 83.3021 96.1004C80.4815 98.9211 76.6559 100.506 72.6669 100.506C68.6779 100.506 64.8523 98.9211 62.0316 96.1004C59.211 93.2798 57.6264 89.4542 57.6264 85.4652Z" fill="#BEC1C8"/>
<path d="M123.805 85.4652C123.805 81.4762 125.389 77.6506 128.21 74.83C131.03 72.0093 134.856 70.4247 138.845 70.4247C142.834 70.4247 146.66 72.0093 149.48 74.83C152.301 77.6506 153.886 81.4762 153.886 85.4652C153.886 89.4542 152.301 93.2798 149.48 96.1004C146.66 98.9211 142.834 100.506 138.845 100.506C134.856 100.506 131.03 98.9211 128.21 96.1004C125.389 93.2798 123.805 89.4542 123.805 85.4652Z" fill="#BEC1C8"/>
<path fill-rule="evenodd" clip-rule="evenodd" d="M43.0686 23.5744C58.9424 8.86244 81.1695 0.646484 105.61 0.646484C130.155 0.646484 152.469 8.93375 168.356 23.7656C170.268 23.295 172.263 23.046 174.312 23.046C188.195 23.046 199.383 34.4201 199.383 48.3684C199.383 55.7294 196.269 62.3658 191.298 66.9938C191.828 70.255 192.169 73.608 192.311 77.0466C194.49 78.0255 195.999 80.087 195.999 82.4571C195.999 84.883 194.415 86.9854 192.154 87.9349C191.683 95.1541 190.513 101.967 188.756 108.341C191.066 115.205 192.386 122.208 192.386 129.033C192.386 143.861 181.793 156.199 166.202 164.64C150.518 173.131 129.089 178.124 105.61 178.124C86.7731 178.124 69.2839 174.912 55.0226 169.277L57.5096 162.983C70.8734 168.262 87.5029 171.356 105.61 171.356C128.224 171.356 148.491 166.532 162.98 158.688C177.562 150.794 185.618 140.278 185.618 129.033C185.618 122.771 184.344 116.175 182.019 109.564L181.661 108.544L181.96 107.505C183.661 101.595 184.824 95.2425 185.331 88.4733H177.818C177.08 96.7042 173.288 104.361 167.189 109.937C161.09 115.513 153.125 118.606 144.861 118.606C136.597 118.606 128.632 115.513 122.534 109.937C116.435 104.361 112.643 96.7042 111.905 88.4733H99.6074C98.869 96.7042 95.0774 104.361 88.9784 109.937C82.8794 115.513 74.9146 118.606 66.6507 118.606C65.5101 118.606 64.3753 118.547 63.2503 118.431L63.2036 150.94L56.4634 131.433L56.4983 107.118C56.4982 105.581 56.0581 104.527 55.5313 103.914C55.0562 103.362 54.31 102.922 53.0391 102.922C51.9899 102.922 50.7026 103.382 49.6899 104.247C48.707 105.088 48.2113 106.099 48.2113 107.118V107.552L47.309 104.94L44.3229 109.937C44.0241 109.664 43.7309 109.386 43.4433 109.103L41.443 119.923V107.118C41.443 107.063 41.4435 107.008 41.4444 106.953C37.0347 101.769 34.3081 95.3195 33.6939 88.4733H25.8809C26.3552 94.8981 27.4312 100.929 29.0979 106.549L29.408 107.595L29.0493 108.625C27.8639 112.028 27.2318 114.29 26.8755 116.525C26.5173 118.771 26.4173 121.116 26.4173 124.731H19.6491C19.6491 121.035 19.7463 118.253 20.1917 115.459C20.5952 112.928 21.2675 110.49 22.3053 107.424C20.5764 101.298 19.4993 94.7938 19.0601 87.9433C18.4016 87.647 17.7956 87.2317 17.2751 86.7112C16.1468 85.5829 15.513 84.0527 15.513 82.4571C15.513 80.8615 16.1468 79.3313 17.2751 78.203C17.7553 77.7228 18.3084 77.3321 18.9083 77.0418C19.0631 73.2955 19.4543 69.6511 20.0691 66.1162C15.6229 61.5459 12.8809 55.2756 12.8809 48.3684C12.8809 34.42 24.0691 23.046 37.9523 23.046C39.703 23.046 41.4146 23.2277 43.0686 23.5744ZM25.712 76.4409H34.8069C36.7734 69.5111 40.9467 63.412 46.6936 59.069C52.4405 54.7259 59.4473 52.3761 66.6507 52.3761C73.854 52.3761 80.8608 54.7259 86.6077 59.069C92.3546 63.412 96.5279 69.5111 98.4944 76.4409H113.018C114.984 69.5112 119.157 63.4121 124.904 59.0691C130.651 54.7262 137.658 52.3764 144.861 52.3764C152.065 52.3764 159.071 54.7262 164.818 59.0691C170.565 63.4121 174.738 69.5112 176.705 76.4409H185.507C185.325 72.9504 184.919 69.5703 184.307 66.3063L183.929 64.2929L185.537 63.0246C189.843 59.6296 192.615 54.3332 192.615 48.3684C192.615 38.0843 184.384 29.8142 174.312 29.8142C172.279 29.8142 170.329 30.149 168.51 30.7649L166.537 31.4327L165.052 29.9724C150.512 15.6745 129.365 7.41471 105.61 7.41471C81.9866 7.41471 60.9434 15.5827 46.4111 29.7337L44.991 31.1166L43.0902 30.5543C41.464 30.0732 39.7408 29.8142 37.9523 29.8142C27.8803 29.8142 19.6491 38.0844 19.6491 48.3684C19.6491 53.9745 22.0968 58.9887 25.9657 62.3908L27.4293 63.6778L27.0507 65.5895C26.3605 69.0748 25.9078 72.6943 25.712 76.4409ZM44.8464 101.513C45.5157 102.422 46.2423 103.29 47.0225 104.111L45.2919 99.1028C47.4237 97.2803 50.2424 96.1537 53.0391 96.1537C56.1316 96.1537 58.807 97.3435 60.6627 99.5012C62.4667 101.599 63.2665 104.335 63.2665 107.118L63.2591 112.325C64.3817 112.467 65.5144 112.538 66.6507 112.538C70.2059 112.538 73.7264 111.838 77.011 110.477C80.2956 109.117 83.2801 107.123 85.7941 104.609C88.308 102.095 90.3022 99.1102 91.6628 95.8256C93.0233 92.5409 93.7236 89.0205 93.7236 85.4652C93.7236 78.285 90.8712 71.3989 85.7941 66.3218C80.7169 61.2446 73.8308 58.3923 66.6507 58.3923C59.4705 58.3923 52.5844 61.2446 47.5072 66.3218C42.4301 71.3989 39.5778 78.285 39.5778 85.4652C39.5778 89.0205 40.278 92.5409 41.6386 95.8256C42.2948 97.4097 43.0983 98.9241 44.0365 100.349C44.4283 99.8969 44.8502 99.4804 45.2919 99.1028L44.8464 101.513ZM117.83 85.4652C117.83 92.6342 120.678 99.5096 125.748 104.579C130.817 109.648 137.692 112.496 144.861 112.496C152.03 112.496 158.906 109.648 163.975 104.579C169.044 99.5096 171.892 92.6342 171.892 85.4652C171.892 78.2962 169.044 71.4208 163.975 66.3516C158.906 61.2823 152.03 58.4344 144.861 58.4344C137.692 58.4344 130.817 61.2823 125.748 66.3516C120.678 71.4208 117.83 78.2962 117.83 85.4652Z" fill="#BEC1C8"/>
<path d="M48.2113 107.552V123.829C48.2113 126.006 46.6583 127.285 45.4754 127.75C44.3055 128.209 42.5928 128.279 41.1559 127.179C40.463 126.648 39.6798 126.365 38.8954 126.365H38.868C37.5779 126.365 36.24 127.074 35.516 128.185C34.8817 129.157 33.9742 129.639 33.4616 129.863C32.8673 130.123 32.2479 130.275 31.6863 130.352C31.1252 130.43 30.4849 130.451 29.8379 130.359C29.2799 130.28 28.2623 130.055 27.3855 129.266C26.7164 128.664 25.8416 128.303 24.8693 128.303H24.8364C23.2393 128.303 21.8654 129.295 21.3118 130.733C20.6674 132.408 19.2066 133.184 18.197 133.46C17.1875 133.736 15.5337 133.812 14.1262 132.696C13.4505 132.161 12.5731 131.828 11.585 131.828H11.5549C9.26779 131.828 7.6167 133.58 7.6167 135.536V152.189C7.6167 164.709 17.9013 175.116 32.0575 175.116C46.3887 175.116 56.4354 164.1 56.4354 150.94L56.4634 131.433L48.2113 107.552Z" fill="#BEC1C8"/>
<path d="M105.517 105.873C98.6571 105.988 91.3859 108.406 91.4682 113.473C91.5669 118.523 100.384 124.791 105.83 124.791C111.291 124.791 119.961 118.128 119.878 113.061C119.796 107.995 112.393 105.757 105.517 105.873Z" fill="#BEC1C8"/>
<path d="M178.822 126.579C181.658 125.802 183.596 123.874 183.151 122.274C182.707 120.674 180.048 120.007 177.213 120.783C174.378 121.56 172.44 123.487 172.884 125.087C173.329 126.688 175.987 127.355 178.822 126.579Z" fill="#BEC1C8"/>
<path d="M164.656 130.08C165.1 131.68 163.162 133.607 160.327 134.384C157.492 135.161 154.834 134.493 154.389 132.892C153.945 131.292 155.883 129.365 158.718 128.589C161.553 127.812 164.212 128.48 164.656 130.08Z" fill="#BEC1C8"/>
<path d="M176.02 139.57C178.855 138.793 180.793 136.866 180.349 135.266C179.904 133.666 177.246 132.998 174.411 133.775C171.576 134.552 169.637 136.478 170.082 138.079C170.526 139.679 173.185 140.347 176.02 139.57Z" fill="#BEC1C8"/>
<path d="M126.813 128.821C130.135 128.821 132.898 131.549 132.17 134.791C129.457 146.88 118.672 155.894 105.756 155.894C92.8401 155.894 82.0554 146.88 79.3416 134.791C78.6138 131.549 81.3766 128.821 84.6993 128.821H93.2404C93.5465 128.821 93.8516 128.845 94.1532 128.891V128.821H117.359V128.888C117.654 128.844 117.953 128.821 118.253 128.821H126.813Z" fill="#BEC1C8"/>
</g>
<defs>
<clipPath id="clip0_4105_12795">
<rect width="199.287" height="181.99" fill="white" transform="translate(0.472656 0.134766)"/>
</clipPath>
</defs>
</svg>
